<?xml version="1.0" encoding="UTF-8" standalone="no"?>
<!DOCTYPE svg PUBLIC "-//W3C//DTD SVG 1.1//EN"
 "http://www.w3.org/Graphics/SVG/1.1/DTD/svg11.dtd">
<!-- Generated by graphviz version 2.43.0 (0)
 -->
<!-- Title: Directory::listFiles Pages: 1 -->
<svg width="323pt" height="64pt"
 viewBox="0.00 0.00 323.00 64.00" xmlns="http://www.w3.org/2000/svg" xmlns:xlink="http://www.w3.org/1999/xlink">
<g id="graph0" class="graph" transform="scale(1 1) rotate(0) translate(4 60)">
<title>Directory::listFiles</title>
<!-- Node1 -->
<g id="Node000001" class="node">
<title>Node1</title>
<g id="a_Node000001"><a xlink:title="Повертає список файлів у директорії.">
<polygon fill="#999999" stroke="#666666" points="96,-37 0,-37 0,-18 96,-18 96,-37"/>
<text text-anchor="middle" x="48" y="-25" font-family="Helvetica,sans-Serif" font-size="10.00">Directory::listFiles</text>
</a>
</g>
</g>
<!-- Node2 -->
<g id="Node000002" class="node">
<title>Node2</title>
<g id="a_Node000002"><a xlink:href="classFile.html#ab4696174d655d6351e5112499bfa7b6d" target="_top" xlink:title="Перевіряє, чи є шлях файлом.">
<polygon fill="white" stroke="#666666" points="194,-56 132,-56 132,-37 194,-37 194,-56"/>
<text text-anchor="middle" x="163" y="-44" font-family="Helvetica,sans-Serif" font-size="10.00">File::isFile</text>
</a>
</g>
</g>
<!-- Node1&#45;&gt;Node2 -->
<g id="edge1_Node000001_Node000002" class="edge">
<title>Node1&#45;&gt;Node2</title>
<g id="a_edge1_Node000001_Node000002"><a xlink:title=" ">
<path fill="none" stroke="#63b8ff" d="M96.27,-35.45C104.87,-36.89 113.76,-38.39 122.12,-39.79"/>
<polygon fill="#63b8ff" stroke="#63b8ff" points="121.55,-43.25 132,-41.46 122.72,-36.35 121.55,-43.25"/>
</a>
</g>
</g>
<!-- Node3 -->
<g id="Node000003" class="node">
<title>Node3</title>
<g id="a_Node000003"><a xlink:href="classPath.html#abeb8b3619f08fb228ef7298edbed97db" target="_top" xlink:title="Об&#39;єднує два шляхи в один.">
<polygon fill="white" stroke="#666666" points="192,-19 134,-19 134,0 192,0 192,-19"/>
<text text-anchor="middle" x="163" y="-7" font-family="Helvetica,sans-Serif" font-size="10.00">Path::join</text>
</a>
</g>
</g>
<!-- Node1&#45;&gt;Node3 -->
<g id="edge2_Node000001_Node000003" class="edge">
<title>Node1&#45;&gt;Node3</title>
<g id="a_edge2_Node000001_Node000003"><a xlink:title=" ">
<path fill="none" stroke="#63b8ff" d="M96.27,-19.97C105.48,-18.5 115.04,-16.98 123.91,-15.57"/>
<polygon fill="#63b8ff" stroke="#63b8ff" points="124.62,-19 133.95,-13.97 123.52,-12.08 124.62,-19"/>
</a>
</g>
</g>
<!-- Node4 -->
<g id="Node000004" class="node">
<title>Node4</title>
<g id="a_Node000004"><a xlink:href="classPath.html#a4ac32f60a8c773877af18c39bd28aec9" target="_top" xlink:title="Нормалізує шлях (змінює роздільники, видаляє зайві елементи).">
<polygon fill="white" stroke="#666666" points="315,-19 230,-19 230,0 315,0 315,-19"/>
<text text-anchor="middle" x="272.5" y="-7" font-family="Helvetica,sans-Serif" font-size="10.00">Path::normalize</text>
</a>
</g>
</g>
<!-- Node3&#45;&gt;Node4 -->
<g id="edge3_Node000003_Node000004" class="edge">
<title>Node3&#45;&gt;Node4</title>
<g id="a_edge3_Node000003_Node000004"><a xlink:title=" ">
<path fill="none" stroke="#63b8ff" d="M192.24,-9.5C200.65,-9.5 210.14,-9.5 219.55,-9.5"/>
<polygon fill="#63b8ff" stroke="#63b8ff" points="219.69,-13 229.69,-9.5 219.69,-6 219.69,-13"/>
</a>
</g>
</g>
</g>
</svg>
