<?xml version="1.0" encoding="UTF-8" standalone="no"?>
<!DOCTYPE svg PUBLIC "-//W3C//DTD SVG 1.1//EN"
 "http://www.w3.org/Graphics/SVG/1.1/DTD/svg11.dtd">
<!-- Generated by graphviz version 2.43.0 (0)
 -->
<!-- Title: Directory::listAll Pages: 1 -->
<svg width="495pt" height="101pt"
 viewBox="0.00 0.00 495.00 101.00" xmlns="http://www.w3.org/2000/svg" xmlns:xlink="http://www.w3.org/1999/xlink">
<g id="graph0" class="graph" transform="scale(1 1) rotate(0) translate(4 97)">
<title>Directory::listAll</title>
<!-- Node1 -->
<g id="Node000001" class="node">
<title>Node1</title>
<g id="a_Node000001"><a xlink:title="Повертає список усіх об&#39;єктів (файли + директорії).">
<polygon fill="#999999" stroke="#666666" points="86,-55 0,-55 0,-36 86,-36 86,-55"/>
<text text-anchor="middle" x="43" y="-43" font-family="Helvetica,sans-Serif" font-size="10.00">Directory::listAll</text>
</a>
</g>
</g>
<!-- Node2 -->
<g id="Node000002" class="node">
<title>Node2</title>
<g id="a_Node000002"><a xlink:href="classDirectory.html#abc6c26f6bbf575bfe971ecbdf28efa5a" target="_top" xlink:title="Повертає список піддиректорій.">
<polygon fill="white" stroke="#666666" points="244,-74 122,-74 122,-55 244,-55 244,-74"/>
<text text-anchor="middle" x="183" y="-62" font-family="Helvetica,sans-Serif" font-size="10.00">Directory::listDirectories</text>
</a>
</g>
</g>
<!-- Node1&#45;&gt;Node2 -->
<g id="edge1_Node000001_Node000002" class="edge">
<title>Node1&#45;&gt;Node2</title>
<g id="a_edge1_Node000001_Node000002"><a xlink:title=" ">
<path fill="none" stroke="#63b8ff" d="M86.15,-51.3C94.33,-52.43 103.11,-53.64 111.9,-54.85"/>
<polygon fill="#63b8ff" stroke="#63b8ff" points="111.43,-58.32 121.82,-56.21 112.39,-51.38 111.43,-58.32"/>
</a>
</g>
</g>
<!-- Node6 -->
<g id="Node000006" class="node">
<title>Node6</title>
<g id="a_Node000006"><a xlink:href="classDirectory.html#a4b5c9d8f8845733e10ce19bfe8daf1aa" target="_top" xlink:title="Повертає список файлів у директорії.">
<polygon fill="white" stroke="#666666" points="231,-37 135,-37 135,-18 231,-18 231,-37"/>
<text text-anchor="middle" x="183" y="-25" font-family="Helvetica,sans-Serif" font-size="10.00">Directory::listFiles</text>
</a>
</g>
</g>
<!-- Node1&#45;&gt;Node6 -->
<g id="edge5_Node000001_Node000006" class="edge">
<title>Node1&#45;&gt;Node6</title>
<g id="a_edge5_Node000001_Node000006"><a xlink:title=" ">
<path fill="none" stroke="#63b8ff" d="M86.15,-40C98.29,-38.42 111.73,-36.67 124.62,-34.98"/>
<polygon fill="#63b8ff" stroke="#63b8ff" points="125.34,-38.42 134.8,-33.66 124.44,-31.48 125.34,-38.42"/>
</a>
</g>
</g>
<!-- Node3 -->
<g id="Node000003" class="node">
<title>Node3</title>
<g id="a_Node000003"><a xlink:href="classFile.html#ab999dfb94de904566a8e21904179e1c6" target="_top" xlink:title="Перевіряє, чи є шлях директорією.">
<polygon fill="white" stroke="#666666" points="366,-93 280,-93 280,-74 366,-74 366,-93"/>
<text text-anchor="middle" x="323" y="-81" font-family="Helvetica,sans-Serif" font-size="10.00">File::isDirectory</text>
</a>
</g>
</g>
<!-- Node2&#45;&gt;Node3 -->
<g id="edge2_Node000002_Node000003" class="edge">
<title>Node2&#45;&gt;Node3</title>
<g id="a_edge2_Node000002_Node000003"><a xlink:title=" ">
<path fill="none" stroke="#63b8ff" d="M244.13,-72.78C252.7,-73.96 261.46,-75.16 269.86,-76.32"/>
<polygon fill="#63b8ff" stroke="#63b8ff" points="269.51,-79.81 279.9,-77.7 270.47,-72.87 269.51,-79.81"/>
</a>
</g>
</g>
<!-- Node4 -->
<g id="Node000004" class="node">
<title>Node4</title>
<g id="a_Node000004"><a xlink:href="classPath.html#abeb8b3619f08fb228ef7298edbed97db" target="_top" xlink:title="Об&#39;єднує два шляхи в один.">
<polygon fill="white" stroke="#666666" points="352,-56 294,-56 294,-37 352,-37 352,-56"/>
<text text-anchor="middle" x="323" y="-44" font-family="Helvetica,sans-Serif" font-size="10.00">Path::join</text>
</a>
</g>
</g>
<!-- Node2&#45;&gt;Node4 -->
<g id="edge3_Node000002_Node000004" class="edge">
<title>Node2&#45;&gt;Node4</title>
<g id="a_edge3_Node000002_Node000004"><a xlink:title=" ">
<path fill="none" stroke="#63b8ff" d="M244.13,-56.66C257.5,-54.91 271.32,-53.11 283.54,-51.52"/>
<polygon fill="#63b8ff" stroke="#63b8ff" points="284.35,-54.94 293.82,-50.18 283.45,-48 284.35,-54.94"/>
</a>
</g>
</g>
<!-- Node5 -->
<g id="Node000005" class="node">
<title>Node5</title>
<g id="a_Node000005"><a xlink:href="classPath.html#a4ac32f60a8c773877af18c39bd28aec9" target="_top" xlink:title="Нормалізує шлях (змінює роздільники, видаляє зайві елементи).">
<polygon fill="white" stroke="#666666" points="487,-56 402,-56 402,-37 487,-37 487,-56"/>
<text text-anchor="middle" x="444.5" y="-44" font-family="Helvetica,sans-Serif" font-size="10.00">Path::normalize</text>
</a>
</g>
</g>
<!-- Node4&#45;&gt;Node5 -->
<g id="edge4_Node000004_Node000005" class="edge">
<title>Node4&#45;&gt;Node5</title>
<g id="a_edge4_Node000004_Node000005"><a xlink:title=" ">
<path fill="none" stroke="#63b8ff" d="M352.02,-46.5C363.78,-46.5 377.86,-46.5 391.4,-46.5"/>
<polygon fill="#63b8ff" stroke="#63b8ff" points="391.61,-50 401.61,-46.5 391.61,-43 391.61,-50"/>
</a>
</g>
</g>
<!-- Node6&#45;&gt;Node4 -->
<g id="edge7_Node000006_Node000004" class="edge">
<title>Node6&#45;&gt;Node4</title>
<g id="a_edge7_Node000006_Node000004"><a xlink:title=" ">
<path fill="none" stroke="#63b8ff" d="M231.11,-33.99C248.14,-36.33 267.17,-38.95 283.39,-41.18"/>
<polygon fill="#63b8ff" stroke="#63b8ff" points="283.21,-44.69 293.6,-42.59 284.17,-37.76 283.21,-44.69"/>
</a>
</g>
</g>
<!-- Node7 -->
<g id="Node000007" class="node">
<title>Node7</title>
<g id="a_Node000007"><a xlink:href="classFile.html#ab4696174d655d6351e5112499bfa7b6d" target="_top" xlink:title="Перевіряє, чи є шлях файлом.">
<polygon fill="white" stroke="#666666" points="354,-19 292,-19 292,0 354,0 354,-19"/>
<text text-anchor="middle" x="323" y="-7" font-family="Helvetica,sans-Serif" font-size="10.00">File::isFile</text>
</a>
</g>
</g>
<!-- Node6&#45;&gt;Node7 -->
<g id="edge6_Node000006_Node000007" class="edge">
<title>Node6&#45;&gt;Node7</title>
<g id="a_edge6_Node000006_Node000007"><a xlink:title=" ">
<path fill="none" stroke="#63b8ff" d="M231.11,-21.36C247.63,-19.2 266.03,-16.8 281.92,-14.73"/>
<polygon fill="#63b8ff" stroke="#63b8ff" points="282.5,-18.18 291.96,-13.42 281.59,-11.24 282.5,-18.18"/>
</a>
</g>
</g>
</g>
</svg>
