<?xml version="1.0" encoding="UTF-8" standalone="no"?>
<!DOCTYPE svg PUBLIC "-//W3C//DTD SVG 1.1//EN"
 "http://www.w3.org/Graphics/SVG/1.1/DTD/svg11.dtd">
<!-- Generated by graphviz version 2.43.0 (0)
 -->
<!-- Title: Directory::listDirectories Pages: 1 -->
<svg width="267pt" height="82pt"
 viewBox="0.00 0.00 267.00 82.00" xmlns="http://www.w3.org/2000/svg" xmlns:xlink="http://www.w3.org/1999/xlink">
<g id="graph0" class="graph" transform="scale(1 1) rotate(0) translate(4 78)">
<title>Directory::listDirectories</title>
<!-- Node1 -->
<g id="Node000001" class="node">
<title>Node1</title>
<g id="a_Node000001"><a xlink:title="Повертає список піддиректорій.">
<polygon fill="#999999" stroke="#666666" points="259,-37 137,-37 137,-18 259,-18 259,-37"/>
<text text-anchor="middle" x="198" y="-25" font-family="Helvetica,sans-Serif" font-size="10.00">Directory::listDirectories</text>
</a>
</g>
</g>
<!-- Node2 -->
<g id="Node000002" class="node">
<title>Node2</title>
<g id="a_Node000002"><a xlink:href="classDirectory.html#a34240fb848fe80438cad603ea4b837bb" target="_top" xlink:title="Видаляє директорію.">
<polygon fill="white" stroke="#666666" points="101,-56 0,-56 0,-37 101,-37 101,-56"/>
<text text-anchor="middle" x="50.5" y="-44" font-family="Helvetica,sans-Serif" font-size="10.00">Directory::deleteDir</text>
</a>
</g>
</g>
<!-- Node1&#45;&gt;Node2 -->
<g id="edge1_Node000001_Node000002" class="edge">
<title>Node1&#45;&gt;Node2</title>
<g id="a_edge1_Node000001_Node000002"><a xlink:title=" ">
<path fill="none" stroke="#63b8ff" d="M126.86,-36.66C118.19,-37.79 109.48,-38.93 101.2,-40.01"/>
<polygon fill="#63b8ff" stroke="#63b8ff" points="127.52,-40.1 136.98,-35.34 126.61,-33.16 127.52,-40.1"/>
</a>
</g>
</g>
<!-- Node3 -->
<g id="Node000003" class="node">
<title>Node3</title>
<g id="a_Node000003"><a xlink:href="classDirectory.html#a2e3d59e9340e851ab78fd359facf0945" target="_top" xlink:title="Повертає список усіх об&#39;єктів (файли + директорії).">
<polygon fill="white" stroke="#666666" points="93.5,-19 7.5,-19 7.5,0 93.5,0 93.5,-19"/>
<text text-anchor="middle" x="50.5" y="-7" font-family="Helvetica,sans-Serif" font-size="10.00">Directory::listAll</text>
</a>
</g>
</g>
<!-- Node1&#45;&gt;Node3 -->
<g id="edge3_Node000001_Node000003" class="edge">
<title>Node1&#45;&gt;Node3</title>
<g id="a_edge3_Node000001_Node000003"><a xlink:title=" ">
<path fill="none" stroke="#63b8ff" d="M127,-18.84C115.59,-17.43 104.09,-16.01 93.62,-14.71"/>
<polygon fill="#63b8ff" stroke="#63b8ff" points="126.63,-22.32 136.98,-20.07 127.48,-15.37 126.63,-22.32"/>
</a>
</g>
</g>
<!-- Node2&#45;&gt;Node2 -->
<g id="edge2_Node000002_Node000002" class="edge">
<title>Node2&#45;&gt;Node2</title>
<g id="a_edge2_Node000002_Node000002"><a xlink:title=" ">
<path fill="none" stroke="#63b8ff" d="M77.66,-65.19C76.18,-70.2 67.12,-74 50.5,-74 24.55,-74 17.05,-64.73 28,-56.08"/>
<polygon fill="#63b8ff" stroke="#63b8ff" points="80.67,-63.39 73,-56.08 74.44,-66.58 80.67,-63.39"/>
</a>
</g>
</g>
</g>
</svg>
