<?xml version="1.0" encoding="UTF-8" standalone="no"?>
<!DOCTYPE svg PUBLIC "-//W3C//DTD SVG 1.1//EN"
 "http://www.w3.org/Graphics/SVG/1.1/DTD/svg11.dtd">
<!-- Generated by graphviz version 2.43.0 (0)
 -->
<!-- Title: File::isFile Pages: 1 -->
<svg width="339pt" height="82pt"
 viewBox="0.00 0.00 339.00 82.00" xmlns="http://www.w3.org/2000/svg" xmlns:xlink="http://www.w3.org/1999/xlink">
<g id="graph0" class="graph" transform="scale(1 1) rotate(0) translate(4 78)">
<title>File::isFile</title>
<!-- Node1 -->
<g id="Node000001" class="node">
<title>Node1</title>
<g id="a_Node000001"><a xlink:title="Перевіряє, чи є шлях файлом.">
<polygon fill="#999999" stroke="#666666" points="331,-37 269,-37 269,-18 331,-18 331,-37"/>
<text text-anchor="middle" x="300" y="-25" font-family="Helvetica,sans-Serif" font-size="10.00">File::isFile</text>
</a>
</g>
</g>
<!-- Node2 -->
<g id="Node000002" class="node">
<title>Node2</title>
<g id="a_Node000002"><a xlink:href="classDirectory.html#a4b5c9d8f8845733e10ce19bfe8daf1aa" target="_top" xlink:title="Повертає список файлів у директорії.">
<polygon fill="white" stroke="#666666" points="233,-37 137,-37 137,-18 233,-18 233,-37"/>
<text text-anchor="middle" x="185" y="-25" font-family="Helvetica,sans-Serif" font-size="10.00">Directory::listFiles</text>
</a>
</g>
</g>
<!-- Node1&#45;&gt;Node2 -->
<g id="edge1_Node000001_Node000002" class="edge">
<title>Node1&#45;&gt;Node2</title>
<g id="a_edge1_Node000001_Node000002"><a xlink:title=" ">
<path fill="none" stroke="#63b8ff" d="M258.67,-27.5C250.49,-27.5 241.81,-27.5 233.4,-27.5"/>
<polygon fill="#63b8ff" stroke="#63b8ff" points="258.72,-31 268.72,-27.5 258.72,-24 258.72,-31"/>
</a>
</g>
</g>
<!-- Node3 -->
<g id="Node000003" class="node">
<title>Node3</title>
<g id="a_Node000003"><a xlink:href="classDirectory.html#a34240fb848fe80438cad603ea4b837bb" target="_top" xlink:title="Видаляє директорію.">
<polygon fill="white" stroke="#666666" points="101,-56 0,-56 0,-37 101,-37 101,-56"/>
<text text-anchor="middle" x="50.5" y="-44" font-family="Helvetica,sans-Serif" font-size="10.00">Directory::deleteDir</text>
</a>
</g>
</g>
<!-- Node2&#45;&gt;Node3 -->
<g id="edge2_Node000002_Node000003" class="edge">
<title>Node2&#45;&gt;Node3</title>
<g id="a_edge2_Node000002_Node000003"><a xlink:title=" ">
<path fill="none" stroke="#63b8ff" d="M126.95,-35.68C118.36,-36.91 109.55,-38.18 101.13,-39.38"/>
<polygon fill="#63b8ff" stroke="#63b8ff" points="127.51,-39.14 136.91,-34.25 126.52,-32.21 127.51,-39.14"/>
</a>
</g>
</g>
<!-- Node4 -->
<g id="Node000004" class="node">
<title>Node4</title>
<g id="a_Node000004"><a xlink:href="classDirectory.html#a2e3d59e9340e851ab78fd359facf0945" target="_top" xlink:title="Повертає список усіх об&#39;єктів (файли + директорії).">
<polygon fill="white" stroke="#666666" points="93.5,-19 7.5,-19 7.5,0 93.5,0 93.5,-19"/>
<text text-anchor="middle" x="50.5" y="-7" font-family="Helvetica,sans-Serif" font-size="10.00">Directory::listAll</text>
</a>
</g>
</g>
<!-- Node2&#45;&gt;Node4 -->
<g id="edge4_Node000002_Node000004" class="edge">
<title>Node2&#45;&gt;Node4</title>
<g id="a_edge4_Node000002_Node000004"><a xlink:title=" ">
<path fill="none" stroke="#63b8ff" d="M126.8,-19.73C115.65,-18.21 104.14,-16.65 93.59,-15.22"/>
<polygon fill="#63b8ff" stroke="#63b8ff" points="126.53,-23.23 136.91,-21.1 127.47,-16.29 126.53,-23.23"/>
</a>
</g>
</g>
<!-- Node3&#45;&gt;Node3 -->
<g id="edge3_Node000003_Node000003" class="edge">
<title>Node3&#45;&gt;Node3</title>
<g id="a_edge3_Node000003_Node000003"><a xlink:title=" ">
<path fill="none" stroke="#63b8ff" d="M75.43,-65.19C74.07,-70.2 65.76,-74 50.5,-74 26.68,-74 19.8,-64.73 29.85,-56.08"/>
<polygon fill="#63b8ff" stroke="#63b8ff" points="78.57,-63.65 71.15,-56.08 72.23,-66.62 78.57,-63.65"/>
</a>
</g>
</g>
</g>
</svg>
