<?xml version="1.0" encoding="UTF-8" standalone="no"?>
<!DOCTYPE svg PUBLIC "-//W3C//DTD SVG 1.1//EN"
 "http://www.w3.org/Graphics/SVG/1.1/DTD/svg11.dtd">
<!-- Generated by graphviz version 2.43.0 (0)
 -->
<!-- Title: EventDispatcher::dispatch Pages: 1 -->
<svg width="408pt" height="38pt"
 viewBox="0.00 0.00 408.00 38.00" xmlns="http://www.w3.org/2000/svg" xmlns:xlink="http://www.w3.org/1999/xlink">
<g id="graph0" class="graph" transform="scale(1 1) rotate(0) translate(4 34)">
<title>EventDispatcher::dispatch</title>
<!-- Node1 -->
<g id="Node000001" class="node">
<title>Node1</title>
<g id="a_Node000001"><a xlink:title="Розсилає подію всім зареєстрованим обробникам">
<polygon fill="#999999" stroke="#666666" points="400,-24.5 268,-24.5 268,-5.5 400,-5.5 400,-24.5"/>
<text text-anchor="middle" x="334" y="-12.5" font-family="Helvetica,sans-Serif" font-size="10.00">EventDispatcher::dispatch</text>
</a>
</g>
</g>
<!-- Node2 -->
<g id="Node000002" class="node">
<title>Node2</title>
<g id="a_Node000002"><a xlink:href="classEventDispatcher.html#a6262770115ab3b99f9c2970364fd0c40" target="_top" xlink:title="Обробляє всі події з черги">
<polygon fill="white" stroke="#666666" points="232,-30 102,-30 102,0 232,0 232,-30"/>
<text text-anchor="start" x="110" y="-18" font-family="Helvetica,sans-Serif" font-size="10.00">EventDispatcher::process</text>
<text text-anchor="middle" x="167" y="-7" font-family="Helvetica,sans-Serif" font-size="10.00">_event</text>
</a>
</g>
</g>
<!-- Node1&#45;&gt;Node2 -->
<g id="edge1_Node000001_Node000002" class="edge">
<title>Node1&#45;&gt;Node2</title>
<g id="a_edge1_Node000001_Node000002"><a xlink:title=" ">
<path fill="none" stroke="#63b8ff" d="M257.53,-15C249.07,-15 240.5,-15 232.2,-15"/>
<polygon fill="#63b8ff" stroke="#63b8ff" points="257.79,-18.5 267.79,-15 257.79,-11.5 257.79,-18.5"/>
</a>
</g>
</g>
<!-- Node3 -->
<g id="Node000003" class="node">
<title>Node3</title>
<g id="a_Node000003"><a xlink:href="classEngine.html#a8810408127b79c306e6fa2131aea46e2" target="_top" xlink:title="Запускає основний цикл движка">
<polygon fill="white" stroke="#666666" points="66,-24.5 0,-24.5 0,-5.5 66,-5.5 66,-24.5"/>
<text text-anchor="middle" x="33" y="-12.5" font-family="Helvetica,sans-Serif" font-size="10.00">Engine::run</text>
</a>
</g>
</g>
<!-- Node2&#45;&gt;Node3 -->
<g id="edge2_Node000002_Node000003" class="edge">
<title>Node2&#45;&gt;Node3</title>
<g id="a_edge2_Node000002_Node000003"><a xlink:title=" ">
<path fill="none" stroke="#63b8ff" d="M91.71,-15C82.7,-15 73.91,-15 66,-15"/>
<polygon fill="#63b8ff" stroke="#63b8ff" points="91.93,-18.5 101.93,-15 91.93,-11.5 91.93,-18.5"/>
</a>
</g>
</g>
</g>
</svg>
