<?xml version="1.0" encoding="UTF-8" standalone="no"?>
<!DOCTYPE svg PUBLIC "-//W3C//DTD SVG 1.1//EN"
 "http://www.w3.org/Graphics/SVG/1.1/DTD/svg11.dtd">
<!-- Generated by graphviz version 2.43.0 (0)
 -->
<!-- Title: Engine::init Pages: 1 -->
<svg width="313pt" height="70pt"
 viewBox="0.00 0.00 313.00 69.50" xmlns="http://www.w3.org/2000/svg" xmlns:xlink="http://www.w3.org/1999/xlink">
<g id="graph0" class="graph" transform="scale(1 1) rotate(0) translate(4 65.5)">
<title>Engine::init</title>
<!-- Node1 -->
<g id="Node000001" class="node">
<title>Node1</title>
<g id="a_Node000001"><a xlink:title="Ініціалізує рушій та створює вікно">
<polygon fill="#999999" stroke="#666666" points="65,-42.5 0,-42.5 0,-23.5 65,-23.5 65,-42.5"/>
<text text-anchor="middle" x="32.5" y="-30.5" font-family="Helvetica,sans-Serif" font-size="10.00">Engine::init</text>
</a>
</g>
</g>
<!-- Node2 -->
<g id="Node000002" class="node">
<title>Node2</title>
<g id="a_Node000002"><a xlink:href="classTime.html#ac626e60d7767728dca61c1095cb9678c" target="_top" xlink:title="Ініціалізує систему часу">
<polygon fill="white" stroke="#666666" points="158,-61.5 101,-61.5 101,-42.5 158,-42.5 158,-61.5"/>
<text text-anchor="middle" x="129.5" y="-49.5" font-family="Helvetica,sans-Serif" font-size="10.00">Time::init</text>
</a>
</g>
</g>
<!-- Node1&#45;&gt;Node2 -->
<g id="edge1_Node000001_Node000002" class="edge">
<title>Node1&#45;&gt;Node2</title>
<g id="a_edge1_Node000001_Node000002"><a xlink:title=" ">
<path fill="none" stroke="#63b8ff" d="M65.13,-39.33C73.35,-40.97 82.27,-42.75 90.76,-44.45"/>
<polygon fill="#63b8ff" stroke="#63b8ff" points="90.34,-47.94 100.83,-46.47 91.71,-41.07 90.34,-47.94"/>
</a>
</g>
</g>
<!-- Node3 -->
<g id="Node000003" class="node">
<title>Node3</title>
<g id="a_Node000003"><a xlink:href="classInput.html#a391abd9246617ecc1d7c5ad72ec40435" target="_top" xlink:title="Ініціалізація Input та підписка на EventDispatcher.">
<polygon fill="white" stroke="#666666" points="158,-24.5 101,-24.5 101,-5.5 158,-5.5 158,-24.5"/>
<text text-anchor="middle" x="129.5" y="-12.5" font-family="Helvetica,sans-Serif" font-size="10.00">Input::init</text>
</a>
</g>
</g>
<!-- Node1&#45;&gt;Node3 -->
<g id="edge2_Node000001_Node000003" class="edge">
<title>Node1&#45;&gt;Node3</title>
<g id="a_edge2_Node000001_Node000003"><a xlink:title=" ">
<path fill="none" stroke="#63b8ff" d="M65.13,-27.01C73.35,-25.45 82.27,-23.76 90.76,-22.15"/>
<polygon fill="#63b8ff" stroke="#63b8ff" points="91.65,-25.54 100.83,-20.24 90.35,-18.67 91.65,-25.54"/>
</a>
</g>
</g>
<!-- Node4 -->
<g id="Node000004" class="node">
<title>Node4</title>
<g id="a_Node000004"><a xlink:href="classEventDispatcher.html#a68e25d450994fbfefed8f51aa01d031b" target="_top" xlink:title="Додає обробник події до диспетчера">
<polygon fill="white" stroke="#666666" points="305,-30 194,-30 194,0 305,0 305,-30"/>
<text text-anchor="start" x="202" y="-18" font-family="Helvetica,sans-Serif" font-size="10.00">EventDispatcher::add</text>
<text text-anchor="middle" x="249.5" y="-7" font-family="Helvetica,sans-Serif" font-size="10.00">_event_listener</text>
</a>
</g>
</g>
<!-- Node3&#45;&gt;Node4 -->
<g id="edge3_Node000003_Node000004" class="edge">
<title>Node3&#45;&gt;Node4</title>
<g id="a_edge3_Node000003_Node000004"><a xlink:title=" ">
<path fill="none" stroke="#63b8ff" d="M158.17,-15C165.89,-15 174.62,-15 183.53,-15"/>
<polygon fill="#63b8ff" stroke="#63b8ff" points="183.63,-18.5 193.63,-15 183.63,-11.5 183.63,-18.5"/>
</a>
</g>
</g>
</g>
</svg>
