<?xml version="1.0" encoding="UTF-8" standalone="no"?>
<!DOCTYPE svg PUBLIC "-//W3C//DTD SVG 1.1//EN"
 "http://www.w3.org/Graphics/SVG/1.1/DTD/svg11.dtd">
<!-- Generated by graphviz version 2.43.0 (0)
 -->
<!-- Title: Path::getDirectory Pages: 1 -->
<svg width="274pt" height="82pt"
 viewBox="0.00 0.00 274.00 82.00" xmlns="http://www.w3.org/2000/svg" xmlns:xlink="http://www.w3.org/1999/xlink">
<g id="graph0" class="graph" transform="scale(1 1) rotate(0) translate(4 78)">
<title>Path::getDirectory</title>
<!-- Node1 -->
<g id="Node000001" class="node">
<title>Node1</title>
<g id="a_Node000001"><a xlink:title="Повертає директорію з повного шляху.">
<polygon fill="#999999" stroke="#666666" points="266,-37 170,-37 170,-18 266,-18 266,-37"/>
<text text-anchor="middle" x="218" y="-25" font-family="Helvetica,sans-Serif" font-size="10.00">Path::getDirectory</text>
</a>
</g>
</g>
<!-- Node2 -->
<g id="Node000002" class="node">
<title>Node2</title>
<g id="a_Node000002"><a xlink:href="classDirectory.html#a0412509f5fa1efa9e98014032526a946" target="_top" xlink:title="Рекурсивно створює директорію та усі проміжні шляхи.">
<polygon fill="white" stroke="#666666" points="134,-56 0,-56 0,-37 134,-37 134,-56"/>
<text text-anchor="middle" x="67" y="-44" font-family="Helvetica,sans-Serif" font-size="10.00">Directory::createRecursive</text>
</a>
</g>
</g>
<!-- Node1&#45;&gt;Node2 -->
<g id="edge1_Node000001_Node000002" class="edge">
<title>Node1&#45;&gt;Node2</title>
<g id="a_edge1_Node000001_Node000002"><a xlink:title=" ">
<path fill="none" stroke="#63b8ff" d="M159.81,-34.79C151.42,-35.86 142.72,-36.97 134.17,-38.06"/>
<polygon fill="#63b8ff" stroke="#63b8ff" points="160.38,-38.25 169.86,-33.51 159.49,-31.3 160.38,-38.25"/>
</a>
</g>
</g>
<!-- Node3 -->
<g id="Node000003" class="node">
<title>Node3</title>
<g id="a_Node000003"><a xlink:href="classDirectory.html#a5bce6c50b4a944f6fe87751e84994687" target="_top" xlink:title="Повертає шлях до виконуваного файлу.">
<polygon fill="white" stroke="#666666" points="129.5,-19 4.5,-19 4.5,0 129.5,0 129.5,-19"/>
<text text-anchor="middle" x="67" y="-7" font-family="Helvetica,sans-Serif" font-size="10.00">Directory::getExecutable</text>
</a>
</g>
</g>
<!-- Node1&#45;&gt;Node3 -->
<g id="edge3_Node000001_Node000003" class="edge">
<title>Node1&#45;&gt;Node3</title>
<g id="a_edge3_Node000001_Node000003"><a xlink:title=" ">
<path fill="none" stroke="#63b8ff" d="M159.75,-20.58C149.87,-19.39 139.56,-18.14 129.57,-16.94"/>
<polygon fill="#63b8ff" stroke="#63b8ff" points="159.51,-24.08 169.86,-21.8 160.35,-17.13 159.51,-24.08"/>
</a>
</g>
</g>
<!-- Node2&#45;&gt;Node2 -->
<g id="edge2_Node000002_Node000002" class="edge">
<title>Node2&#45;&gt;Node2</title>
<g id="a_edge2_Node000002_Node000002"><a xlink:title=" ">
<path fill="none" stroke="#63b8ff" d="M95,-64.82C93.83,-70.01 84.5,-74 67,-74 40.34,-74 32.63,-64.73 43.88,-56.08"/>
<polygon fill="#63b8ff" stroke="#63b8ff" points="98.05,-63.11 90.12,-56.08 91.94,-66.52 98.05,-63.11"/>
</a>
</g>
</g>
</g>
</svg>
