<?xml version="1.0" encoding="UTF-8" standalone="no"?>
<!DOCTYPE svg PUBLIC "-//W3C//DTD SVG 1.1//EN"
 "http://www.w3.org/Graphics/SVG/1.1/DTD/svg11.dtd">
<!-- Generated by graphviz version 2.43.0 (0)
 -->
<!-- Title: Directory::exists Pages: 1 -->
<svg width="267pt" height="100pt"
 viewBox="0.00 0.00 267.00 100.00" xmlns="http://www.w3.org/2000/svg" xmlns:xlink="http://www.w3.org/1999/xlink">
<g id="graph0" class="graph" transform="scale(1 1) rotate(0) translate(4 96)">
<title>Directory::exists</title>
<!-- Node1 -->
<g id="Node000001" class="node">
<title>Node1</title>
<g id="a_Node000001"><a xlink:title="Перевіряє, чи існує директорія.">
<polygon fill="#999999" stroke="#666666" points="259,-46 170,-46 170,-27 259,-27 259,-46"/>
<text text-anchor="middle" x="214.5" y="-34" font-family="Helvetica,sans-Serif" font-size="10.00">Directory::exists</text>
</a>
</g>
</g>
<!-- Node2 -->
<g id="Node000002" class="node">
<title>Node2</title>
<g id="a_Node000002"><a xlink:href="classDirectory.html#a0412509f5fa1efa9e98014032526a946" target="_top" xlink:title="Рекурсивно створює директорію та усі проміжні шляхи.">
<polygon fill="white" stroke="#666666" points="134,-74 0,-74 0,-55 134,-55 134,-74"/>
<text text-anchor="middle" x="67" y="-62" font-family="Helvetica,sans-Serif" font-size="10.00">Directory::createRecursive</text>
</a>
</g>
</g>
<!-- Node1&#45;&gt;Node2 -->
<g id="edge1_Node000001_Node000002" class="edge">
<title>Node1&#45;&gt;Node2</title>
<g id="a_edge1_Node000001_Node000002"><a xlink:title=" ">
<path fill="none" stroke="#63b8ff" d="M159.94,-46.81C146.05,-49.48 131.16,-52.35 117.49,-54.98"/>
<polygon fill="#63b8ff" stroke="#63b8ff" points="160.69,-50.23 169.85,-44.9 159.36,-43.35 160.69,-50.23"/>
</a>
</g>
</g>
<!-- Node3 -->
<g id="Node000003" class="node">
<title>Node3</title>
<g id="a_Node000003"><a xlink:href="classDirectory.html#a34240fb848fe80438cad603ea4b837bb" target="_top" xlink:title="Видаляє директорію.">
<polygon fill="white" stroke="#666666" points="117.5,-19 16.5,-19 16.5,0 117.5,0 117.5,-19"/>
<text text-anchor="middle" x="67" y="-7" font-family="Helvetica,sans-Serif" font-size="10.00">Directory::deleteDir</text>
</a>
</g>
</g>
<!-- Node1&#45;&gt;Node3 -->
<g id="edge3_Node000001_Node000003" class="edge">
<title>Node1&#45;&gt;Node3</title>
<g id="a_edge3_Node000001_Node000003"><a xlink:title=" ">
<path fill="none" stroke="#63b8ff" d="M159.99,-26.57C146.18,-24.01 131.36,-21.26 117.75,-18.73"/>
<polygon fill="#63b8ff" stroke="#63b8ff" points="159.37,-30.02 169.85,-28.4 160.65,-23.13 159.37,-30.02"/>
</a>
</g>
</g>
<!-- Node2&#45;&gt;Node2 -->
<g id="edge2_Node000002_Node000002" class="edge">
<title>Node2&#45;&gt;Node2</title>
<g id="a_edge2_Node000002_Node000002"><a xlink:title=" ">
<path fill="none" stroke="#63b8ff" d="M94.16,-83.19C92.68,-88.2 83.62,-92 67,-92 41.05,-92 33.55,-82.73 44.5,-74.08"/>
<polygon fill="#63b8ff" stroke="#63b8ff" points="97.17,-81.39 89.5,-74.08 90.94,-84.58 97.17,-81.39"/>
</a>
</g>
</g>
<!-- Node3&#45;&gt;Node3 -->
<g id="edge4_Node000003_Node000003" class="edge">
<title>Node3&#45;&gt;Node3</title>
<g id="a_edge4_Node000003_Node000003"><a xlink:title=" ">
<path fill="none" stroke="#63b8ff" d="M94.16,-28.19C92.68,-33.2 83.62,-37 67,-37 41.05,-37 33.55,-27.73 44.5,-19.08"/>
<polygon fill="#63b8ff" stroke="#63b8ff" points="97.17,-26.39 89.5,-19.08 90.94,-29.58 97.17,-26.39"/>
</a>
</g>
</g>
</g>
</svg>
