<?xml version="1.0" encoding="UTF-8" standalone="no"?>
<!DOCTYPE svg PUBLIC "-//W3C//DTD SVG 1.1//EN"
 "http://www.w3.org/Graphics/SVG/1.1/DTD/svg11.dtd">
<!-- Generated by graphviz version 2.43.0 (0)
 -->
<!-- Title: Path::join Pages: 1 -->
<svg width="361pt" height="82pt"
 viewBox="0.00 0.00 361.00 82.00" xmlns="http://www.w3.org/2000/svg" xmlns:xlink="http://www.w3.org/1999/xlink">
<g id="graph0" class="graph" transform="scale(1 1) rotate(0) translate(4 78)">
<title>Path::join</title>
<!-- Node1 -->
<g id="Node000001" class="node">
<title>Node1</title>
<g id="a_Node000001"><a xlink:title="Об&#39;єднує два шляхи в один.">
<polygon fill="#999999" stroke="#666666" points="353,-56 295,-56 295,-37 353,-37 353,-56"/>
<text text-anchor="middle" x="324" y="-44" font-family="Helvetica,sans-Serif" font-size="10.00">Path::join</text>
</a>
</g>
</g>
<!-- Node2 -->
<g id="Node000002" class="node">
<title>Node2</title>
<g id="a_Node000002"><a xlink:href="classDirectory.html#a34240fb848fe80438cad603ea4b837bb" target="_top" xlink:title="Видаляє директорію.">
<polygon fill="white" stroke="#666666" points="101,-56 0,-56 0,-37 101,-37 101,-56"/>
<text text-anchor="middle" x="50.5" y="-44" font-family="Helvetica,sans-Serif" font-size="10.00">Directory::deleteDir</text>
</a>
</g>
</g>
<!-- Node1&#45;&gt;Node2 -->
<g id="edge1_Node000001_Node000002" class="edge">
<title>Node1&#45;&gt;Node2</title>
<g id="a_edge1_Node000001_Node000002"><a xlink:title=" ">
<path fill="none" stroke="#63b8ff" d="M287.61,-58.98C278.41,-61.68 268.43,-64.13 259,-65.5 205.34,-73.3 190.9,-71.42 137,-65.5 120.07,-63.64 101.59,-59.77 86.15,-56.01"/>
<polygon fill="#63b8ff" stroke="#63b8ff" points="288.71,-62.31 297.23,-56 286.64,-55.62 288.71,-62.31"/>
</a>
</g>
</g>
<!-- Node3 -->
<g id="Node000003" class="node">
<title>Node3</title>
<g id="a_Node000003"><a xlink:href="classDirectory.html#abc6c26f6bbf575bfe971ecbdf28efa5a" target="_top" xlink:title="Повертає список піддиректорій.">
<polygon fill="white" stroke="#666666" points="259,-19 137,-19 137,0 259,0 259,-19"/>
<text text-anchor="middle" x="198" y="-7" font-family="Helvetica,sans-Serif" font-size="10.00">Directory::listDirectories</text>
</a>
</g>
</g>
<!-- Node1&#45;&gt;Node3 -->
<g id="edge3_Node000001_Node000003" class="edge">
<title>Node1&#45;&gt;Node3</title>
<g id="a_edge3_Node000001_Node000003"><a xlink:title=" ">
<path fill="none" stroke="#63b8ff" d="M285.06,-35.18C267.75,-30.02 247.48,-23.97 230.96,-19.04"/>
<polygon fill="#63b8ff" stroke="#63b8ff" points="284.28,-38.6 294.86,-38.1 286.28,-31.89 284.28,-38.6"/>
</a>
</g>
</g>
<!-- Node5 -->
<g id="Node000005" class="node">
<title>Node5</title>
<g id="a_Node000005"><a xlink:href="classDirectory.html#a4b5c9d8f8845733e10ce19bfe8daf1aa" target="_top" xlink:title="Повертає список файлів у директорії.">
<polygon fill="white" stroke="#666666" points="246,-56 150,-56 150,-37 246,-37 246,-56"/>
<text text-anchor="middle" x="198" y="-44" font-family="Helvetica,sans-Serif" font-size="10.00">Directory::listFiles</text>
</a>
</g>
</g>
<!-- Node1&#45;&gt;Node5 -->
<g id="edge6_Node000001_Node000005" class="edge">
<title>Node1&#45;&gt;Node5</title>
<g id="a_edge6_Node000001_Node000005"><a xlink:title=" ">
<path fill="none" stroke="#63b8ff" d="M284.67,-46.5C272.6,-46.5 259.12,-46.5 246.49,-46.5"/>
<polygon fill="#63b8ff" stroke="#63b8ff" points="284.86,-50 294.86,-46.5 284.86,-43 284.86,-50"/>
</a>
</g>
</g>
<!-- Node2&#45;&gt;Node2 -->
<g id="edge2_Node000002_Node000002" class="edge">
<title>Node2&#45;&gt;Node2</title>
<g id="a_edge2_Node000002_Node000002"><a xlink:title=" ">
<path fill="none" stroke="#63b8ff" d="M77.66,-65.19C76.18,-70.2 67.12,-74 50.5,-74 24.55,-74 17.05,-64.73 28,-56.08"/>
<polygon fill="#63b8ff" stroke="#63b8ff" points="80.67,-63.39 73,-56.08 74.44,-66.58 80.67,-63.39"/>
</a>
</g>
</g>
<!-- Node3&#45;&gt;Node2 -->
<g id="edge4_Node000003_Node000002" class="edge">
<title>Node3&#45;&gt;Node2</title>
<g id="a_edge4_Node000003_Node000002"><a xlink:title=" ">
<path fill="none" stroke="#63b8ff" d="M149.84,-21.49C130.16,-26.5 107.63,-32.23 89.1,-36.94"/>
<polygon fill="#63b8ff" stroke="#63b8ff" points="150.7,-24.89 159.53,-19.03 148.98,-18.1 150.7,-24.89"/>
</a>
</g>
</g>
<!-- Node4 -->
<g id="Node000004" class="node">
<title>Node4</title>
<g id="a_Node000004"><a xlink:href="classDirectory.html#a2e3d59e9340e851ab78fd359facf0945" target="_top" xlink:title="Повертає список усіх об&#39;єктів (файли + директорії).">
<polygon fill="white" stroke="#666666" points="93.5,-19 7.5,-19 7.5,0 93.5,0 93.5,-19"/>
<text text-anchor="middle" x="50.5" y="-7" font-family="Helvetica,sans-Serif" font-size="10.00">Directory::listAll</text>
</a>
</g>
</g>
<!-- Node3&#45;&gt;Node4 -->
<g id="edge5_Node000003_Node000004" class="edge">
<title>Node3&#45;&gt;Node4</title>
<g id="a_edge5_Node000003_Node000004"><a xlink:title=" ">
<path fill="none" stroke="#63b8ff" d="M126.66,-9.5C115.36,-9.5 103.99,-9.5 93.62,-9.5"/>
<polygon fill="#63b8ff" stroke="#63b8ff" points="126.98,-13 136.98,-9.5 126.98,-6 126.98,-13"/>
</a>
</g>
</g>
<!-- Node5&#45;&gt;Node2 -->
<g id="edge7_Node000005_Node000002" class="edge">
<title>Node5&#45;&gt;Node2</title>
<g id="a_edge7_Node000005_Node000002"><a xlink:title=" ">
<path fill="none" stroke="#63b8ff" d="M139.68,-46.5C126.9,-46.5 113.44,-46.5 101,-46.5"/>
<polygon fill="#63b8ff" stroke="#63b8ff" points="139.76,-50 149.76,-46.5 139.76,-43 139.76,-50"/>
</a>
</g>
</g>
<!-- Node5&#45;&gt;Node4 -->
<g id="edge8_Node000005_Node000004" class="edge">
<title>Node5&#45;&gt;Node4</title>
<g id="a_edge8_Node000005_Node000004"><a xlink:title=" ">
<path fill="none" stroke="#63b8ff" d="M149.84,-34.51C130.16,-29.5 107.63,-23.77 89.1,-19.06"/>
<polygon fill="#63b8ff" stroke="#63b8ff" points="148.98,-37.9 159.53,-36.97 150.7,-31.11 148.98,-37.9"/>
</a>
</g>
</g>
</g>
</svg>
