<?xml version="1.0" encoding="UTF-8" standalone="no"?>
<!DOCTYPE svg PUBLIC "-//W3C//DTD SVG 1.1//EN"
 "http://www.w3.org/Graphics/SVG/1.1/DTD/svg11.dtd">
<!-- Generated by graphviz version 2.43.0 (0)
 -->
<!-- Title: Info::GetArchitecture Pages: 1 -->
<svg width="285pt" height="64pt"
 viewBox="0.00 0.00 285.00 64.00" xmlns="http://www.w3.org/2000/svg" xmlns:xlink="http://www.w3.org/1999/xlink">
<g id="graph0" class="graph" transform="scale(1 1) rotate(0) translate(4 60)">
<title>Info::GetArchitecture</title>
<!-- Node1 -->
<g id="Node000001" class="node">
<title>Node1</title>
<g id="a_Node000001"><a xlink:title="Повертає архітектуру процесора.">
<polygon fill="#999999" stroke="#666666" points="277,-37 170,-37 170,-18 277,-18 277,-37"/>
<text text-anchor="middle" x="223.5" y="-25" font-family="Helvetica,sans-Serif" font-size="10.00">Info::GetArchitecture</text>
</a>
</g>
</g>
<!-- Node2 -->
<g id="Node000002" class="node">
<title>Node2</title>
<g id="a_Node000002"><a xlink:href="classInfo.html#a9224dd2898e3e60c256bb48b1108a792" target="_top" xlink:title="Повертає назву архітектури у вигляді рядка.">
<polygon fill="white" stroke="#666666" points="134,-56 0,-56 0,-37 134,-37 134,-56"/>
<text text-anchor="middle" x="67" y="-44" font-family="Helvetica,sans-Serif" font-size="10.00">Info::GetArchitectureName</text>
</a>
</g>
</g>
<!-- Node1&#45;&gt;Node2 -->
<g id="edge1_Node000001_Node000002" class="edge">
<title>Node1&#45;&gt;Node2</title>
<g id="a_edge1_Node000001_Node000002"><a xlink:title=" ">
<path fill="none" stroke="#63b8ff" d="M159.66,-35.23C151.26,-36.26 142.62,-37.32 134.16,-38.36"/>
<polygon fill="#63b8ff" stroke="#63b8ff" points="160.26,-38.68 169.76,-33.99 159.41,-31.73 160.26,-38.68"/>
</a>
</g>
</g>
<!-- Node3 -->
<g id="Node000003" class="node">
<title>Node3</title>
<g id="a_Node000003"><a xlink:href="classInfo.html#a1078bfa6b8250be3a250569b5d178bb6" target="_top" xlink:title="Перевіряє, чи архітектура є 64&#45;бітною.">
<polygon fill="white" stroke="#666666" points="102,-19 32,-19 32,0 102,0 102,-19"/>
<text text-anchor="middle" x="67" y="-7" font-family="Helvetica,sans-Serif" font-size="10.00">Info::Is64Bit</text>
</a>
</g>
</g>
<!-- Node1&#45;&gt;Node3 -->
<g id="edge2_Node000001_Node000003" class="edge">
<title>Node1&#45;&gt;Node3</title>
<g id="a_edge2_Node000001_Node000003"><a xlink:title=" ">
<path fill="none" stroke="#63b8ff" d="M159.62,-20.17C139.95,-17.88 119,-15.44 102.1,-13.47"/>
<polygon fill="#63b8ff" stroke="#63b8ff" points="159.42,-23.67 169.76,-21.36 160.23,-16.72 159.42,-23.67"/>
</a>
</g>
</g>
</g>
</svg>
