<?xml version="1.0" encoding="UTF-8" standalone="no"?>
<!DOCTYPE svg PUBLIC "-//W3C//DTD SVG 1.1//EN"
 "http://www.w3.org/Graphics/SVG/1.1/DTD/svg11.dtd">
<!-- Generated by graphviz version 2.43.0 (0)
 -->
<!-- Title: EventDispatcher::add_event_listener Pages: 1 -->
<svg width="313pt" height="38pt"
 viewBox="0.00 0.00 313.00 38.00" xmlns="http://www.w3.org/2000/svg" xmlns:xlink="http://www.w3.org/1999/xlink">
<g id="graph0" class="graph" transform="scale(1 1) rotate(0) translate(4 34)">
<title>EventDispatcher::add_event_listener</title>
<!-- Node1 -->
<g id="Node000001" class="node">
<title>Node1</title>
<g id="a_Node000001"><a xlink:title="Додає обробник події до диспетчера">
<polygon fill="#999999" stroke="#666666" points="305,-30 194,-30 194,0 305,0 305,-30"/>
<text text-anchor="start" x="202" y="-18" font-family="Helvetica,sans-Serif" font-size="10.00">EventDispatcher::add</text>
<text text-anchor="middle" x="249.5" y="-7" font-family="Helvetica,sans-Serif" font-size="10.00">_event_listener</text>
</a>
</g>
</g>
<!-- Node2 -->
<g id="Node000002" class="node">
<title>Node2</title>
<g id="a_Node000002"><a xlink:href="classInput.html#a391abd9246617ecc1d7c5ad72ec40435" target="_top" xlink:title="Ініціалізація Input та підписка на EventDispatcher.">
<polygon fill="white" stroke="#666666" points="158,-24.5 101,-24.5 101,-5.5 158,-5.5 158,-24.5"/>
<text text-anchor="middle" x="129.5" y="-12.5" font-family="Helvetica,sans-Serif" font-size="10.00">Input::init</text>
</a>
</g>
</g>
<!-- Node1&#45;&gt;Node2 -->
<g id="edge1_Node000001_Node000002" class="edge">
<title>Node1&#45;&gt;Node2</title>
<g id="a_edge1_Node000001_Node000002"><a xlink:title=" ">
<path fill="none" stroke="#63b8ff" d="M183.77,-15C174.75,-15 165.9,-15 158.1,-15"/>
<polygon fill="#63b8ff" stroke="#63b8ff" points="183.99,-18.5 193.99,-15 183.99,-11.5 183.99,-18.5"/>
</a>
</g>
</g>
<!-- Node3 -->
<g id="Node000003" class="node">
<title>Node3</title>
<g id="a_Node000003"><a xlink:href="classEngine.html#ad9cbbe62250781d3026eceebf4760c35" target="_top" xlink:title="Ініціалізує рушій та створює вікно">
<polygon fill="white" stroke="#666666" points="65,-24.5 0,-24.5 0,-5.5 65,-5.5 65,-24.5"/>
<text text-anchor="middle" x="32.5" y="-12.5" font-family="Helvetica,sans-Serif" font-size="10.00">Engine::init</text>
</a>
</g>
</g>
<!-- Node2&#45;&gt;Node3 -->
<g id="edge2_Node000002_Node000003" class="edge">
<title>Node2&#45;&gt;Node3</title>
<g id="a_edge2_Node000002_Node000003"><a xlink:title=" ">
<path fill="none" stroke="#63b8ff" d="M90.71,-15C82.23,-15 73.31,-15 65.11,-15"/>
<polygon fill="#63b8ff" stroke="#63b8ff" points="90.77,-18.5 100.77,-15 90.77,-11.5 90.77,-18.5"/>
</a>
</g>
</g>
</g>
</svg>
