<?xml version="1.0" encoding="UTF-8" standalone="no"?>
<!DOCTYPE svg PUBLIC "-//W3C//DTD SVG 1.1//EN"
 "http://www.w3.org/Graphics/SVG/1.1/DTD/svg11.dtd">
<!-- Generated by graphviz version 2.43.0 (0)
 -->
<!-- Title: Directory::listDirectories Pages: 1 -->
<svg width="373pt" height="64pt"
 viewBox="0.00 0.00 373.00 64.00" xmlns="http://www.w3.org/2000/svg" xmlns:xlink="http://www.w3.org/1999/xlink">
<g id="graph0" class="graph" transform="scale(1 1) rotate(0) translate(4 60)">
<title>Directory::listDirectories</title>
<!-- Node1 -->
<g id="Node000001" class="node">
<title>Node1</title>
<g id="a_Node000001"><a xlink:title="Повертає список піддиректорій.">
<polygon fill="#999999" stroke="#666666" points="122,-37 0,-37 0,-18 122,-18 122,-37"/>
<text text-anchor="middle" x="61" y="-25" font-family="Helvetica,sans-Serif" font-size="10.00">Directory::listDirectories</text>
</a>
</g>
</g>
<!-- Node2 -->
<g id="Node000002" class="node">
<title>Node2</title>
<g id="a_Node000002"><a xlink:href="classFile.html#ab999dfb94de904566a8e21904179e1c6" target="_top" xlink:title="Перевіряє, чи є шлях директорією.">
<polygon fill="white" stroke="#666666" points="244,-56 158,-56 158,-37 244,-37 244,-56"/>
<text text-anchor="middle" x="201" y="-44" font-family="Helvetica,sans-Serif" font-size="10.00">File::isDirectory</text>
</a>
</g>
</g>
<!-- Node1&#45;&gt;Node2 -->
<g id="edge1_Node000001_Node000002" class="edge">
<title>Node1&#45;&gt;Node2</title>
<g id="a_edge1_Node000001_Node000002"><a xlink:title=" ">
<path fill="none" stroke="#63b8ff" d="M122.13,-35.78C130.7,-36.96 139.46,-38.16 147.86,-39.32"/>
<polygon fill="#63b8ff" stroke="#63b8ff" points="147.51,-42.81 157.9,-40.7 148.47,-35.87 147.51,-42.81"/>
</a>
</g>
</g>
<!-- Node3 -->
<g id="Node000003" class="node">
<title>Node3</title>
<g id="a_Node000003"><a xlink:href="classPath.html#abeb8b3619f08fb228ef7298edbed97db" target="_top" xlink:title="Об&#39;єднує два шляхи в один.">
<polygon fill="white" stroke="#666666" points="230,-19 172,-19 172,0 230,0 230,-19"/>
<text text-anchor="middle" x="201" y="-7" font-family="Helvetica,sans-Serif" font-size="10.00">Path::join</text>
</a>
</g>
</g>
<!-- Node1&#45;&gt;Node3 -->
<g id="edge2_Node000001_Node000003" class="edge">
<title>Node1&#45;&gt;Node3</title>
<g id="a_edge2_Node000001_Node000003"><a xlink:title=" ">
<path fill="none" stroke="#63b8ff" d="M122.13,-19.66C135.5,-17.91 149.32,-16.11 161.54,-14.52"/>
<polygon fill="#63b8ff" stroke="#63b8ff" points="162.35,-17.94 171.82,-13.18 161.45,-11 162.35,-17.94"/>
</a>
</g>
</g>
<!-- Node4 -->
<g id="Node000004" class="node">
<title>Node4</title>
<g id="a_Node000004"><a xlink:href="classPath.html#a4ac32f60a8c773877af18c39bd28aec9" target="_top" xlink:title="Нормалізує шлях (змінює роздільники, видаляє зайві елементи).">
<polygon fill="white" stroke="#666666" points="365,-19 280,-19 280,0 365,0 365,-19"/>
<text text-anchor="middle" x="322.5" y="-7" font-family="Helvetica,sans-Serif" font-size="10.00">Path::normalize</text>
</a>
</g>
</g>
<!-- Node3&#45;&gt;Node4 -->
<g id="edge3_Node000003_Node000004" class="edge">
<title>Node3&#45;&gt;Node4</title>
<g id="a_edge3_Node000003_Node000004"><a xlink:title=" ">
<path fill="none" stroke="#63b8ff" d="M230.02,-9.5C241.78,-9.5 255.86,-9.5 269.4,-9.5"/>
<polygon fill="#63b8ff" stroke="#63b8ff" points="269.61,-13 279.61,-9.5 269.61,-6 269.61,-13"/>
</a>
</g>
</g>
</g>
</svg>
