<?xml version="1.0" encoding="UTF-8" standalone="no"?>
<!DOCTYPE svg PUBLIC "-//W3C//DTD SVG 1.1//EN"
 "http://www.w3.org/Graphics/SVG/1.1/DTD/svg11.dtd">
<!-- Generated by graphviz version 2.43.0 (0)
 -->
<!-- Title: File::isDirectory Pages: 1 -->
<svg width="422pt" height="137pt"
 viewBox="0.00 0.00 422.00 137.00" xmlns="http://www.w3.org/2000/svg" xmlns:xlink="http://www.w3.org/1999/xlink">
<g id="graph0" class="graph" transform="scale(1 1) rotate(0) translate(4 133)">
<title>File::isDirectory</title>
<!-- Node1 -->
<g id="Node000001" class="node">
<title>Node1</title>
<g id="a_Node000001"><a xlink:title="Перевіряє, чи є шлях директорією.">
<polygon fill="#999999" stroke="#666666" points="414,-55 328,-55 328,-36 414,-36 414,-55"/>
<text text-anchor="middle" x="371" y="-43" font-family="Helvetica,sans-Serif" font-size="10.00">File::isDirectory</text>
</a>
</g>
</g>
<!-- Node2 -->
<g id="Node000002" class="node">
<title>Node2</title>
<g id="a_Node000002"><a xlink:href="classDirectory.html#a3dac4b458637adfd6e70a59219fbd73a" target="_top" xlink:title="Перевіряє, чи існує директорія.">
<polygon fill="white" stroke="#666666" points="275.5,-74 186.5,-74 186.5,-55 275.5,-55 275.5,-74"/>
<text text-anchor="middle" x="231" y="-62" font-family="Helvetica,sans-Serif" font-size="10.00">Directory::exists</text>
</a>
</g>
</g>
<!-- Node1&#45;&gt;Node2 -->
<g id="edge1_Node000001_Node000002" class="edge">
<title>Node1&#45;&gt;Node2</title>
<g id="a_edge1_Node000001_Node000002"><a xlink:title=" ">
<path fill="none" stroke="#63b8ff" d="M317.54,-52.72C303.77,-54.62 289.07,-56.64 275.81,-58.47"/>
<polygon fill="#63b8ff" stroke="#63b8ff" points="318.42,-56.14 327.85,-51.3 317.46,-49.2 318.42,-56.14"/>
</a>
</g>
</g>
<!-- Node5 -->
<g id="Node000005" class="node">
<title>Node5</title>
<g id="a_Node000005"><a xlink:href="classDirectory.html#abc6c26f6bbf575bfe971ecbdf28efa5a" target="_top" xlink:title="Повертає список піддиректорій.">
<polygon fill="white" stroke="#666666" points="292,-37 170,-37 170,-18 292,-18 292,-37"/>
<text text-anchor="middle" x="231" y="-25" font-family="Helvetica,sans-Serif" font-size="10.00">Directory::listDirectories</text>
</a>
</g>
</g>
<!-- Node1&#45;&gt;Node5 -->
<g id="edge6_Node000001_Node000005" class="edge">
<title>Node1&#45;&gt;Node5</title>
<g id="a_edge6_Node000001_Node000005"><a xlink:title=" ">
<path fill="none" stroke="#63b8ff" d="M317.84,-38.7C309.46,-37.6 300.73,-36.46 292.18,-35.35"/>
<polygon fill="#63b8ff" stroke="#63b8ff" points="317.48,-42.18 327.85,-40 318.38,-35.24 317.48,-42.18"/>
</a>
</g>
</g>
<!-- Node3 -->
<g id="Node000003" class="node">
<title>Node3</title>
<g id="a_Node000003"><a xlink:href="classDirectory.html#a0412509f5fa1efa9e98014032526a946" target="_top" xlink:title="Рекурсивно створює директорію та усі проміжні шляхи.">
<polygon fill="white" stroke="#666666" points="134,-111 0,-111 0,-92 134,-92 134,-111"/>
<text text-anchor="middle" x="67" y="-99" font-family="Helvetica,sans-Serif" font-size="10.00">Directory::createRecursive</text>
</a>
</g>
</g>
<!-- Node2&#45;&gt;Node3 -->
<g id="edge2_Node000002_Node000003" class="edge">
<title>Node2&#45;&gt;Node3</title>
<g id="a_edge2_Node000002_Node000003"><a xlink:title=" ">
<path fill="none" stroke="#63b8ff" d="M178.39,-76.29C156.27,-81.34 130.77,-87.16 109.86,-91.94"/>
<polygon fill="#63b8ff" stroke="#63b8ff" points="179.31,-79.67 188.28,-74.03 177.75,-72.84 179.31,-79.67"/>
</a>
</g>
</g>
<!-- Node4 -->
<g id="Node000004" class="node">
<title>Node4</title>
<g id="a_Node000004"><a xlink:href="classDirectory.html#a34240fb848fe80438cad603ea4b837bb" target="_top" xlink:title="Видаляє директорію.">
<polygon fill="white" stroke="#666666" points="117.5,-56 16.5,-56 16.5,-37 117.5,-37 117.5,-56"/>
<text text-anchor="middle" x="67" y="-44" font-family="Helvetica,sans-Serif" font-size="10.00">Directory::deleteDir</text>
</a>
</g>
</g>
<!-- Node2&#45;&gt;Node4 -->
<g id="edge4_Node000002_Node000004" class="edge">
<title>Node2&#45;&gt;Node4</title>
<g id="a_edge4_Node000002_Node000004"><a xlink:title=" ">
<path fill="none" stroke="#63b8ff" d="M176.21,-58.52C157.3,-56.42 136.15,-54.07 117.59,-52.01"/>
<polygon fill="#63b8ff" stroke="#63b8ff" points="175.84,-62 186.16,-59.63 176.61,-55.05 175.84,-62"/>
</a>
</g>
</g>
<!-- Node3&#45;&gt;Node3 -->
<g id="edge3_Node000003_Node000003" class="edge">
<title>Node3&#45;&gt;Node3</title>
<g id="a_edge3_Node000003_Node000003"><a xlink:title=" ">
<path fill="none" stroke="#63b8ff" d="M97.61,-119.82C96.33,-125.01 86.13,-129 67,-129 37.85,-129 29.43,-119.73 41.72,-111.08"/>
<polygon fill="#63b8ff" stroke="#63b8ff" points="100.48,-117.79 92.28,-111.08 94.5,-121.44 100.48,-117.79"/>
</a>
</g>
</g>
<!-- Node4&#45;&gt;Node4 -->
<g id="edge5_Node000004_Node000004" class="edge">
<title>Node4&#45;&gt;Node4</title>
<g id="a_edge5_Node000004_Node000004"><a xlink:title=" ">
<path fill="none" stroke="#63b8ff" d="M97.61,-64.82C96.33,-70.01 86.13,-74 67,-74 37.85,-74 29.43,-64.73 41.72,-56.08"/>
<polygon fill="#63b8ff" stroke="#63b8ff" points="100.48,-62.79 92.28,-56.08 94.5,-66.44 100.48,-62.79"/>
</a>
</g>
</g>
<!-- Node5&#45;&gt;Node4 -->
<g id="edge7_Node000005_Node000004" class="edge">
<title>Node5&#45;&gt;Node4</title>
<g id="a_edge7_Node000005_Node000004"><a xlink:title=" ">
<path fill="none" stroke="#63b8ff" d="M159.48,-35.77C145.34,-37.43 130.77,-39.14 117.52,-40.69"/>
<polygon fill="#63b8ff" stroke="#63b8ff" points="160.15,-39.22 169.68,-34.57 159.34,-32.26 160.15,-39.22"/>
</a>
</g>
</g>
<!-- Node6 -->
<g id="Node000006" class="node">
<title>Node6</title>
<g id="a_Node000006"><a xlink:href="classDirectory.html#a2e3d59e9340e851ab78fd359facf0945" target="_top" xlink:title="Повертає список усіх об&#39;єктів (файли + директорії).">
<polygon fill="white" stroke="#666666" points="110,-19 24,-19 24,0 110,0 110,-19"/>
<text text-anchor="middle" x="67" y="-7" font-family="Helvetica,sans-Serif" font-size="10.00">Directory::listAll</text>
</a>
</g>
</g>
<!-- Node5&#45;&gt;Node6 -->
<g id="edge8_Node000005_Node000006" class="edge">
<title>Node5&#45;&gt;Node6</title>
<g id="a_edge8_Node000005_Node000006"><a xlink:title=" ">
<path fill="none" stroke="#63b8ff" d="M159.34,-19.65C142.58,-17.79 125.21,-15.86 110.18,-14.19"/>
<polygon fill="#63b8ff" stroke="#63b8ff" points="159.35,-23.17 169.68,-20.8 160.12,-16.21 159.35,-23.17"/>
</a>
</g>
</g>
</g>
</svg>
