<?xml version="1.0" encoding="UTF-8" standalone="no"?>
<!DOCTYPE svg PUBLIC "-//W3C//DTD SVG 1.1//EN"
 "http://www.w3.org/Graphics/SVG/1.1/DTD/svg11.dtd">
<!-- Generated by graphviz version 2.43.0 (0)
 -->
<!-- Title: Directory::getExecutable Pages: 1 -->
<svg width="277pt" height="64pt"
 viewBox="0.00 0.00 277.00 64.00" xmlns="http://www.w3.org/2000/svg" xmlns:xlink="http://www.w3.org/1999/xlink">
<g id="graph0" class="graph" transform="scale(1 1) rotate(0) translate(4 60)">
<title>Directory::getExecutable</title>
<!-- Node1 -->
<g id="Node000001" class="node">
<title>Node1</title>
<g id="a_Node000001"><a xlink:title="Повертає шлях до виконуваного файлу.">
<polygon fill="#999999" stroke="#666666" points="125,-37 0,-37 0,-18 125,-18 125,-37"/>
<text text-anchor="middle" x="62.5" y="-25" font-family="Helvetica,sans-Serif" font-size="10.00">Directory::getExecutable</text>
</a>
</g>
</g>
<!-- Node2 -->
<g id="Node000002" class="node">
<title>Node2</title>
<g id="a_Node000002"><a xlink:href="classDirectory.html#aaa4bd2124d7c64876850be4841a38be9" target="_top" xlink:title="Повертає поточну робочу директорію.">
<polygon fill="white" stroke="#666666" points="269,-56 161,-56 161,-37 269,-37 269,-56"/>
<text text-anchor="middle" x="215" y="-44" font-family="Helvetica,sans-Serif" font-size="10.00">Directory::getCurrent</text>
</a>
</g>
</g>
<!-- Node1&#45;&gt;Node2 -->
<g id="edge1_Node000001_Node000002" class="edge">
<title>Node1&#45;&gt;Node2</title>
<g id="a_edge1_Node000001_Node000002"><a xlink:title=" ">
<path fill="none" stroke="#63b8ff" d="M125.15,-35.28C133.57,-36.35 142.24,-37.44 150.69,-38.51"/>
<polygon fill="#63b8ff" stroke="#63b8ff" points="150.51,-42.01 160.87,-39.79 151.39,-35.07 150.51,-42.01"/>
</a>
</g>
</g>
<!-- Node3 -->
<g id="Node000003" class="node">
<title>Node3</title>
<g id="a_Node000003"><a xlink:href="classPath.html#a48b720418f1de5c460e3bfe5210e7eef" target="_top" xlink:title="Повертає директорію з повного шляху.">
<polygon fill="white" stroke="#666666" points="263,-19 167,-19 167,0 263,0 263,-19"/>
<text text-anchor="middle" x="215" y="-7" font-family="Helvetica,sans-Serif" font-size="10.00">Path::getDirectory</text>
</a>
</g>
</g>
<!-- Node1&#45;&gt;Node3 -->
<g id="edge2_Node000001_Node000003" class="edge">
<title>Node1&#45;&gt;Node3</title>
<g id="a_edge2_Node000001_Node000003"><a xlink:title=" ">
<path fill="none" stroke="#63b8ff" d="M125.15,-20.13C135.62,-18.87 146.46,-17.58 156.81,-16.34"/>
<polygon fill="#63b8ff" stroke="#63b8ff" points="157.45,-19.79 166.96,-15.13 156.62,-12.84 157.45,-19.79"/>
</a>
</g>
</g>
</g>
</svg>
