<?xml version="1.0" encoding="UTF-8" standalone="no"?>
<!DOCTYPE svg PUBLIC "-//W3C//DTD SVG 1.1//EN"
 "http://www.w3.org/Graphics/SVG/1.1/DTD/svg11.dtd">
<!-- Generated by graphviz version 2.43.0 (0)
 -->
<!-- Title: Path::getFilename Pages: 1 -->
<svg width="270pt" height="76pt"
 viewBox="0.00 0.00 270.00 75.50" xmlns="http://www.w3.org/2000/svg" xmlns:xlink="http://www.w3.org/1999/xlink">
<g id="graph0" class="graph" transform="scale(1 1) rotate(0) translate(4 71.5)">
<title>Path::getFilename</title>
<!-- Node1 -->
<g id="Node000001" class="node">
<title>Node1</title>
<g id="a_Node000001"><a xlink:title="Повертає ім&#39;я файлу з шляху.">
<polygon fill="#999999" stroke="#666666" points="262,-45.5 166,-45.5 166,-26.5 262,-26.5 262,-45.5"/>
<text text-anchor="middle" x="214" y="-33.5" font-family="Helvetica,sans-Serif" font-size="10.00">Path::getFilename</text>
</a>
</g>
</g>
<!-- Node2 -->
<g id="Node000002" class="node">
<title>Node2</title>
<g id="a_Node000002"><a xlink:href="classPath.html#a44c5f85d26d52863c8f88dd560ff4ad3" target="_top" xlink:title="Повертає розширення файлу (без крапки).">
<polygon fill="white" stroke="#666666" points="114,-67.5 16,-67.5 16,-48.5 114,-48.5 114,-67.5"/>
<text text-anchor="middle" x="65" y="-55.5" font-family="Helvetica,sans-Serif" font-size="10.00">Path::getExtention</text>
</a>
</g>
</g>
<!-- Node1&#45;&gt;Node2 -->
<g id="edge1_Node000001_Node000002" class="edge">
<title>Node1&#45;&gt;Node2</title>
<g id="a_edge1_Node000001_Node000002"><a xlink:title=" ">
<path fill="none" stroke="#63b8ff" d="M155.44,-44.61C141.81,-46.65 127.41,-48.81 114.24,-50.78"/>
<polygon fill="#63b8ff" stroke="#63b8ff" points="156.31,-48.02 165.68,-43.08 155.27,-41.1 156.31,-48.02"/>
</a>
</g>
</g>
<!-- Node3 -->
<g id="Node000003" class="node">
<title>Node3</title>
<g id="a_Node000003"><a xlink:href="classPath.html#a37ed8c0352543194442d2b457f9fc945" target="_top" xlink:title="Повертає ім&#39;я файлу без розширення.">
<polygon fill="white" stroke="#666666" points="130,-30 0,-30 0,0 130,0 130,-30"/>
<text text-anchor="start" x="8" y="-18" font-family="Helvetica,sans-Serif" font-size="10.00">Path::getFilenameWithout</text>
<text text-anchor="middle" x="65" y="-7" font-family="Helvetica,sans-Serif" font-size="10.00">Extention</text>
</a>
</g>
</g>
<!-- Node1&#45;&gt;Node3 -->
<g id="edge2_Node000001_Node000003" class="edge">
<title>Node1&#45;&gt;Node3</title>
<g id="a_edge2_Node000001_Node000003"><a xlink:title=" ">
<path fill="none" stroke="#63b8ff" d="M155.65,-27.81C147.27,-26.61 138.61,-25.37 130.11,-24.16"/>
<polygon fill="#63b8ff" stroke="#63b8ff" points="155.28,-31.29 165.68,-29.24 156.27,-24.36 155.28,-31.29"/>
</a>
</g>
</g>
</g>
</svg>
