<?xml version="1.0" encoding="UTF-8" standalone="no"?>
<!DOCTYPE svg PUBLIC "-//W3C//DTD SVG 1.1//EN"
 "http://www.w3.org/Graphics/SVG/1.1/DTD/svg11.dtd">
<!-- Generated by graphviz version 2.43.0 (0)
 -->
<!-- Title: Directory::deleteDir Pages: 1 -->
<svg width="510pt" height="177pt"
 viewBox="0.00 0.00 510.00 177.00" xmlns="http://www.w3.org/2000/svg" xmlns:xlink="http://www.w3.org/1999/xlink">
<g id="graph0" class="graph" transform="scale(1 1) rotate(0) translate(4 173)">
<title>Directory::deleteDir</title>
<!-- Node1 -->
<g id="Node000001" class="node">
<title>Node1</title>
<g id="a_Node000001"><a xlink:title="Видаляє директорію.">
<polygon fill="#999999" stroke="#666666" points="101,-95 0,-95 0,-76 101,-76 101,-95"/>
<text text-anchor="middle" x="50.5" y="-83" font-family="Helvetica,sans-Serif" font-size="10.00">Directory::deleteDir</text>
</a>
</g>
</g>
<!-- Node1&#45;&gt;Node1 -->
<g id="edge1_Node000001_Node000001" class="edge">
<title>Node1&#45;&gt;Node1</title>
<g id="a_edge1_Node000001_Node000001"><a xlink:title=" ">
<path fill="none" stroke="#63b8ff" d="M28,-95.08C17.05,-103.73 24.55,-113 50.5,-113 67.12,-113 76.18,-109.2 77.66,-104.19"/>
<polygon fill="#63b8ff" stroke="#63b8ff" points="80.67,-102.39 73,-95.08 74.44,-105.58 80.67,-102.39"/>
</a>
</g>
</g>
<!-- Node2 -->
<g id="Node000002" class="node">
<title>Node2</title>
<g id="a_Node000002"><a xlink:href="classFile.html#a6cd4aedfb30038c67709cfbd4f9bdea5" target="_top" xlink:title="Видаляє файл.">
<polygon fill="white" stroke="#666666" points="238,-169 158,-169 158,-150 238,-150 238,-169"/>
<text text-anchor="middle" x="198" y="-157" font-family="Helvetica,sans-Serif" font-size="10.00">File::deleteFile</text>
</a>
</g>
</g>
<!-- Node1&#45;&gt;Node2 -->
<g id="edge2_Node000001_Node000002" class="edge">
<title>Node1&#45;&gt;Node2</title>
<g id="a_edge2_Node000001_Node000002"><a xlink:title=" ">
<path fill="none" stroke="#63b8ff" d="M63.58,-95.05C79.57,-107.28 109.01,-128.47 137,-141.5 141.05,-143.38 145.34,-145.13 149.69,-146.72"/>
<polygon fill="#63b8ff" stroke="#63b8ff" points="148.66,-150.07 159.25,-149.99 150.92,-143.45 148.66,-150.07"/>
</a>
</g>
</g>
<!-- Node3 -->
<g id="Node000003" class="node">
<title>Node3</title>
<g id="a_Node000003"><a xlink:href="classDirectory.html#a3dac4b458637adfd6e70a59219fbd73a" target="_top" xlink:title="Перевіряє, чи існує директорія.">
<polygon fill="white" stroke="#666666" points="242.5,-132 153.5,-132 153.5,-113 242.5,-113 242.5,-132"/>
<text text-anchor="middle" x="198" y="-120" font-family="Helvetica,sans-Serif" font-size="10.00">Directory::exists</text>
</a>
</g>
</g>
<!-- Node1&#45;&gt;Node3 -->
<g id="edge3_Node000001_Node000003" class="edge">
<title>Node1&#45;&gt;Node3</title>
<g id="a_edge3_Node000001_Node000003"><a xlink:title=" ">
<path fill="none" stroke="#63b8ff" d="M88.97,-95.03C107.48,-99.74 130.02,-105.47 149.7,-110.47"/>
<polygon fill="#63b8ff" stroke="#63b8ff" points="148.85,-113.87 159.4,-112.94 150.58,-107.08 148.85,-113.87"/>
</a>
</g>
</g>
<!-- Node5 -->
<g id="Node000005" class="node">
<title>Node5</title>
<g id="a_Node000005"><a xlink:href="classPath.html#abeb8b3619f08fb228ef7298edbed97db" target="_top" xlink:title="Об&#39;єднує два шляхи в один.">
<polygon fill="white" stroke="#666666" points="367,-57 309,-57 309,-38 367,-38 367,-57"/>
<text text-anchor="middle" x="338" y="-45" font-family="Helvetica,sans-Serif" font-size="10.00">Path::join</text>
</a>
</g>
</g>
<!-- Node1&#45;&gt;Node5 -->
<g id="edge5_Node000001_Node000005" class="edge">
<title>Node1&#45;&gt;Node5</title>
<g id="a_edge5_Node000001_Node000005"><a xlink:title=" ">
<path fill="none" stroke="#63b8ff" d="M92.22,-75.99C106.34,-72.94 122.31,-69.77 137,-67.5 192.87,-58.85 258.13,-53.14 298.52,-50.11"/>
<polygon fill="#63b8ff" stroke="#63b8ff" points="299.01,-53.58 308.73,-49.36 298.5,-46.6 299.01,-53.58"/>
</a>
</g>
</g>
<!-- Node7 -->
<g id="Node000007" class="node">
<title>Node7</title>
<g id="a_Node000007"><a xlink:href="classDirectory.html#abc6c26f6bbf575bfe971ecbdf28efa5a" target="_top" xlink:title="Повертає список піддиректорій.">
<polygon fill="white" stroke="#666666" points="259,-95 137,-95 137,-76 259,-76 259,-95"/>
<text text-anchor="middle" x="198" y="-83" font-family="Helvetica,sans-Serif" font-size="10.00">Directory::listDirectories</text>
</a>
</g>
</g>
<!-- Node1&#45;&gt;Node7 -->
<g id="edge7_Node000001_Node000007" class="edge">
<title>Node1&#45;&gt;Node7</title>
<g id="a_edge7_Node000001_Node000007"><a xlink:title=" ">
<path fill="none" stroke="#63b8ff" d="M101.17,-85.5C109.45,-85.5 118.18,-85.5 126.86,-85.5"/>
<polygon fill="#63b8ff" stroke="#63b8ff" points="127,-89 137,-85.5 127,-82 127,-89"/>
</a>
</g>
</g>
<!-- Node8 -->
<g id="Node000008" class="node">
<title>Node8</title>
<g id="a_Node000008"><a xlink:href="classDirectory.html#a4b5c9d8f8845733e10ce19bfe8daf1aa" target="_top" xlink:title="Повертає список файлів у директорії.">
<polygon fill="white" stroke="#666666" points="246,-19 150,-19 150,0 246,0 246,-19"/>
<text text-anchor="middle" x="198" y="-7" font-family="Helvetica,sans-Serif" font-size="10.00">Directory::listFiles</text>
</a>
</g>
</g>
<!-- Node1&#45;&gt;Node8 -->
<g id="edge10_Node000001_Node000008" class="edge">
<title>Node1&#45;&gt;Node8</title>
<g id="a_edge10_Node000001_Node000008"><a xlink:title=" ">
<path fill="none" stroke="#63b8ff" d="M65.61,-75.92C82.23,-64.87 110.89,-46.55 137,-33.5 144.56,-29.72 152.87,-26.09 160.83,-22.84"/>
<polygon fill="#63b8ff" stroke="#63b8ff" points="162.29,-26.03 170.3,-19.09 159.71,-19.52 162.29,-26.03"/>
</a>
</g>
</g>
<!-- Node4 -->
<g id="Node000004" class="node">
<title>Node4</title>
<g id="a_Node000004"><a xlink:href="classFile.html#ab999dfb94de904566a8e21904179e1c6" target="_top" xlink:title="Перевіряє, чи є шлях директорією.">
<polygon fill="white" stroke="#666666" points="381,-113 295,-113 295,-94 381,-94 381,-113"/>
<text text-anchor="middle" x="338" y="-101" font-family="Helvetica,sans-Serif" font-size="10.00">File::isDirectory</text>
</a>
</g>
</g>
<!-- Node3&#45;&gt;Node4 -->
<g id="edge4_Node000003_Node000004" class="edge">
<title>Node3&#45;&gt;Node4</title>
<g id="a_edge4_Node000003_Node000004"><a xlink:title=" ">
<path fill="none" stroke="#63b8ff" d="M242.66,-116.49C255.88,-114.67 270.53,-112.65 284.27,-110.76"/>
<polygon fill="#63b8ff" stroke="#63b8ff" points="285.13,-114.17 294.56,-109.34 284.18,-107.24 285.13,-114.17"/>
</a>
</g>
</g>
<!-- Node6 -->
<g id="Node000006" class="node">
<title>Node6</title>
<g id="a_Node000006"><a xlink:href="classPath.html#a4ac32f60a8c773877af18c39bd28aec9" target="_top" xlink:title="Нормалізує шлях (змінює роздільники, видаляє зайві елементи).">
<polygon fill="white" stroke="#666666" points="502,-57 417,-57 417,-38 502,-38 502,-57"/>
<text text-anchor="middle" x="459.5" y="-45" font-family="Helvetica,sans-Serif" font-size="10.00">Path::normalize</text>
</a>
</g>
</g>
<!-- Node5&#45;&gt;Node6 -->
<g id="edge6_Node000005_Node000006" class="edge">
<title>Node5&#45;&gt;Node6</title>
<g id="a_edge6_Node000005_Node000006"><a xlink:title=" ">
<path fill="none" stroke="#63b8ff" d="M367.02,-47.5C378.78,-47.5 392.86,-47.5 406.4,-47.5"/>
<polygon fill="#63b8ff" stroke="#63b8ff" points="406.61,-51 416.61,-47.5 406.61,-44 406.61,-51"/>
</a>
</g>
</g>
<!-- Node7&#45;&gt;Node4 -->
<g id="edge8_Node000007_Node000004" class="edge">
<title>Node7&#45;&gt;Node4</title>
<g id="a_edge8_Node000007_Node000004"><a xlink:title=" ">
<path fill="none" stroke="#63b8ff" d="M259.13,-93.34C267.7,-94.46 276.46,-95.6 284.86,-96.7"/>
<polygon fill="#63b8ff" stroke="#63b8ff" points="284.53,-100.19 294.9,-98.01 285.43,-93.24 284.53,-100.19"/>
</a>
</g>
</g>
<!-- Node7&#45;&gt;Node5 -->
<g id="edge9_Node000007_Node000005" class="edge">
<title>Node7&#45;&gt;Node5</title>
<g id="a_edge9_Node000007_Node000005"><a xlink:title=" ">
<path fill="none" stroke="#63b8ff" d="M233.82,-75.91C253.63,-70.46 278.47,-63.62 298.81,-58.02"/>
<polygon fill="#63b8ff" stroke="#63b8ff" points="299.98,-61.33 308.69,-55.3 298.12,-54.58 299.98,-61.33"/>
</a>
</g>
</g>
<!-- Node8&#45;&gt;Node5 -->
<g id="edge12_Node000008_Node000005" class="edge">
<title>Node8&#45;&gt;Node5</title>
<g id="a_edge12_Node000008_Node000005"><a xlink:title=" ">
<path fill="none" stroke="#63b8ff" d="M233.82,-19.09C253.63,-24.54 278.47,-31.38 298.81,-36.98"/>
<polygon fill="#63b8ff" stroke="#63b8ff" points="298.12,-40.42 308.69,-39.7 299.98,-33.67 298.12,-40.42"/>
</a>
</g>
</g>
<!-- Node9 -->
<g id="Node000009" class="node">
<title>Node9</title>
<g id="a_Node000009"><a xlink:href="classFile.html#ab4696174d655d6351e5112499bfa7b6d" target="_top" xlink:title="Перевіряє, чи є шлях файлом.">
<polygon fill="white" stroke="#666666" points="369,-19 307,-19 307,0 369,0 369,-19"/>
<text text-anchor="middle" x="338" y="-7" font-family="Helvetica,sans-Serif" font-size="10.00">File::isFile</text>
</a>
</g>
</g>
<!-- Node8&#45;&gt;Node9 -->
<g id="edge11_Node000008_Node000009" class="edge">
<title>Node8&#45;&gt;Node9</title>
<g id="a_edge11_Node000008_Node000009"><a xlink:title=" ">
<path fill="none" stroke="#63b8ff" d="M246.11,-9.5C262.63,-9.5 281.03,-9.5 296.92,-9.5"/>
<polygon fill="#63b8ff" stroke="#63b8ff" points="296.96,-13 306.96,-9.5 296.96,-6 296.96,-13"/>
</a>
</g>
</g>
</g>
</svg>
