<?xml version="1.0" encoding="UTF-8" standalone="no"?>
<!DOCTYPE svg PUBLIC "-//W3C//DTD SVG 1.1//EN"
 "http://www.w3.org/Graphics/SVG/1.1/DTD/svg11.dtd">
<!-- Generated by graphviz version 2.43.0 (0)
 -->
<!-- Title: Engine::run Pages: 1 -->
<svg width="412pt" height="235pt"
 viewBox="0.00 0.00 412.00 235.00" xmlns="http://www.w3.org/2000/svg" xmlns:xlink="http://www.w3.org/1999/xlink">
<g id="graph0" class="graph" transform="scale(1 1) rotate(0) translate(4 231)">
<title>Engine::run</title>
<!-- Node1 -->
<g id="Node000001" class="node">
<title>Node1</title>
<g id="a_Node000001"><a xlink:title="Запускає основний цикл движка">
<polygon fill="#999999" stroke="#666666" points="66,-123 0,-123 0,-104 66,-104 66,-123"/>
<text text-anchor="middle" x="33" y="-111" font-family="Helvetica,sans-Serif" font-size="10.00">Engine::run</text>
</a>
</g>
</g>
<!-- Node2 -->
<g id="Node000002" class="node">
<title>Node2</title>
<g id="a_Node000002"><a xlink:href="classInput.html#a5490a2f448800b31835d5486690ae26a" target="_top" xlink:title="Завершення кадру. Очищає стан натискань/відпускань поточного кадру.">
<polygon fill="white" stroke="#666666" points="213,-227 125,-227 125,-208 213,-208 213,-227"/>
<text text-anchor="middle" x="169" y="-215" font-family="Helvetica,sans-Serif" font-size="10.00">Input::endFrame</text>
</a>
</g>
</g>
<!-- Node1&#45;&gt;Node2 -->
<g id="edge1_Node000001_Node000002" class="edge">
<title>Node1&#45;&gt;Node2</title>
<g id="a_edge1_Node000001_Node000002"><a xlink:title=" ">
<path fill="none" stroke="#63b8ff" d="M38.91,-123.16C48.51,-141.05 71.51,-179.35 102,-199.5 106.06,-202.18 110.51,-204.47 115.12,-206.41"/>
<polygon fill="#63b8ff" stroke="#63b8ff" points="114.15,-209.79 124.74,-209.95 116.57,-203.22 114.15,-209.79"/>
</a>
</g>
</g>
<!-- Node3 -->
<g id="Node000003" class="node">
<title>Node3</title>
<g id="a_Node000003"><a xlink:href="classEngine.html#a2ddf011faff2f664815a804580be21b2" target="_top" xlink:title="Оновлення логіки застосунку">
<polygon fill="white" stroke="#666666" points="218,-190 120,-190 120,-171 218,-171 218,-190"/>
<text text-anchor="middle" x="169" y="-178" font-family="Helvetica,sans-Serif" font-size="10.00">Engine::on_update</text>
</a>
</g>
</g>
<!-- Node1&#45;&gt;Node3 -->
<g id="edge2_Node000001_Node000003" class="edge">
<title>Node1&#45;&gt;Node3</title>
<g id="a_edge2_Node000001_Node000003"><a xlink:title=" ">
<path fill="none" stroke="#63b8ff" d="M45.29,-123.28C58.2,-134.02 80.37,-151.12 102,-161.5 106.72,-163.76 111.75,-165.81 116.87,-167.65"/>
<polygon fill="#63b8ff" stroke="#63b8ff" points="116.13,-171.09 126.72,-170.92 118.33,-164.45 116.13,-171.09"/>
</a>
</g>
</g>
<!-- Node4 -->
<g id="Node000004" class="node">
<title>Node4</title>
<g id="a_Node000004"><a xlink:href="classEventDispatcher.html#a9bf033f61668c3085809bd2943a2e95c" target="_top" xlink:title="Додає подію до черги обробки">
<polygon fill="white" stroke="#666666" points="226,-152.5 112,-152.5 112,-122.5 226,-122.5 226,-152.5"/>
<text text-anchor="start" x="120" y="-140.5" font-family="Helvetica,sans-Serif" font-size="10.00">EventDispatcher::post</text>
<text text-anchor="middle" x="169" y="-129.5" font-family="Helvetica,sans-Serif" font-size="10.00">_event</text>
</a>
</g>
</g>
<!-- Node1&#45;&gt;Node4 -->
<g id="edge3_Node000001_Node000004" class="edge">
<title>Node1&#45;&gt;Node4</title>
<g id="a_edge3_Node000001_Node000004"><a xlink:title=" ">
<path fill="none" stroke="#63b8ff" d="M66.1,-119.25C76.91,-121.19 89.41,-123.42 101.86,-125.65"/>
<polygon fill="#63b8ff" stroke="#63b8ff" points="101.35,-129.12 111.81,-127.44 102.59,-122.23 101.35,-129.12"/>
</a>
</g>
</g>
<!-- Node5 -->
<g id="Node000005" class="node">
<title>Node5</title>
<g id="a_Node000005"><a xlink:href="classEventDispatcher.html#a6262770115ab3b99f9c2970364fd0c40" target="_top" xlink:title="Обробляє всі події з черги">
<polygon fill="white" stroke="#666666" points="234,-104.5 104,-104.5 104,-74.5 234,-74.5 234,-104.5"/>
<text text-anchor="start" x="112" y="-92.5" font-family="Helvetica,sans-Serif" font-size="10.00">EventDispatcher::process</text>
<text text-anchor="middle" x="169" y="-81.5" font-family="Helvetica,sans-Serif" font-size="10.00">_event</text>
</a>
</g>
</g>
<!-- Node1&#45;&gt;Node5 -->
<g id="edge4_Node000001_Node000005" class="edge">
<title>Node1&#45;&gt;Node5</title>
<g id="a_edge4_Node000001_Node000005"><a xlink:title=" ">
<path fill="none" stroke="#63b8ff" d="M66.1,-107.75C74.54,-106.24 84.02,-104.54 93.7,-102.81"/>
<polygon fill="#63b8ff" stroke="#63b8ff" points="94.6,-106.2 103.83,-100.99 93.37,-99.31 94.6,-106.2"/>
</a>
</g>
</g>
<!-- Node7 -->
<g id="Node000007" class="node">
<title>Node7</title>
<g id="a_Node000007"><a xlink:href="classEngine.html#a48d979fd5d30bfbb6785ba8862049ba7" target="_top" xlink:title="Налаштовує обробники подій">
<polygon fill="white" stroke="#666666" points="236,-56 102,-56 102,-37 236,-37 236,-56"/>
<text text-anchor="middle" x="169" y="-44" font-family="Helvetica,sans-Serif" font-size="10.00">Engine::set_eventCallback</text>
</a>
</g>
</g>
<!-- Node1&#45;&gt;Node7 -->
<g id="edge6_Node000001_Node000007" class="edge">
<title>Node1&#45;&gt;Node7</title>
<g id="a_edge6_Node000001_Node000007"><a xlink:title=" ">
<path fill="none" stroke="#63b8ff" d="M45.29,-103.72C58.2,-92.98 80.37,-75.88 102,-65.5 106.72,-63.24 111.75,-61.19 116.87,-59.35"/>
<polygon fill="#63b8ff" stroke="#63b8ff" points="118.33,-62.55 126.72,-56.08 116.13,-55.91 118.33,-62.55"/>
</a>
</g>
</g>
<!-- Node8 -->
<g id="Node000008" class="node">
<title>Node8</title>
<g id="a_Node000008"><a xlink:href="classTime.html#a1463d5551f982b457d88b6bd4e077903" target="_top" xlink:title="Оновлює значення delta time.">
<polygon fill="white" stroke="#666666" points="206,-19 132,-19 132,0 206,0 206,-19"/>
<text text-anchor="middle" x="169" y="-7" font-family="Helvetica,sans-Serif" font-size="10.00">Time::update</text>
</a>
</g>
</g>
<!-- Node1&#45;&gt;Node8 -->
<g id="edge7_Node000001_Node000008" class="edge">
<title>Node1&#45;&gt;Node8</title>
<g id="a_edge7_Node000001_Node000008"><a xlink:title=" ">
<path fill="none" stroke="#63b8ff" d="M38.96,-103.99C48.66,-86.38 71.81,-48.63 102,-28.5 108.14,-24.41 115.16,-21.18 122.29,-18.65"/>
<polygon fill="#63b8ff" stroke="#63b8ff" points="123.51,-21.93 132,-15.6 121.41,-15.25 123.51,-21.93"/>
</a>
</g>
</g>
<!-- Node6 -->
<g id="Node000006" class="node">
<title>Node6</title>
<g id="a_Node000006"><a xlink:href="classEventDispatcher.html#a0a56c66541e3624fd4e2a626d7cb3c76" target="_top" xlink:title="Розсилає подію всім зареєстрованим обробникам">
<polygon fill="white" stroke="#666666" points="404,-99 272,-99 272,-80 404,-80 404,-99"/>
<text text-anchor="middle" x="338" y="-87" font-family="Helvetica,sans-Serif" font-size="10.00">EventDispatcher::dispatch</text>
</a>
</g>
</g>
<!-- Node5&#45;&gt;Node6 -->
<g id="edge5_Node000005_Node000006" class="edge">
<title>Node5&#45;&gt;Node6</title>
<g id="a_edge5_Node000005_Node000006"><a xlink:title=" ">
<path fill="none" stroke="#63b8ff" d="M234.09,-89.5C243.21,-89.5 252.65,-89.5 261.96,-89.5"/>
<polygon fill="#63b8ff" stroke="#63b8ff" points="261.98,-93 271.98,-89.5 261.98,-86 261.98,-93"/>
</a>
</g>
</g>
</g>
</svg>
