<?xml version="1.0" encoding="UTF-8" standalone="no"?>
<!DOCTYPE svg PUBLIC "-//W3C//DTD SVG 1.1//EN"
 "http://www.w3.org/Graphics/SVG/1.1/DTD/svg11.dtd">
<!-- Generated by graphviz version 2.43.0 (0)
 -->
<!-- Title: Info::GetOS Pages: 1 -->
<svg width="208pt" height="138pt"
 viewBox="0.00 0.00 208.00 138.00" xmlns="http://www.w3.org/2000/svg" xmlns:xlink="http://www.w3.org/1999/xlink">
<g id="graph0" class="graph" transform="scale(1 1) rotate(0) translate(4 134)">
<title>Info::GetOS</title>
<!-- Node1 -->
<g id="Node000001" class="node">
<title>Node1</title>
<g id="a_Node000001"><a xlink:title="Повертає операційну систему.">
<polygon fill="#999999" stroke="#666666" points="200,-74 131,-74 131,-55 200,-55 200,-74"/>
<text text-anchor="middle" x="165.5" y="-62" font-family="Helvetica,sans-Serif" font-size="10.00">Info::GetOS</text>
</a>
</g>
</g>
<!-- Node2 -->
<g id="Node000002" class="node">
<title>Node2</title>
<g id="a_Node000002"><a xlink:href="classInfo.html#a753952e3a45d3c920f7eb085a1666d7c" target="_top" xlink:title="Повертає назву операційної системи у вигляді рядка.">
<polygon fill="white" stroke="#666666" points="95,-130 0,-130 0,-111 95,-111 95,-130"/>
<text text-anchor="middle" x="47.5" y="-118" font-family="Helvetica,sans-Serif" font-size="10.00">Info::GetOSName</text>
</a>
</g>
</g>
<!-- Node1&#45;&gt;Node2 -->
<g id="edge1_Node000001_Node000002" class="edge">
<title>Node1&#45;&gt;Node2</title>
<g id="a_edge1_Node000001_Node000002"><a xlink:title=" ">
<path fill="none" stroke="#63b8ff" d="M139.66,-79.12C126.58,-86.54 110.15,-95.46 95,-102.5 88.72,-105.42 81.82,-108.27 75.31,-110.81"/>
<polygon fill="#63b8ff" stroke="#63b8ff" points="141.6,-82.04 148.52,-74.02 138.11,-75.97 141.6,-82.04"/>
</a>
</g>
</g>
<!-- Node3 -->
<g id="Node000003" class="node">
<title>Node3</title>
<g id="a_Node000003"><a xlink:href="classInfo.html#a6a0da5b1159b01b1ac383121ca92b151" target="_top" xlink:title="Перевіряє, чи ОС є Linux.">
<polygon fill="white" stroke="#666666" points="83,-93 12,-93 12,-74 83,-74 83,-93"/>
<text text-anchor="middle" x="47.5" y="-81" font-family="Helvetica,sans-Serif" font-size="10.00">Info::IsLinux</text>
</a>
</g>
</g>
<!-- Node1&#45;&gt;Node3 -->
<g id="edge2_Node000001_Node000003" class="edge">
<title>Node1&#45;&gt;Node3</title>
<g id="a_edge2_Node000001_Node000003"><a xlink:title=" ">
<path fill="none" stroke="#63b8ff" d="M120.78,-71.66C108.36,-73.7 95,-75.88 83.19,-77.82"/>
<polygon fill="#63b8ff" stroke="#63b8ff" points="121.65,-75.07 130.95,-70 120.51,-68.16 121.65,-75.07"/>
</a>
</g>
</g>
<!-- Node4 -->
<g id="Node000004" class="node">
<title>Node4</title>
<g id="a_Node000004"><a xlink:href="classInfo.html#a71d5289321fb662bc2ad93448b96b26c" target="_top" xlink:title="Перевіряє, чи ОС є MacOS.">
<polygon fill="white" stroke="#666666" points="87.5,-56 7.5,-56 7.5,-37 87.5,-37 87.5,-56"/>
<text text-anchor="middle" x="47.5" y="-44" font-family="Helvetica,sans-Serif" font-size="10.00">Info::IsMacOS</text>
</a>
</g>
</g>
<!-- Node1&#45;&gt;Node4 -->
<g id="edge3_Node000001_Node000004" class="edge">
<title>Node1&#45;&gt;Node4</title>
<g id="a_edge3_Node000001_Node000004"><a xlink:title=" ">
<path fill="none" stroke="#63b8ff" d="M120.8,-57.72C109.93,-56.03 98.35,-54.23 87.71,-52.58"/>
<polygon fill="#63b8ff" stroke="#63b8ff" points="120.53,-61.22 130.95,-59.29 121.6,-54.3 120.53,-61.22"/>
</a>
</g>
</g>
<!-- Node5 -->
<g id="Node000005" class="node">
<title>Node5</title>
<g id="a_Node000005"><a xlink:href="classInfo.html#ab43254ddc12c629f551574879d81baf4" target="_top" xlink:title="Перевіряє, чи ОС є Windows.">
<polygon fill="white" stroke="#666666" points="91.5,-19 3.5,-19 3.5,0 91.5,0 91.5,-19"/>
<text text-anchor="middle" x="47.5" y="-7" font-family="Helvetica,sans-Serif" font-size="10.00">Info::IsWindows</text>
</a>
</g>
</g>
<!-- Node1&#45;&gt;Node5 -->
<g id="edge4_Node000001_Node000005" class="edge">
<title>Node1&#45;&gt;Node5</title>
<g id="a_edge4_Node000001_Node000005"><a xlink:title=" ">
<path fill="none" stroke="#63b8ff" d="M137.83,-49.97C125.01,-43.17 109.35,-35.13 95,-28.5 88.03,-25.28 80.36,-22.03 73.29,-19.15"/>
<polygon fill="#63b8ff" stroke="#63b8ff" points="136.54,-53.25 147.01,-54.88 139.84,-47.08 136.54,-53.25"/>
</a>
</g>
</g>
</g>
</svg>
