<?xml version="1.0" encoding="UTF-8" standalone="no"?>
<!DOCTYPE svg PUBLIC "-//W3C//DTD SVG 1.1//EN"
 "http://www.w3.org/Graphics/SVG/1.1/DTD/svg11.dtd">
<!-- Generated by graphviz version 2.43.0 (0)
 -->
<!-- Title: Directory::createRecursive Pages: 1 -->
<svg width="396pt" height="101pt"
 viewBox="0.00 0.00 396.00 101.00" xmlns="http://www.w3.org/2000/svg" xmlns:xlink="http://www.w3.org/1999/xlink">
<g id="graph0" class="graph" transform="scale(1 1) rotate(0) translate(4 97)">
<title>Directory::createRecursive</title>
<!-- Node1 -->
<g id="Node000001" class="node">
<title>Node1</title>
<g id="a_Node000001"><a xlink:title="Рекурсивно створює директорію та усі проміжні шляхи.">
<polygon fill="#999999" stroke="#666666" points="134,-56 0,-56 0,-37 134,-37 134,-56"/>
<text text-anchor="middle" x="67" y="-44" font-family="Helvetica,sans-Serif" font-size="10.00">Directory::createRecursive</text>
</a>
</g>
</g>
<!-- Node1&#45;&gt;Node1 -->
<g id="edge2_Node000001_Node000001" class="edge">
<title>Node1&#45;&gt;Node1</title>
<g id="a_edge2_Node000001_Node000001"><a xlink:title=" ">
<path fill="none" stroke="#63b8ff" d="M43.88,-56.08C32.63,-64.73 40.34,-74 67,-74 84.5,-74 93.83,-70.01 95,-64.82"/>
<polygon fill="#63b8ff" stroke="#63b8ff" points="98.05,-63.11 90.12,-56.08 91.94,-66.52 98.05,-63.11"/>
</a>
</g>
</g>
<!-- Node2 -->
<g id="Node000002" class="node">
<title>Node2</title>
<g id="a_Node000002"><a xlink:href="classDirectory.html#aefb6a76bb8880b63374f5b291cc00337" target="_top" xlink:title="Створює директорію.">
<polygon fill="white" stroke="#666666" points="262.5,-93 173.5,-93 173.5,-74 262.5,-74 262.5,-93"/>
<text text-anchor="middle" x="218" y="-81" font-family="Helvetica,sans-Serif" font-size="10.00">Directory::create</text>
</a>
</g>
</g>
<!-- Node1&#45;&gt;Node2 -->
<g id="edge1_Node000001_Node000002" class="edge">
<title>Node1&#45;&gt;Node2</title>
<g id="a_edge1_Node000001_Node000002"><a xlink:title=" ">
<path fill="none" stroke="#63b8ff" d="M106.37,-56.03C125.33,-60.74 148.4,-66.47 168.56,-71.47"/>
<polygon fill="#63b8ff" stroke="#63b8ff" points="167.95,-74.93 178.5,-73.94 169.64,-68.13 167.95,-74.93"/>
</a>
</g>
</g>
<!-- Node3 -->
<g id="Node000003" class="node">
<title>Node3</title>
<g id="a_Node000003"><a xlink:href="classDirectory.html#a3dac4b458637adfd6e70a59219fbd73a" target="_top" xlink:title="Перевіряє, чи існує директорія.">
<polygon fill="white" stroke="#666666" points="262.5,-56 173.5,-56 173.5,-37 262.5,-37 262.5,-56"/>
<text text-anchor="middle" x="218" y="-44" font-family="Helvetica,sans-Serif" font-size="10.00">Directory::exists</text>
</a>
</g>
</g>
<!-- Node1&#45;&gt;Node3 -->
<g id="edge3_Node000001_Node000003" class="edge">
<title>Node1&#45;&gt;Node3</title>
<g id="a_edge3_Node000001_Node000003"><a xlink:title=" ">
<path fill="none" stroke="#63b8ff" d="M134.22,-46.5C143.82,-46.5 153.61,-46.5 162.93,-46.5"/>
<polygon fill="#63b8ff" stroke="#63b8ff" points="163.23,-50 173.22,-46.5 163.22,-43 163.23,-50"/>
</a>
</g>
</g>
<!-- Node5 -->
<g id="Node000005" class="node">
<title>Node5</title>
<g id="a_Node000005"><a xlink:href="classPath.html#a48b720418f1de5c460e3bfe5210e7eef" target="_top" xlink:title="Повертає директорію з повного шляху.">
<polygon fill="white" stroke="#666666" points="266,-19 170,-19 170,0 266,0 266,-19"/>
<text text-anchor="middle" x="218" y="-7" font-family="Helvetica,sans-Serif" font-size="10.00">Path::getDirectory</text>
</a>
</g>
</g>
<!-- Node1&#45;&gt;Node5 -->
<g id="edge5_Node000001_Node000005" class="edge">
<title>Node1&#45;&gt;Node5</title>
<g id="a_edge5_Node000001_Node000005"><a xlink:title=" ">
<path fill="none" stroke="#63b8ff" d="M106.37,-36.97C125.33,-32.26 148.4,-26.53 168.56,-21.53"/>
<polygon fill="#63b8ff" stroke="#63b8ff" points="169.64,-24.87 178.5,-19.06 167.95,-18.07 169.64,-24.87"/>
</a>
</g>
</g>
<!-- Node4 -->
<g id="Node000004" class="node">
<title>Node4</title>
<g id="a_Node000004"><a xlink:href="classFile.html#ab999dfb94de904566a8e21904179e1c6" target="_top" xlink:title="Перевіряє, чи є шлях директорією.">
<polygon fill="white" stroke="#666666" points="388,-56 302,-56 302,-37 388,-37 388,-56"/>
<text text-anchor="middle" x="345" y="-44" font-family="Helvetica,sans-Serif" font-size="10.00">File::isDirectory</text>
</a>
</g>
</g>
<!-- Node3&#45;&gt;Node4 -->
<g id="edge4_Node000003_Node000004" class="edge">
<title>Node3&#45;&gt;Node4</title>
<g id="a_edge4_Node000003_Node000004"><a xlink:title=" ">
<path fill="none" stroke="#63b8ff" d="M262.72,-46.5C272.03,-46.5 281.94,-46.5 291.54,-46.5"/>
<polygon fill="#63b8ff" stroke="#63b8ff" points="291.78,-50 301.78,-46.5 291.78,-43 291.78,-50"/>
</a>
</g>
</g>
</g>
</svg>
