<?xml version="1.0" encoding="UTF-8" standalone="no"?>
<!DOCTYPE svg PUBLIC "-//W3C//DTD SVG 1.1//EN"
 "http://www.w3.org/Graphics/SVG/1.1/DTD/svg11.dtd">
<!-- Generated by graphviz version 2.43.0 (0)
 -->
<!-- Title: Directory::create Pages: 1 -->
<svg width="267pt" height="45pt"
 viewBox="0.00 0.00 267.00 45.00" xmlns="http://www.w3.org/2000/svg" xmlns:xlink="http://www.w3.org/1999/xlink">
<g id="graph0" class="graph" transform="scale(1 1) rotate(0) translate(4 41)">
<title>Directory::create</title>
<!-- Node1 -->
<g id="Node000001" class="node">
<title>Node1</title>
<g id="a_Node000001"><a xlink:title="Створює директорію.">
<polygon fill="#999999" stroke="#666666" points="259,-19 170,-19 170,0 259,0 259,-19"/>
<text text-anchor="middle" x="214.5" y="-7" font-family="Helvetica,sans-Serif" font-size="10.00">Directory::create</text>
</a>
</g>
</g>
<!-- Node2 -->
<g id="Node000002" class="node">
<title>Node2</title>
<g id="a_Node000002"><a xlink:href="classDirectory.html#a0412509f5fa1efa9e98014032526a946" target="_top" xlink:title="Рекурсивно створює директорію та усі проміжні шляхи.">
<polygon fill="white" stroke="#666666" points="134,-19 0,-19 0,0 134,0 134,-19"/>
<text text-anchor="middle" x="67" y="-7" font-family="Helvetica,sans-Serif" font-size="10.00">Directory::createRecursive</text>
</a>
</g>
</g>
<!-- Node1&#45;&gt;Node2 -->
<g id="edge1_Node000001_Node000002" class="edge">
<title>Node1&#45;&gt;Node2</title>
<g id="a_edge1_Node000001_Node000002"><a xlink:title=" ">
<path fill="none" stroke="#63b8ff" d="M159.6,-9.5C151.33,-9.5 142.72,-9.5 134.23,-9.5"/>
<polygon fill="#63b8ff" stroke="#63b8ff" points="159.85,-13 169.85,-9.5 159.85,-6 159.85,-13"/>
</a>
</g>
</g>
<!-- Node2&#45;&gt;Node2 -->
<g id="edge2_Node000002_Node000002" class="edge">
<title>Node2&#45;&gt;Node2</title>
<g id="a_edge2_Node000002_Node000002"><a xlink:title=" ">
<path fill="none" stroke="#63b8ff" d="M94.16,-28.19C92.68,-33.2 83.62,-37 67,-37 41.05,-37 33.55,-27.73 44.5,-19.08"/>
<polygon fill="#63b8ff" stroke="#63b8ff" points="97.17,-26.39 89.5,-19.08 90.94,-29.58 97.17,-26.39"/>
</a>
</g>
</g>
</g>
</svg>
