<?xml version="1.0" encoding="UTF-8" standalone="no"?>
<!DOCTYPE svg PUBLIC "-//W3C//DTD SVG 1.1//EN"
 "http://www.w3.org/Graphics/SVG/1.1/DTD/svg11.dtd">
<!-- Generated by graphviz version 2.43.0 (0)
 -->
<!-- Title: Engine.h Pages: 1 -->
<svg width="524pt" height="225pt"
 viewBox="0.00 0.00 524.00 225.00" xmlns="http://www.w3.org/2000/svg" xmlns:xlink="http://www.w3.org/1999/xlink">
<g id="graph0" class="graph" transform="scale(1 1) rotate(0) translate(4 221)">
<title>Engine.h</title>
<!-- Node1 -->
<g id="Node000001" class="node">
<title>Node1</title>
<g id="a_Node000001"><a xlink:title=" ">
<polygon fill="#999999" stroke="#666666" points="350.5,-217 295.5,-217 295.5,-198 350.5,-198 350.5,-217"/>
<text text-anchor="middle" x="323" y="-205" font-family="Helvetica,sans-Serif" font-size="10.00">Engine.h</text>
</a>
</g>
</g>
<!-- Node2 -->
<g id="Node000002" class="node">
<title>Node2</title>
<g id="a_Node000002"><a xlink:href="Event_8h.html" target="_top" xlink:title=" ">
<polygon fill="white" stroke="#666666" points="370,-96 260,-96 260,-66 370,-66 370,-96"/>
<text text-anchor="start" x="268" y="-84" font-family="Helvetica,sans-Serif" font-size="10.00">EverEngineCore/core</text>
<text text-anchor="middle" x="315" y="-73" font-family="Helvetica,sans-Serif" font-size="10.00">/Event.h</text>
</a>
</g>
</g>
<!-- Node1&#45;&gt;Node2 -->
<g id="edge1_Node000001_Node000002" class="edge">
<title>Node1&#45;&gt;Node2</title>
<g id="a_edge1_Node000001_Node000002"><a xlink:title=" ">
<path fill="none" stroke="#63b8ff" d="M322.45,-197.94C321.25,-179.32 318.38,-134.53 316.57,-106.39"/>
<polygon fill="#63b8ff" stroke="#63b8ff" points="320.04,-105.92 315.91,-96.16 313.06,-106.36 320.04,-105.92"/>
</a>
</g>
</g>
<!-- Node9 -->
<g id="Node000009" class="node">
<title>Node9</title>
<g id="a_Node000009"><a xlink:title=" ">
<polygon fill="#e0e0e0" stroke="#999999" points="516,-24.5 464,-24.5 464,-5.5 516,-5.5 516,-24.5"/>
<text text-anchor="middle" x="490" y="-12.5" font-family="Helvetica,sans-Serif" font-size="10.00">memory</text>
</a>
</g>
</g>
<!-- Node1&#45;&gt;Node9 -->
<g id="edge15_Node000001_Node000009" class="edge">
<title>Node1&#45;&gt;Node9</title>
<g id="a_edge15_Node000001_Node000009"><a xlink:title=" ">
<path fill="none" stroke="#63b8ff" d="M330.61,-197.82C356.47,-168.32 441.29,-71.57 475.5,-32.54"/>
<polygon fill="#63b8ff" stroke="#63b8ff" points="478.39,-34.56 482.35,-24.73 473.12,-29.94 478.39,-34.56"/>
</a>
</g>
</g>
<!-- Node10 -->
<g id="Node000010" class="node">
<title>Node10</title>
<g id="a_Node000010"><a xlink:href="Input_8h.html" target="_top" xlink:title=" ">
<polygon fill="white" stroke="#666666" points="295,-162 169,-162 169,-132 295,-132 295,-162"/>
<text text-anchor="start" x="177" y="-150" font-family="Helvetica,sans-Serif" font-size="10.00">EverEngineCore/platform</text>
<text text-anchor="middle" x="232" y="-139" font-family="Helvetica,sans-Serif" font-size="10.00">/Input.h</text>
</a>
</g>
</g>
<!-- Node1&#45;&gt;Node10 -->
<g id="edge9_Node000001_Node000010" class="edge">
<title>Node1&#45;&gt;Node10</title>
<g id="a_edge9_Node000001_Node000010"><a xlink:title=" ">
<path fill="none" stroke="#63b8ff" d="M309.57,-197.87C297.23,-189.93 278.47,-177.87 262.49,-167.6"/>
<polygon fill="#63b8ff" stroke="#63b8ff" points="264.26,-164.58 253.96,-162.11 260.48,-170.47 264.26,-164.58"/>
</a>
</g>
</g>
<!-- Node3 -->
<g id="Node000003" class="node">
<title>Node3</title>
<g id="a_Node000003"><a xlink:href="Keyboard_8h.html" target="_top" xlink:title=" ">
<polygon fill="white" stroke="#666666" points="126,-30 0,-30 0,0 126,0 126,-30"/>
<text text-anchor="start" x="8" y="-18" font-family="Helvetica,sans-Serif" font-size="10.00">EverEngineCore/platform</text>
<text text-anchor="middle" x="63" y="-7" font-family="Helvetica,sans-Serif" font-size="10.00">/Keyboard.h</text>
</a>
</g>
</g>
<!-- Node2&#45;&gt;Node3 -->
<g id="edge2_Node000002_Node000003" class="edge">
<title>Node2&#45;&gt;Node3</title>
<g id="a_edge2_Node000002_Node000003"><a xlink:title=" ">
<path fill="none" stroke="#63b8ff" d="M259.7,-65.95C220.88,-56.1 168.83,-42.88 128.02,-32.51"/>
<polygon fill="#63b8ff" stroke="#63b8ff" points="128.73,-29.08 118.17,-30.01 127,-35.87 128.73,-29.08"/>
</a>
</g>
</g>
<!-- Node4 -->
<g id="Node000004" class="node">
<title>Node4</title>
<g id="a_Node000004"><a xlink:title=" ">
<polygon fill="#e0e0e0" stroke="#999999" points="203.5,-24.5 144.5,-24.5 144.5,-5.5 203.5,-5.5 203.5,-24.5"/>
<text text-anchor="middle" x="174" y="-12.5" font-family="Helvetica,sans-Serif" font-size="10.00">functional</text>
</a>
</g>
</g>
<!-- Node2&#45;&gt;Node4 -->
<g id="edge3_Node000002_Node000004" class="edge">
<title>Node2&#45;&gt;Node4</title>
<g id="a_edge3_Node000002_Node000004"><a xlink:title=" ">
<path fill="none" stroke="#63b8ff" d="M284.06,-65.95C259.55,-54.83 225.61,-39.42 201.92,-28.67"/>
<polygon fill="#63b8ff" stroke="#63b8ff" points="203.32,-25.46 192.76,-24.52 200.42,-31.84 203.32,-25.46"/>
</a>
</g>
</g>
<!-- Node5 -->
<g id="Node000005" class="node">
<title>Node5</title>
<g id="a_Node000005"><a xlink:title=" ">
<polygon fill="#e0e0e0" stroke="#999999" points="266,-24.5 222,-24.5 222,-5.5 266,-5.5 266,-24.5"/>
<text text-anchor="middle" x="244" y="-12.5" font-family="Helvetica,sans-Serif" font-size="10.00">vector</text>
</a>
</g>
</g>
<!-- Node2&#45;&gt;Node5 -->
<g id="edge4_Node000002_Node000005" class="edge">
<title>Node2&#45;&gt;Node5</title>
<g id="a_edge4_Node000002_Node000005"><a xlink:title=" ">
<path fill="none" stroke="#63b8ff" d="M299.24,-65.8C288.07,-55.72 273.06,-42.19 261.51,-31.78"/>
<polygon fill="#63b8ff" stroke="#63b8ff" points="263.58,-28.94 253.81,-24.84 258.9,-34.14 263.58,-28.94"/>
</a>
</g>
</g>
<!-- Node6 -->
<g id="Node000006" class="node">
<title>Node6</title>
<g id="a_Node000006"><a xlink:title=" ">
<polygon fill="#e0e0e0" stroke="#999999" points="446,-24.5 408,-24.5 408,-5.5 446,-5.5 446,-24.5"/>
<text text-anchor="middle" x="427" y="-12.5" font-family="Helvetica,sans-Serif" font-size="10.00">array</text>
</a>
</g>
</g>
<!-- Node2&#45;&gt;Node6 -->
<g id="edge5_Node000002_Node000006" class="edge">
<title>Node2&#45;&gt;Node6</title>
<g id="a_edge5_Node000002_Node000006"><a xlink:title=" ">
<path fill="none" stroke="#63b8ff" d="M339.58,-65.95C358.53,-55.13 384.58,-40.24 403.3,-29.54"/>
<polygon fill="#63b8ff" stroke="#63b8ff" points="405.15,-32.52 412.09,-24.52 401.68,-26.44 405.15,-32.52"/>
</a>
</g>
</g>
<!-- Node7 -->
<g id="Node000007" class="node">
<title>Node7</title>
<g id="a_Node000007"><a xlink:title=" ">
<polygon fill="#e0e0e0" stroke="#999999" points="327.5,-24.5 284.5,-24.5 284.5,-5.5 327.5,-5.5 327.5,-24.5"/>
<text text-anchor="middle" x="306" y="-12.5" font-family="Helvetica,sans-Serif" font-size="10.00">queue</text>
</a>
</g>
</g>
<!-- Node2&#45;&gt;Node7 -->
<g id="edge6_Node000002_Node000007" class="edge">
<title>Node2&#45;&gt;Node7</title>
<g id="a_edge6_Node000002_Node000007"><a xlink:title=" ">
<path fill="none" stroke="#63b8ff" d="M313,-65.8C311.72,-56.7 310.05,-44.79 308.66,-34.9"/>
<polygon fill="#63b8ff" stroke="#63b8ff" points="312.1,-34.26 307.24,-24.84 305.17,-35.23 312.1,-34.26"/>
</a>
</g>
</g>
<!-- Node8 -->
<g id="Node000008" class="node">
<title>Node8</title>
<g id="a_Node000008"><a xlink:title=" ">
<polygon fill="#e0e0e0" stroke="#999999" points="390,-24.5 346,-24.5 346,-5.5 390,-5.5 390,-24.5"/>
<text text-anchor="middle" x="368" y="-12.5" font-family="Helvetica,sans-Serif" font-size="10.00">mutex</text>
</a>
</g>
</g>
<!-- Node2&#45;&gt;Node8 -->
<g id="edge7_Node000002_Node000008" class="edge">
<title>Node2&#45;&gt;Node8</title>
<g id="a_edge7_Node000002_Node000008"><a xlink:title=" ">
<path fill="none" stroke="#63b8ff" d="M326.76,-65.8C334.86,-56.01 345.66,-42.98 354.17,-32.7"/>
<polygon fill="#63b8ff" stroke="#63b8ff" points="356.99,-34.78 360.68,-24.84 351.6,-30.31 356.99,-34.78"/>
</a>
</g>
</g>
<!-- Node2&#45;&gt;Node9 -->
<g id="edge8_Node000002_Node000009" class="edge">
<title>Node2&#45;&gt;Node9</title>
<g id="a_edge8_Node000002_Node000009"><a xlink:title=" ">
<path fill="none" stroke="#63b8ff" d="M355.58,-65.96C383.61,-56.15 421.69,-42.61 455,-30 456.42,-29.46 457.86,-28.91 459.32,-28.35"/>
<polygon fill="#63b8ff" stroke="#63b8ff" points="460.92,-31.48 468.95,-24.57 458.36,-24.96 460.92,-31.48"/>
</a>
</g>
</g>
<!-- Node10&#45;&gt;Node2 -->
<g id="edge11_Node000010_Node000002" class="edge">
<title>Node10&#45;&gt;Node2</title>
<g id="a_edge11_Node000010_Node000002"><a xlink:title=" ">
<path fill="none" stroke="#63b8ff" d="M250.42,-131.8C261.6,-123.18 276.05,-112.04 288.44,-102.48"/>
<polygon fill="#63b8ff" stroke="#63b8ff" points="290.85,-105.04 296.63,-96.16 286.57,-99.5 290.85,-105.04"/>
</a>
</g>
</g>
<!-- Node10&#45;&gt;Node3 -->
<g id="edge10_Node000010_Node000003" class="edge">
<title>Node10&#45;&gt;Node3</title>
<g id="a_edge10_Node000010_Node000003"><a xlink:title=" ">
<path fill="none" stroke="#63b8ff" d="M213.59,-131.84C183.62,-108.79 124.17,-63.05 89.6,-36.46"/>
<polygon fill="#63b8ff" stroke="#63b8ff" points="91.45,-33.47 81.38,-30.14 87.18,-39.01 91.45,-33.47"/>
</a>
</g>
</g>
<!-- Node10&#45;&gt;Node4 -->
<g id="edge13_Node000010_Node000004" class="edge">
<title>Node10&#45;&gt;Node4</title>
<g id="a_edge13_Node000010_Node000004"><a xlink:title=" ">
<path fill="none" stroke="#63b8ff" d="M225.68,-131.84C215.1,-108.13 193.81,-60.41 182.13,-34.23"/>
<polygon fill="#63b8ff" stroke="#63b8ff" points="185.17,-32.45 177.9,-24.75 178.78,-35.31 185.17,-32.45"/>
</a>
</g>
</g>
<!-- Node10&#45;&gt;Node5 -->
<g id="edge14_Node000010_Node000005" class="edge">
<title>Node10&#45;&gt;Node5</title>
<g id="a_edge14_Node000010_Node000005"><a xlink:title=" ">
<path fill="none" stroke="#63b8ff" d="M233.31,-131.84C235.48,-108.34 239.82,-61.26 242.25,-34.93"/>
<polygon fill="#63b8ff" stroke="#63b8ff" points="245.76,-35.03 243.19,-24.75 238.79,-34.38 245.76,-35.03"/>
</a>
</g>
</g>
<!-- Node10&#45;&gt;Node6 -->
<g id="edge12_Node000010_Node000006" class="edge">
<title>Node10&#45;&gt;Node6</title>
<g id="a_edge12_Node000010_Node000006"><a xlink:title=" ">
<path fill="none" stroke="#63b8ff" d="M295.07,-134.83C323.04,-127.43 354.98,-115.39 379,-96 399.23,-79.67 412.96,-52.37 420.39,-34.28"/>
<polygon fill="#63b8ff" stroke="#63b8ff" points="423.7,-35.43 424.04,-24.84 417.17,-32.9 423.7,-35.43"/>
</a>
</g>
</g>
</g>
</svg>
