<?xml version="1.0" encoding="UTF-8" standalone="no"?>
<!DOCTYPE svg PUBLIC "-//W3C//DTD SVG 1.1//EN"
 "http://www.w3.org/Graphics/SVG/1.1/DTD/svg11.dtd">
<!-- Generated by graphviz version 2.43.0 (0)
 -->
<!-- Title: Engine.cpp Pages: 1 -->
<svg width="571pt" height="291pt"
 viewBox="0.00 0.00 571.00 291.00" xmlns="http://www.w3.org/2000/svg" xmlns:xlink="http://www.w3.org/1999/xlink">
<g id="graph0" class="graph" transform="scale(1 1) rotate(0) translate(4 287)">
<title>Engine.cpp</title>
<!-- Node1 -->
<g id="Node000001" class="node">
<title>Node1</title>
<g id="a_Node000001"><a xlink:title=" ">
<polygon fill="#999999" stroke="#666666" points="348.5,-283 283.5,-283 283.5,-264 348.5,-264 348.5,-283"/>
<text text-anchor="middle" x="316" y="-271" font-family="Helvetica,sans-Serif" font-size="10.00">Engine.cpp</text>
</a>
</g>
</g>
<!-- Node2 -->
<g id="Node000002" class="node">
<title>Node2</title>
<g id="a_Node000002"><a xlink:href="Engine_8h.html" target="_top" xlink:title=" ">
<polygon fill="white" stroke="#666666" points="307,-228 197,-228 197,-198 307,-198 307,-228"/>
<text text-anchor="start" x="205" y="-216" font-family="Helvetica,sans-Serif" font-size="10.00">EverEngineCore/core</text>
<text text-anchor="middle" x="252" y="-205" font-family="Helvetica,sans-Serif" font-size="10.00">/Engine.h</text>
</a>
</g>
</g>
<!-- Node1&#45;&gt;Node2 -->
<g id="edge1_Node000001_Node000002" class="edge">
<title>Node1&#45;&gt;Node2</title>
<g id="a_edge1_Node000001_Node000002"><a xlink:title=" ">
<path fill="none" stroke="#63b8ff" d="M306.56,-263.87C298.27,-256.3 285.89,-244.98 275.01,-235.04"/>
<polygon fill="#63b8ff" stroke="#63b8ff" points="277.18,-232.28 267.44,-228.11 272.46,-237.44 277.18,-232.28"/>
</a>
</g>
</g>
<!-- Node12 -->
<g id="Node000012" class="node">
<title>Node12</title>
<g id="a_Node000012"><a xlink:href="Time_8h.html" target="_top" xlink:title=" ">
<polygon fill="white" stroke="#666666" points="435,-228 325,-228 325,-198 435,-198 435,-228"/>
<text text-anchor="start" x="333" y="-216" font-family="Helvetica,sans-Serif" font-size="10.00">EverEngineCore/core</text>
<text text-anchor="middle" x="380" y="-205" font-family="Helvetica,sans-Serif" font-size="10.00">/Time.h</text>
</a>
</g>
</g>
<!-- Node1&#45;&gt;Node12 -->
<g id="edge17_Node000001_Node000012" class="edge">
<title>Node1&#45;&gt;Node12</title>
<g id="a_edge17_Node000001_Node000012"><a xlink:title=" ">
<path fill="none" stroke="#63b8ff" d="M325.44,-263.87C333.73,-256.3 346.11,-244.98 356.99,-235.04"/>
<polygon fill="#63b8ff" stroke="#63b8ff" points="359.54,-237.44 364.56,-228.11 354.82,-232.28 359.54,-237.44"/>
</a>
</g>
</g>
<!-- Node13 -->
<g id="Node000013" class="node">
<title>Node13</title>
<g id="a_Node000013"><a xlink:href="Window_8h.html" target="_top" xlink:title=" ">
<polygon fill="white" stroke="#666666" points="226,-162 100,-162 100,-132 226,-132 226,-162"/>
<text text-anchor="start" x="108" y="-150" font-family="Helvetica,sans-Serif" font-size="10.00">EverEngineCore/platform</text>
<text text-anchor="middle" x="163" y="-139" font-family="Helvetica,sans-Serif" font-size="10.00">/Window.h</text>
</a>
</g>
</g>
<!-- Node1&#45;&gt;Node13 -->
<g id="edge18_Node000001_Node000013" class="edge">
<title>Node1&#45;&gt;Node13</title>
<g id="a_edge18_Node000001_Node000013"><a xlink:title=" ">
<path fill="none" stroke="#63b8ff" d="M283.24,-269.33C254.41,-264.84 213.21,-254.02 188,-228 173.49,-213.03 167.39,-189.76 164.84,-172.17"/>
<polygon fill="#63b8ff" stroke="#63b8ff" points="168.29,-171.6 163.66,-162.07 161.34,-172.41 168.29,-171.6"/>
</a>
</g>
</g>
<!-- Node14 -->
<g id="Node000014" class="node">
<title>Node14</title>
<g id="a_Node000014"><a xlink:href="Log_8h.html" target="_top" xlink:title=" ">
<polygon fill="white" stroke="#666666" points="563,-228 453,-228 453,-198 563,-198 563,-228"/>
<text text-anchor="start" x="461" y="-216" font-family="Helvetica,sans-Serif" font-size="10.00">EverEngineCore/core</text>
<text text-anchor="middle" x="508" y="-205" font-family="Helvetica,sans-Serif" font-size="10.00">/Log.h</text>
</a>
</g>
</g>
<!-- Node1&#45;&gt;Node14 -->
<g id="edge23_Node000001_Node000014" class="edge">
<title>Node1&#45;&gt;Node14</title>
<g id="a_edge23_Node000001_Node000014"><a xlink:title=" ">
<path fill="none" stroke="#63b8ff" d="M343.92,-263.99C372.15,-255.39 416.58,-241.86 452.08,-231.04"/>
<polygon fill="#63b8ff" stroke="#63b8ff" points="453.29,-234.33 461.84,-228.06 451.25,-227.63 453.29,-234.33"/>
</a>
</g>
</g>
<!-- Node3 -->
<g id="Node000003" class="node">
<title>Node3</title>
<g id="a_Node000003"><a xlink:href="Event_8h.html" target="_top" xlink:title=" ">
<polygon fill="white" stroke="#666666" points="309,-96 199,-96 199,-66 309,-66 309,-96"/>
<text text-anchor="start" x="207" y="-84" font-family="Helvetica,sans-Serif" font-size="10.00">EverEngineCore/core</text>
<text text-anchor="middle" x="254" y="-73" font-family="Helvetica,sans-Serif" font-size="10.00">/Event.h</text>
</a>
</g>
</g>
<!-- Node2&#45;&gt;Node3 -->
<g id="edge2_Node000002_Node000003" class="edge">
<title>Node2&#45;&gt;Node3</title>
<g id="a_edge2_Node000002_Node000003"><a xlink:title=" ">
<path fill="none" stroke="#63b8ff" d="M252.22,-197.84C252.56,-175.86 253.21,-133.27 253.63,-106.3"/>
<polygon fill="#63b8ff" stroke="#63b8ff" points="257.13,-106.19 253.78,-96.14 250.13,-106.09 257.13,-106.19"/>
</a>
</g>
</g>
<!-- Node10 -->
<g id="Node000010" class="node">
<title>Node10</title>
<g id="a_Node000010"><a xlink:title=" ">
<polygon fill="#e0e0e0" stroke="#999999" points="52,-24.5 0,-24.5 0,-5.5 52,-5.5 52,-24.5"/>
<text text-anchor="middle" x="26" y="-12.5" font-family="Helvetica,sans-Serif" font-size="10.00">memory</text>
</a>
</g>
</g>
<!-- Node2&#45;&gt;Node10 -->
<g id="edge16_Node000002_Node000010" class="edge">
<title>Node2&#45;&gt;Node10</title>
<g id="a_edge16_Node000002_Node000010"><a xlink:title=" ">
<path fill="none" stroke="#63b8ff" d="M196.75,-206.44C162.73,-200.44 120.21,-187.96 91,-162 52.21,-127.53 35.4,-65.5 29.17,-34.57"/>
<polygon fill="#63b8ff" stroke="#63b8ff" points="32.6,-33.89 27.32,-24.7 25.72,-35.17 32.6,-33.89"/>
</a>
</g>
</g>
<!-- Node11 -->
<g id="Node000011" class="node">
<title>Node11</title>
<g id="a_Node000011"><a xlink:href="Input_8h.html" target="_top" xlink:title=" ">
<polygon fill="white" stroke="#666666" points="423,-162 297,-162 297,-132 423,-132 423,-162"/>
<text text-anchor="start" x="305" y="-150" font-family="Helvetica,sans-Serif" font-size="10.00">EverEngineCore/platform</text>
<text text-anchor="middle" x="360" y="-139" font-family="Helvetica,sans-Serif" font-size="10.00">/Input.h</text>
</a>
</g>
</g>
<!-- Node2&#45;&gt;Node11 -->
<g id="edge10_Node000002_Node000011" class="edge">
<title>Node2&#45;&gt;Node11</title>
<g id="a_edge10_Node000002_Node000011"><a xlink:title=" ">
<path fill="none" stroke="#63b8ff" d="M275.7,-197.95C290.89,-188.95 310.82,-177.14 327.48,-167.27"/>
<polygon fill="#63b8ff" stroke="#63b8ff" points="329.54,-170.12 336.35,-162.01 325.97,-164.1 329.54,-170.12"/>
</a>
</g>
</g>
<!-- Node4 -->
<g id="Node000004" class="node">
<title>Node4</title>
<g id="a_Node000004"><a xlink:href="Keyboard_8h.html" target="_top" xlink:title=" ">
<polygon fill="white" stroke="#666666" points="196,-30 70,-30 70,0 196,0 196,-30"/>
<text text-anchor="start" x="78" y="-18" font-family="Helvetica,sans-Serif" font-size="10.00">EverEngineCore/platform</text>
<text text-anchor="middle" x="133" y="-7" font-family="Helvetica,sans-Serif" font-size="10.00">/Keyboard.h</text>
</a>
</g>
</g>
<!-- Node3&#45;&gt;Node4 -->
<g id="edge3_Node000003_Node000004" class="edge">
<title>Node3&#45;&gt;Node4</title>
<g id="a_edge3_Node000003_Node000004"><a xlink:title=" ">
<path fill="none" stroke="#63b8ff" d="M227.45,-65.95C210.11,-56.78 187.27,-44.71 168.4,-34.72"/>
<polygon fill="#63b8ff" stroke="#63b8ff" points="169.97,-31.59 159.49,-30.01 166.7,-37.78 169.97,-31.59"/>
</a>
</g>
</g>
<!-- Node5 -->
<g id="Node000005" class="node">
<title>Node5</title>
<g id="a_Node000005"><a xlink:title=" ">
<polygon fill="#e0e0e0" stroke="#999999" points="397.5,-24.5 338.5,-24.5 338.5,-5.5 397.5,-5.5 397.5,-24.5"/>
<text text-anchor="middle" x="368" y="-12.5" font-family="Helvetica,sans-Serif" font-size="10.00">functional</text>
</a>
</g>
</g>
<!-- Node3&#45;&gt;Node5 -->
<g id="edge4_Node000003_Node000005" class="edge">
<title>Node3&#45;&gt;Node5</title>
<g id="a_edge4_Node000003_Node000005"><a xlink:title=" ">
<path fill="none" stroke="#63b8ff" d="M279.02,-65.95C298.31,-55.13 324.82,-40.24 343.88,-29.54"/>
<polygon fill="#63b8ff" stroke="#63b8ff" points="345.82,-32.46 352.83,-24.52 342.4,-26.36 345.82,-32.46"/>
</a>
</g>
</g>
<!-- Node6 -->
<g id="Node000006" class="node">
<title>Node6</title>
<g id="a_Node000006"><a xlink:title=" ">
<polygon fill="#e0e0e0" stroke="#999999" points="516,-24.5 472,-24.5 472,-5.5 516,-5.5 516,-24.5"/>
<text text-anchor="middle" x="494" y="-12.5" font-family="Helvetica,sans-Serif" font-size="10.00">vector</text>
</a>
</g>
</g>
<!-- Node3&#45;&gt;Node6 -->
<g id="edge5_Node000003_Node000006" class="edge">
<title>Node3&#45;&gt;Node6</title>
<g id="a_edge5_Node000003_Node000006"><a xlink:title=" ">
<path fill="none" stroke="#63b8ff" d="M309.38,-69.73C351.98,-61.13 411.99,-47.44 463,-30 464.4,-29.52 465.82,-29 467.24,-28.46"/>
<polygon fill="#63b8ff" stroke="#63b8ff" points="468.65,-31.67 476.53,-24.59 465.95,-25.2 468.65,-31.67"/>
</a>
</g>
</g>
<!-- Node7 -->
<g id="Node000007" class="node">
<title>Node7</title>
<g id="a_Node000007"><a xlink:title=" ">
<polygon fill="#e0e0e0" stroke="#999999" points="454,-24.5 416,-24.5 416,-5.5 454,-5.5 454,-24.5"/>
<text text-anchor="middle" x="435" y="-12.5" font-family="Helvetica,sans-Serif" font-size="10.00">array</text>
</a>
</g>
</g>
<!-- Node3&#45;&gt;Node7 -->
<g id="edge6_Node000003_Node000007" class="edge">
<title>Node3&#45;&gt;Node7</title>
<g id="a_edge6_Node000003_Node000007"><a xlink:title=" ">
<path fill="none" stroke="#63b8ff" d="M302.16,-65.94C332.35,-56.69 371.87,-43.78 406,-30 407.01,-29.59 408.04,-29.16 409.07,-28.72"/>
<polygon fill="#63b8ff" stroke="#63b8ff" points="410.65,-31.85 418.3,-24.52 407.75,-25.48 410.65,-31.85"/>
</a>
</g>
</g>
<!-- Node8 -->
<g id="Node000008" class="node">
<title>Node8</title>
<g id="a_Node000008"><a xlink:title=" ">
<polygon fill="#e0e0e0" stroke="#999999" points="257.5,-24.5 214.5,-24.5 214.5,-5.5 257.5,-5.5 257.5,-24.5"/>
<text text-anchor="middle" x="236" y="-12.5" font-family="Helvetica,sans-Serif" font-size="10.00">queue</text>
</a>
</g>
</g>
<!-- Node3&#45;&gt;Node8 -->
<g id="edge7_Node000003_Node000008" class="edge">
<title>Node3&#45;&gt;Node8</title>
<g id="a_edge7_Node000003_Node000008"><a xlink:title=" ">
<path fill="none" stroke="#63b8ff" d="M250.01,-65.8C247.42,-56.6 244.02,-44.53 241.23,-34.58"/>
<polygon fill="#63b8ff" stroke="#63b8ff" points="244.56,-33.52 238.49,-24.84 237.83,-35.42 244.56,-33.52"/>
</a>
</g>
</g>
<!-- Node9 -->
<g id="Node000009" class="node">
<title>Node9</title>
<g id="a_Node000009"><a xlink:title=" ">
<polygon fill="#e0e0e0" stroke="#999999" points="320,-24.5 276,-24.5 276,-5.5 320,-5.5 320,-24.5"/>
<text text-anchor="middle" x="298" y="-12.5" font-family="Helvetica,sans-Serif" font-size="10.00">mutex</text>
</a>
</g>
</g>
<!-- Node3&#45;&gt;Node9 -->
<g id="edge8_Node000003_Node000009" class="edge">
<title>Node3&#45;&gt;Node9</title>
<g id="a_edge8_Node000003_Node000009"><a xlink:title=" ">
<path fill="none" stroke="#63b8ff" d="M263.77,-65.8C270.36,-56.21 279.09,-43.5 286.09,-33.32"/>
<polygon fill="#63b8ff" stroke="#63b8ff" points="289.14,-35.07 291.92,-24.84 283.37,-31.1 289.14,-35.07"/>
</a>
</g>
</g>
<!-- Node3&#45;&gt;Node10 -->
<g id="edge9_Node000003_Node000010" class="edge">
<title>Node3&#45;&gt;Node10</title>
<g id="a_edge9_Node000003_Node000010"><a xlink:title=" ">
<path fill="none" stroke="#63b8ff" d="M198.97,-67.71C160.07,-58.55 106.88,-45.05 61,-30 59.33,-29.45 57.63,-28.87 55.92,-28.26"/>
<polygon fill="#63b8ff" stroke="#63b8ff" points="56.79,-24.84 46.2,-24.59 54.32,-31.39 56.79,-24.84"/>
</a>
</g>
</g>
<!-- Node11&#45;&gt;Node3 -->
<g id="edge12_Node000011_Node000003" class="edge">
<title>Node11&#45;&gt;Node3</title>
<g id="a_edge12_Node000011_Node000003"><a xlink:title=" ">
<path fill="none" stroke="#63b8ff" d="M336.74,-131.95C321.83,-122.95 302.27,-111.14 285.91,-101.27"/>
<polygon fill="#63b8ff" stroke="#63b8ff" points="287.58,-98.18 277.21,-96.01 283.96,-104.18 287.58,-98.18"/>
</a>
</g>
</g>
<!-- Node11&#45;&gt;Node4 -->
<g id="edge11_Node000011_Node000004" class="edge">
<title>Node11&#45;&gt;Node4</title>
<g id="a_edge11_Node000011_Node000004"><a xlink:title=" ">
<path fill="none" stroke="#63b8ff" d="M296.62,-137.65C262.59,-130.75 221.32,-118.31 190,-96 169.61,-81.48 153.86,-57.3 144.13,-39.32"/>
<polygon fill="#63b8ff" stroke="#63b8ff" points="147.05,-37.35 139.36,-30.07 140.83,-40.56 147.05,-37.35"/>
</a>
</g>
</g>
<!-- Node11&#45;&gt;Node5 -->
<g id="edge14_Node000011_Node000005" class="edge">
<title>Node11&#45;&gt;Node5</title>
<g id="a_edge14_Node000011_Node000005"><a xlink:title=" ">
<path fill="none" stroke="#63b8ff" d="M360.87,-131.84C362.32,-108.34 365.21,-61.26 366.84,-34.93"/>
<polygon fill="#63b8ff" stroke="#63b8ff" points="370.34,-34.94 367.46,-24.75 363.35,-34.51 370.34,-34.94"/>
</a>
</g>
</g>
<!-- Node11&#45;&gt;Node6 -->
<g id="edge15_Node000011_Node000006" class="edge">
<title>Node11&#45;&gt;Node6</title>
<g id="a_edge15_Node000011_Node000006"><a xlink:title=" ">
<path fill="none" stroke="#63b8ff" d="M375.05,-131.59C385.44,-121.61 399.59,-108.02 412,-96 434.84,-73.88 461.12,-48.2 477.65,-32.02"/>
<polygon fill="#63b8ff" stroke="#63b8ff" points="480.22,-34.4 484.92,-24.9 475.33,-29.4 480.22,-34.4"/>
</a>
</g>
</g>
<!-- Node11&#45;&gt;Node7 -->
<g id="edge13_Node000011_Node000007" class="edge">
<title>Node11&#45;&gt;Node7</title>
<g id="a_edge13_Node000011_Node000007"><a xlink:title=" ">
<path fill="none" stroke="#63b8ff" d="M368.17,-131.84C381.97,-107.92 409.87,-59.56 424.88,-33.53"/>
<polygon fill="#63b8ff" stroke="#63b8ff" points="427.99,-35.16 429.95,-24.75 421.92,-31.66 427.99,-35.16"/>
</a>
</g>
</g>
<!-- Node13&#45;&gt;Node3 -->
<g id="edge19_Node000013_Node000003" class="edge">
<title>Node13&#45;&gt;Node3</title>
<g id="a_edge19_Node000013_Node000003"><a xlink:title=" ">
<path fill="none" stroke="#63b8ff" d="M183.2,-131.8C195.68,-123.01 211.9,-111.61 225.66,-101.93"/>
<polygon fill="#63b8ff" stroke="#63b8ff" points="227.69,-104.78 233.86,-96.16 223.67,-99.05 227.69,-104.78"/>
</a>
</g>
</g>
<!-- Node13&#45;&gt;Node4 -->
<g id="edge20_Node000013_Node000004" class="edge">
<title>Node13&#45;&gt;Node4</title>
<g id="a_edge20_Node000013_Node000004"><a xlink:title=" ">
<path fill="none" stroke="#63b8ff" d="M159.73,-131.84C154.64,-109.76 144.74,-66.89 138.53,-39.94"/>
<polygon fill="#63b8ff" stroke="#63b8ff" points="141.92,-39.1 136.26,-30.14 135.1,-40.67 141.92,-39.1"/>
</a>
</g>
</g>
<!-- Node13&#45;&gt;Node5 -->
<g id="edge21_Node000013_Node000005" class="edge">
<title>Node13&#45;&gt;Node5</title>
<g id="a_edge21_Node000013_Node000005"><a xlink:title=" ">
<path fill="none" stroke="#63b8ff" d="M226.24,-136.05C256.4,-128.84 291.57,-116.6 318,-96 338.73,-79.84 353.12,-52.5 360.97,-34.35"/>
<polygon fill="#63b8ff" stroke="#63b8ff" points="364.3,-35.46 364.84,-24.88 357.82,-32.81 364.3,-35.46"/>
</a>
</g>
</g>
<!-- Node13&#45;&gt;Node10 -->
<g id="edge22_Node000013_Node000010" class="edge">
<title>Node13&#45;&gt;Node10</title>
<g id="a_edge22_Node000013_Node000010"><a xlink:title=" ">
<path fill="none" stroke="#63b8ff" d="M148.08,-131.84C122.31,-107.39 69.65,-57.42 42.7,-31.85"/>
<polygon fill="#63b8ff" stroke="#63b8ff" points="44.88,-29.09 35.22,-24.75 40.06,-34.17 44.88,-29.09"/>
</a>
</g>
</g>
<!-- Node15 -->
<g id="Node000015" class="node">
<title>Node15</title>
<g id="a_Node000015"><a xlink:title=" ">
<polygon fill="#e0e0e0" stroke="#999999" points="550.5,-156.5 465.5,-156.5 465.5,-137.5 550.5,-137.5 550.5,-156.5"/>
<text text-anchor="middle" x="508" y="-144.5" font-family="Helvetica,sans-Serif" font-size="10.00">spdlog/spdlog.h</text>
</a>
</g>
</g>
<!-- Node14&#45;&gt;Node15 -->
<g id="edge24_Node000014_Node000015" class="edge">
<title>Node14&#45;&gt;Node15</title>
<g id="a_edge24_Node000014_Node000015"><a xlink:title=" ">
<path fill="none" stroke="#63b8ff" d="M508,-197.8C508,-188.7 508,-176.79 508,-166.9"/>
<polygon fill="#63b8ff" stroke="#63b8ff" points="511.5,-166.84 508,-156.84 504.5,-166.84 511.5,-166.84"/>
</a>
</g>
</g>
</g>
</svg>
