<?xml version="1.0" encoding="UTF-8" standalone="no"?>
<!DOCTYPE svg PUBLIC "-//W3C//DTD SVG 1.1//EN"
 "http://www.w3.org/Graphics/SVG/1.1/DTD/svg11.dtd">
<!-- Generated by graphviz version 2.43.0 (0)
 -->
<!-- Title: Event.h Pages: 1 -->
<svg width="243pt" height="192pt"
 viewBox="0.00 0.00 243.00 192.00" xmlns="http://www.w3.org/2000/svg" xmlns:xlink="http://www.w3.org/1999/xlink">
<g id="graph0" class="graph" transform="scale(1 1) rotate(0) translate(4 188)">
<title>Event.h</title>
<!-- Node1 -->
<g id="Node000001" class="node">
<title>Node1</title>
<g id="a_Node000001"><a xlink:title=" ">
<polygon fill="#999999" stroke="#666666" points="146.5,-184 96.5,-184 96.5,-165 146.5,-165 146.5,-184"/>
<text text-anchor="middle" x="121.5" y="-172" font-family="Helvetica,sans-Serif" font-size="10.00">Event.h</text>
</a>
</g>
</g>
<!-- Node2 -->
<g id="Node000002" class="node">
<title>Node2</title>
<g id="a_Node000002"><a xlink:href="Engine_8h.html" target="_top" xlink:title=" ">
<polygon fill="white" stroke="#666666" points="55,-74 0,-74 0,-55 55,-55 55,-74"/>
<text text-anchor="middle" x="27.5" y="-62" font-family="Helvetica,sans-Serif" font-size="10.00">Engine.h</text>
</a>
</g>
</g>
<!-- Node1&#45;&gt;Node2 -->
<g id="edge1_Node000001_Node000002" class="edge">
<title>Node1&#45;&gt;Node2</title>
<g id="a_edge1_Node000001_Node000002"><a xlink:title=" ">
<path fill="none" stroke="#63b8ff" d="M98.68,-159.19C87.2,-151.25 73.62,-140.63 63.5,-129 48.53,-111.79 36.81,-87.39 31.18,-74.42"/>
<polygon fill="#63b8ff" stroke="#63b8ff" points="97.06,-162.32 107.32,-164.96 100.95,-156.5 97.06,-162.32"/>
</a>
</g>
</g>
<!-- Node4 -->
<g id="Node000004" class="node">
<title>Node4</title>
<g id="a_Node000004"><a xlink:href="Input_8h.html" target="_top" xlink:title=" ">
<polygon fill="white" stroke="#666666" points="119,-129 72,-129 72,-110 119,-110 119,-129"/>
<text text-anchor="middle" x="95.5" y="-117" font-family="Helvetica,sans-Serif" font-size="10.00">Input.h</text>
</a>
</g>
</g>
<!-- Node1&#45;&gt;Node4 -->
<g id="edge3_Node000001_Node000004" class="edge">
<title>Node1&#45;&gt;Node4</title>
<g id="a_edge3_Node000001_Node000004"><a xlink:title=" ">
<path fill="none" stroke="#63b8ff" d="M112.68,-155.53C108.3,-146.6 103.21,-136.22 99.71,-129.09"/>
<polygon fill="#63b8ff" stroke="#63b8ff" points="109.66,-157.31 117.21,-164.75 115.94,-154.23 109.66,-157.31"/>
</a>
</g>
</g>
<!-- Node6 -->
<g id="Node000006" class="node">
<title>Node6</title>
<g id="a_Node000006"><a xlink:href="Window_8cpp.html" target="_top" xlink:title=" ">
<polygon fill="white" stroke="#666666" points="217,-74 148,-74 148,-55 217,-55 217,-74"/>
<text text-anchor="middle" x="182.5" y="-62" font-family="Helvetica,sans-Serif" font-size="10.00">Window.cpp</text>
</a>
</g>
</g>
<!-- Node1&#45;&gt;Node6 -->
<g id="edge6_Node000001_Node000006" class="edge">
<title>Node1&#45;&gt;Node6</title>
<g id="a_edge6_Node000001_Node000006"><a xlink:title=" ">
<path fill="none" stroke="#63b8ff" d="M131.52,-155.76C144.78,-132.28 167.64,-91.81 177.61,-74.16"/>
<polygon fill="#63b8ff" stroke="#63b8ff" points="128.36,-154.23 126.49,-164.66 134.46,-157.68 128.36,-154.23"/>
</a>
</g>
</g>
<!-- Node7 -->
<g id="Node000007" class="node">
<title>Node7</title>
<g id="a_Node000007"><a xlink:href="Window_8h.html" target="_top" xlink:title=" ">
<polygon fill="white" stroke="#666666" points="235,-129 176,-129 176,-110 235,-110 235,-129"/>
<text text-anchor="middle" x="205.5" y="-117" font-family="Helvetica,sans-Serif" font-size="10.00">Window.h</text>
</a>
</g>
</g>
<!-- Node1&#45;&gt;Node7 -->
<g id="edge7_Node000001_Node000007" class="edge">
<title>Node1&#45;&gt;Node7</title>
<g id="a_edge7_Node000001_Node000007"><a xlink:title=" ">
<path fill="none" stroke="#63b8ff" d="M143.81,-159.42C159.05,-149.81 178.77,-137.37 191.76,-129.17"/>
<polygon fill="#63b8ff" stroke="#63b8ff" points="141.59,-156.69 135,-164.98 145.32,-162.61 141.59,-156.69"/>
</a>
</g>
</g>
<!-- Node3 -->
<g id="Node000003" class="node">
<title>Node3</title>
<g id="a_Node000003"><a xlink:href="Engine_8cpp.html" target="_top" xlink:title=" ">
<polygon fill="white" stroke="#666666" points="169,-19 104,-19 104,0 169,0 169,-19"/>
<text text-anchor="middle" x="136.5" y="-7" font-family="Helvetica,sans-Serif" font-size="10.00">Engine.cpp</text>
</a>
</g>
</g>
<!-- Node2&#45;&gt;Node3 -->
<g id="edge2_Node000002_Node000003" class="edge">
<title>Node2&#45;&gt;Node3</title>
<g id="a_edge2_Node000002_Node000003"><a xlink:title=" ">
<path fill="none" stroke="#63b8ff" d="M54.23,-50.5C74.29,-40.75 101.18,-27.68 118.67,-19.17"/>
<polygon fill="#63b8ff" stroke="#63b8ff" points="52.48,-47.46 45.01,-54.98 55.54,-53.76 52.48,-47.46"/>
</a>
</g>
</g>
<!-- Node4&#45;&gt;Node2 -->
<g id="edge4_Node000004_Node000002" class="edge">
<title>Node4&#45;&gt;Node2</title>
<g id="a_edge4_Node000004_Node000002"><a xlink:title=" ">
<path fill="none" stroke="#63b8ff" d="M76.38,-103.6C64.2,-94.11 48.84,-82.13 38.62,-74.17"/>
<polygon fill="#63b8ff" stroke="#63b8ff" points="74.54,-106.6 84.57,-109.98 78.84,-101.08 74.54,-106.6"/>
</a>
</g>
</g>
<!-- Node5 -->
<g id="Node000005" class="node">
<title>Node5</title>
<g id="a_Node000005"><a xlink:href="Input_8cpp.html" target="_top" xlink:title=" ">
<polygon fill="white" stroke="#666666" points="130,-74 73,-74 73,-55 130,-55 130,-74"/>
<text text-anchor="middle" x="101.5" y="-62" font-family="Helvetica,sans-Serif" font-size="10.00">Input.cpp</text>
</a>
</g>
</g>
<!-- Node4&#45;&gt;Node5 -->
<g id="edge5_Node000004_Node000005" class="edge">
<title>Node4&#45;&gt;Node5</title>
<g id="a_edge5_Node000004_Node000005"><a xlink:title=" ">
<path fill="none" stroke="#63b8ff" d="M97.63,-99.66C98.62,-90.93 99.75,-80.99 100.53,-74.09"/>
<polygon fill="#63b8ff" stroke="#63b8ff" points="94.14,-99.42 96.49,-109.75 101.09,-100.21 94.14,-99.42"/>
</a>
</g>
</g>
<!-- Node7&#45;&gt;Node3 -->
<g id="edge8_Node000007_Node000003" class="edge">
<title>Node7&#45;&gt;Node3</title>
<g id="a_edge8_Node000007_Node000003"><a xlink:title=" ">
<path fill="none" stroke="#63b8ff" d="M218.71,-101.45C227.33,-88.09 235.46,-69.43 226.5,-55 213.99,-34.86 189.37,-23.56 169.04,-17.39"/>
<polygon fill="#63b8ff" stroke="#63b8ff" points="215.77,-99.54 212.87,-109.73 221.49,-103.57 215.77,-99.54"/>
</a>
</g>
</g>
<!-- Node7&#45;&gt;Node6 -->
<g id="edge9_Node000007_Node000006" class="edge">
<title>Node7&#45;&gt;Node6</title>
<g id="a_edge9_Node000007_Node000006"><a xlink:title=" ">
<path fill="none" stroke="#63b8ff" d="M197.7,-100.53C193.82,-91.6 189.32,-81.22 186.23,-74.09"/>
<polygon fill="#63b8ff" stroke="#63b8ff" points="194.51,-101.97 201.7,-109.75 200.93,-99.18 194.51,-101.97"/>
</a>
</g>
</g>
</g>
</svg>
