<?xml version="1.0" encoding="UTF-8" standalone="no"?>
<!DOCTYPE svg PUBLIC "-//W3C//DTD SVG 1.1//EN"
 "http://www.w3.org/Graphics/SVG/1.1/DTD/svg11.dtd">
<!-- Generated by graphviz version 2.43.0 (0)
 -->
<!-- Title: FileSystem.cpp Pages: 1 -->
<svg width="756pt" height="148pt"
 viewBox="0.00 0.00 756.00 148.00" xmlns="http://www.w3.org/2000/svg" xmlns:xlink="http://www.w3.org/1999/xlink">
<g id="graph0" class="graph" transform="scale(1 1) rotate(0) translate(4 144)">
<title>FileSystem.cpp</title>
<!-- Node1 -->
<g id="Node000001" class="node">
<title>Node1</title>
<g id="a_Node000001"><a xlink:title=" ">
<polygon fill="#999999" stroke="#666666" points="391.5,-140 306.5,-140 306.5,-121 391.5,-121 391.5,-140"/>
<text text-anchor="middle" x="349" y="-128" font-family="Helvetica,sans-Serif" font-size="10.00">FileSystem.cpp</text>
</a>
</g>
</g>
<!-- Node2 -->
<g id="Node000002" class="node">
<title>Node2</title>
<g id="a_Node000002"><a xlink:title=" ">
<polygon fill="#e0e0e0" stroke="#999999" points="50,-79.5 0,-79.5 0,-60.5 50,-60.5 50,-79.5"/>
<text text-anchor="middle" x="25" y="-67.5" font-family="Helvetica,sans-Serif" font-size="10.00">fstream</text>
</a>
</g>
</g>
<!-- Node1&#45;&gt;Node2 -->
<g id="edge1_Node000001_Node000002" class="edge">
<title>Node1&#45;&gt;Node2</title>
<g id="a_edge1_Node000001_Node000002"><a xlink:title=" ">
<path fill="none" stroke="#63b8ff" d="M306.07,-126.13C248.86,-120.92 144.88,-108.9 59,-85 57.06,-84.46 55.09,-83.84 53.11,-83.17"/>
<polygon fill="#63b8ff" stroke="#63b8ff" points="54.02,-79.77 43.42,-79.52 51.55,-86.32 54.02,-79.77"/>
</a>
</g>
</g>
<!-- Node3 -->
<g id="Node000003" class="node">
<title>Node3</title>
<g id="a_Node000003"><a xlink:title=" ">
<polygon fill="#e0e0e0" stroke="#999999" points="120,-79.5 68,-79.5 68,-60.5 120,-60.5 120,-79.5"/>
<text text-anchor="middle" x="94" y="-67.5" font-family="Helvetica,sans-Serif" font-size="10.00">sstream</text>
</a>
</g>
</g>
<!-- Node1&#45;&gt;Node3 -->
<g id="edge2_Node000001_Node000003" class="edge">
<title>Node1&#45;&gt;Node3</title>
<g id="a_edge2_Node000001_Node000003"><a xlink:title=" ">
<path fill="none" stroke="#63b8ff" d="M306.26,-123.21C261.52,-116.08 189.49,-103.05 129,-85 127.12,-84.44 125.2,-83.82 123.27,-83.16"/>
<polygon fill="#63b8ff" stroke="#63b8ff" points="124.36,-79.83 113.77,-79.63 121.93,-86.39 124.36,-79.83"/>
</a>
</g>
</g>
<!-- Node4 -->
<g id="Node000004" class="node">
<title>Node4</title>
<g id="a_Node000004"><a xlink:title=" ">
<polygon fill="#e0e0e0" stroke="#999999" points="184,-79.5 138,-79.5 138,-60.5 184,-60.5 184,-79.5"/>
<text text-anchor="middle" x="161" y="-67.5" font-family="Helvetica,sans-Serif" font-size="10.00">cstring</text>
</a>
</g>
</g>
<!-- Node1&#45;&gt;Node4 -->
<g id="edge3_Node000001_Node000004" class="edge">
<title>Node1&#45;&gt;Node4</title>
<g id="a_edge3_Node000001_Node000004"><a xlink:title=" ">
<path fill="none" stroke="#63b8ff" d="M313.88,-120.92C281.98,-112.8 233.81,-99.67 193,-85 191.61,-84.5 190.19,-83.97 188.77,-83.42"/>
<polygon fill="#63b8ff" stroke="#63b8ff" points="190.02,-80.15 179.44,-79.57 187.35,-86.62 190.02,-80.15"/>
</a>
</g>
</g>
<!-- Node5 -->
<g id="Node000005" class="node">
<title>Node5</title>
<g id="a_Node000005"><a xlink:title=" ">
<polygon fill="#e0e0e0" stroke="#999999" points="258,-79.5 202,-79.5 202,-60.5 258,-60.5 258,-79.5"/>
<text text-anchor="middle" x="230" y="-67.5" font-family="Helvetica,sans-Serif" font-size="10.00">algorithm</text>
</a>
</g>
</g>
<!-- Node1&#45;&gt;Node5 -->
<g id="edge4_Node000001_Node000005" class="edge">
<title>Node1&#45;&gt;Node5</title>
<g id="a_edge4_Node000001_Node000005"><a xlink:title=" ">
<path fill="none" stroke="#63b8ff" d="M331.7,-120.99C311.95,-111.29 279.45,-95.31 256.51,-84.03"/>
<polygon fill="#63b8ff" stroke="#63b8ff" points="257.84,-80.79 247.32,-79.52 254.75,-87.07 257.84,-80.79"/>
</a>
</g>
</g>
<!-- Node6 -->
<g id="Node000006" class="node">
<title>Node6</title>
<g id="a_Node000006"><a xlink:title=" ">
<polygon fill="#e0e0e0" stroke="#999999" points="320,-79.5 276,-79.5 276,-60.5 320,-60.5 320,-79.5"/>
<text text-anchor="middle" x="298" y="-67.5" font-family="Helvetica,sans-Serif" font-size="10.00">thread</text>
</a>
</g>
</g>
<!-- Node1&#45;&gt;Node6 -->
<g id="edge5_Node000001_Node000006" class="edge">
<title>Node1&#45;&gt;Node6</title>
<g id="a_edge5_Node000001_Node000006"><a xlink:title=" ">
<path fill="none" stroke="#63b8ff" d="M341.47,-120.87C333.79,-112.05 321.68,-98.16 312.19,-87.27"/>
<polygon fill="#63b8ff" stroke="#63b8ff" points="314.77,-84.91 305.56,-79.67 309.49,-89.51 314.77,-84.91"/>
</a>
</g>
</g>
<!-- Node7 -->
<g id="Node000007" class="node">
<title>Node7</title>
<g id="a_Node000007"><a xlink:href="FileSystem_8h.html" target="_top" xlink:title=" ">
<polygon fill="white" stroke="#666666" points="464,-85 338,-85 338,-55 464,-55 464,-85"/>
<text text-anchor="start" x="346" y="-73" font-family="Helvetica,sans-Serif" font-size="10.00">EverEngineCore/platform</text>
<text text-anchor="middle" x="401" y="-62" font-family="Helvetica,sans-Serif" font-size="10.00">/filesystem/FileSystem.h</text>
</a>
</g>
</g>
<!-- Node1&#45;&gt;Node7 -->
<g id="edge6_Node000001_Node000007" class="edge">
<title>Node1&#45;&gt;Node7</title>
<g id="a_edge6_Node000001_Node000007"><a xlink:title=" ">
<path fill="none" stroke="#63b8ff" d="M356.67,-120.87C363.27,-113.44 373.07,-102.42 381.78,-92.62"/>
<polygon fill="#63b8ff" stroke="#63b8ff" points="384.43,-94.91 388.45,-85.11 379.19,-90.26 384.43,-94.91"/>
</a>
</g>
</g>
<!-- Node12 -->
<g id="Node000012" class="node">
<title>Node12</title>
<g id="a_Node000012"><a xlink:title=" ">
<polygon fill="#e0e0e0" stroke="#999999" points="533.5,-79.5 482.5,-79.5 482.5,-60.5 533.5,-60.5 533.5,-79.5"/>
<text text-anchor="middle" x="508" y="-67.5" font-family="Helvetica,sans-Serif" font-size="10.00">unistd.h</text>
</a>
</g>
</g>
<!-- Node1&#45;&gt;Node12 -->
<g id="edge11_Node000001_Node000012" class="edge">
<title>Node1&#45;&gt;Node12</title>
<g id="a_edge11_Node000001_Node000012"><a xlink:title=" ">
<path fill="none" stroke="#63b8ff" d="M373.8,-120.9C398.9,-112.12 438.78,-97.98 473,-85 474.42,-84.46 475.86,-83.91 477.32,-83.35"/>
<polygon fill="#63b8ff" stroke="#63b8ff" points="478.92,-86.48 486.95,-79.56 476.36,-79.96 478.92,-86.48"/>
</a>
</g>
</g>
<!-- Node13 -->
<g id="Node000013" class="node">
<title>Node13</title>
<g id="a_Node000013"><a xlink:title=" ">
<polygon fill="#e0e0e0" stroke="#999999" points="612,-79.5 552,-79.5 552,-60.5 612,-60.5 612,-79.5"/>
<text text-anchor="middle" x="582" y="-67.5" font-family="Helvetica,sans-Serif" font-size="10.00">sys/stat.h</text>
</a>
</g>
</g>
<!-- Node1&#45;&gt;Node13 -->
<g id="edge12_Node000001_Node000013" class="edge">
<title>Node1&#45;&gt;Node13</title>
<g id="a_edge12_Node000001_Node000013"><a xlink:title=" ">
<path fill="none" stroke="#63b8ff" d="M391.76,-121.22C431.32,-113.2 491.6,-100.06 543,-85 545.27,-84.33 547.6,-83.61 549.94,-82.85"/>
<polygon fill="#63b8ff" stroke="#63b8ff" points="551.13,-86.14 559.47,-79.6 548.87,-79.52 551.13,-86.14"/>
</a>
</g>
</g>
<!-- Node14 -->
<g id="Node000014" class="node">
<title>Node14</title>
<g id="a_Node000014"><a xlink:title=" ">
<polygon fill="#e0e0e0" stroke="#999999" points="679.5,-79.5 630.5,-79.5 630.5,-60.5 679.5,-60.5 679.5,-79.5"/>
<text text-anchor="middle" x="655" y="-67.5" font-family="Helvetica,sans-Serif" font-size="10.00">dirent.h</text>
</a>
</g>
</g>
<!-- Node1&#45;&gt;Node14 -->
<g id="edge13_Node000001_Node000014" class="edge">
<title>Node1&#45;&gt;Node14</title>
<g id="a_edge13_Node000001_Node000014"><a xlink:title=" ">
<path fill="none" stroke="#63b8ff" d="M391.59,-125.57C445.7,-119.9 541.59,-107.52 621,-85 622.89,-84.46 624.81,-83.86 626.74,-83.2"/>
<polygon fill="#63b8ff" stroke="#63b8ff" points="628.09,-86.43 636.21,-79.63 625.62,-79.88 628.09,-86.43"/>
</a>
</g>
</g>
<!-- Node15 -->
<g id="Node000015" class="node">
<title>Node15</title>
<g id="a_Node000015"><a xlink:title=" ">
<polygon fill="#e0e0e0" stroke="#999999" points="748,-79.5 698,-79.5 698,-60.5 748,-60.5 748,-79.5"/>
<text text-anchor="middle" x="723" y="-67.5" font-family="Helvetica,sans-Serif" font-size="10.00">libgen.h</text>
</a>
</g>
</g>
<!-- Node1&#45;&gt;Node15 -->
<g id="edge14_Node000001_Node000015" class="edge">
<title>Node1&#45;&gt;Node15</title>
<g id="a_edge14_Node000001_Node000015"><a xlink:title=" ">
<path fill="none" stroke="#63b8ff" d="M391.56,-127.49C456.63,-123.62 584.31,-112.89 689,-85 690.94,-84.48 692.92,-83.88 694.9,-83.22"/>
<polygon fill="#63b8ff" stroke="#63b8ff" points="696.46,-86.38 704.6,-79.6 694,-79.82 696.46,-86.38"/>
</a>
</g>
</g>
<!-- Node8 -->
<g id="Node000008" class="node">
<title>Node8</title>
<g id="a_Node000008"><a xlink:title=" ">
<polygon fill="#e0e0e0" stroke="#999999" points="325.5,-19 284.5,-19 284.5,0 325.5,0 325.5,-19"/>
<text text-anchor="middle" x="305" y="-7" font-family="Helvetica,sans-Serif" font-size="10.00">string</text>
</a>
</g>
</g>
<!-- Node7&#45;&gt;Node8 -->
<g id="edge7_Node000007_Node000008" class="edge">
<title>Node7&#45;&gt;Node8</title>
<g id="a_edge7_Node000007_Node000008"><a xlink:title=" ">
<path fill="none" stroke="#63b8ff" d="M377.76,-54.84C362.6,-45.6 342.89,-33.59 327.81,-24.4"/>
<polygon fill="#63b8ff" stroke="#63b8ff" points="329.46,-21.31 319.1,-19.09 325.82,-27.29 329.46,-21.31"/>
</a>
</g>
</g>
<!-- Node9 -->
<g id="Node000009" class="node">
<title>Node9</title>
<g id="a_Node000009"><a xlink:title=" ">
<polygon fill="#e0e0e0" stroke="#999999" points="388,-19 344,-19 344,0 388,0 388,-19"/>
<text text-anchor="middle" x="366" y="-7" font-family="Helvetica,sans-Serif" font-size="10.00">vector</text>
</a>
</g>
</g>
<!-- Node7&#45;&gt;Node9 -->
<g id="edge8_Node000007_Node000009" class="edge">
<title>Node7&#45;&gt;Node9</title>
<g id="a_edge8_Node000007_Node000009"><a xlink:title=" ">
<path fill="none" stroke="#63b8ff" d="M392.53,-54.84C387.71,-46.78 381.63,-36.62 376.5,-28.06"/>
<polygon fill="#63b8ff" stroke="#63b8ff" points="379.38,-26.05 371.24,-19.27 373.38,-29.64 379.38,-26.05"/>
</a>
</g>
</g>
<!-- Node10 -->
<g id="Node000010" class="node">
<title>Node10</title>
<g id="a_Node000010"><a xlink:title=" ">
<polygon fill="#e0e0e0" stroke="#999999" points="465.5,-19 406.5,-19 406.5,0 465.5,0 465.5,-19"/>
<text text-anchor="middle" x="436" y="-7" font-family="Helvetica,sans-Serif" font-size="10.00">functional</text>
</a>
</g>
</g>
<!-- Node7&#45;&gt;Node10 -->
<g id="edge9_Node000007_Node000010" class="edge">
<title>Node7&#45;&gt;Node10</title>
<g id="a_edge9_Node000007_Node000010"><a xlink:title=" ">
<path fill="none" stroke="#63b8ff" d="M409.47,-54.84C414.29,-46.78 420.37,-36.62 425.5,-28.06"/>
<polygon fill="#63b8ff" stroke="#63b8ff" points="428.62,-29.64 430.76,-19.27 422.62,-26.05 428.62,-29.64"/>
</a>
</g>
</g>
<!-- Node11 -->
<g id="Node000011" class="node">
<title>Node11</title>
<g id="a_Node000011"><a xlink:title=" ">
<polygon fill="#e0e0e0" stroke="#999999" points="530,-19 484,-19 484,0 530,0 530,-19"/>
<text text-anchor="middle" x="507" y="-7" font-family="Helvetica,sans-Serif" font-size="10.00">cstdint</text>
</a>
</g>
</g>
<!-- Node7&#45;&gt;Node11 -->
<g id="edge10_Node000007_Node000011" class="edge">
<title>Node7&#45;&gt;Node11</title>
<g id="a_edge10_Node000007_Node000011"><a xlink:title=" ">
<path fill="none" stroke="#63b8ff" d="M426.39,-54.99C443.29,-45.66 465.38,-33.47 482.16,-24.21"/>
<polygon fill="#63b8ff" stroke="#63b8ff" points="484.28,-27.04 491.35,-19.14 480.9,-20.91 484.28,-27.04"/>
</a>
</g>
</g>
</g>
</svg>
