<?xml version="1.0" encoding="UTF-8" standalone="no"?>
<!DOCTYPE svg PUBLIC "-//W3C//DTD SVG 1.1//EN"
 "http://www.w3.org/Graphics/SVG/1.1/DTD/svg11.dtd">
<!-- Generated by graphviz version 2.43.0 (0)
 -->
<!-- Title: Графічна ієрархія класів Pages: 1 -->
<svg width="217pt" height="175pt"
 viewBox="0.00 0.00 217.00 175.00" xmlns="http://www.w3.org/2000/svg" xmlns:xlink="http://www.w3.org/1999/xlink">
<g id="graph0" class="graph" transform="scale(1 1) rotate(0) translate(4 171)">
<title>Графічна ієрархія класів</title>
<!-- Node0 -->
<g id="Node000000" class="node">
<title>Node0</title>
<g id="a_Node000000"><a xlink:href="structBaseEvent.html" target="_top" xlink:title="Базова структура для всіх подій">
<polygon fill="white" stroke="#666666" points="65,-93 0,-93 0,-74 65,-74 65,-93"/>
<text text-anchor="middle" x="32.5" y="-81" font-family="Helvetica,sans-Serif" font-size="10.00">BaseEvent</text>
</a>
</g>
</g>
<!-- Node1 -->
<g id="Node000001" class="node">
<title>Node1</title>
<g id="a_Node000001"><a xlink:href="structEventKeyPressed.html" target="_top" xlink:title="Подія натискання клавіші">
<polygon fill="white" stroke="#666666" points="202.5,-167 107.5,-167 107.5,-148 202.5,-148 202.5,-167"/>
<text text-anchor="middle" x="155" y="-155" font-family="Helvetica,sans-Serif" font-size="10.00">EventKeyPressed</text>
</a>
</g>
</g>
<!-- Node0&#45;&gt;Node1 -->
<g id="edge1_Node000000_Node000001" class="edge">
<title>Node0&#45;&gt;Node1</title>
<g id="a_edge1_Node000000_Node000001"><a xlink:title=" ">
<path fill="none" stroke="#63b8ff" d="M49.94,-100.11C62.87,-112.39 81.85,-128.79 101,-139.5 106.85,-142.77 113.4,-145.59 119.84,-147.96"/>
<polygon fill="#63b8ff" stroke="#63b8ff" points="52.33,-97.55 42.72,-93.08 47.44,-102.56 52.33,-97.55"/>
</a>
</g>
</g>
<!-- Node2 -->
<g id="Node000002" class="node">
<title>Node2</title>
<g id="a_Node000002"><a xlink:href="structEventKeyReleased.html" target="_top" xlink:title="Подія відпускання клавіші">
<polygon fill="white" stroke="#666666" points="205.5,-130 104.5,-130 104.5,-111 205.5,-111 205.5,-130"/>
<text text-anchor="middle" x="155" y="-118" font-family="Helvetica,sans-Serif" font-size="10.00">EventKeyReleased</text>
</a>
</g>
</g>
<!-- Node0&#45;&gt;Node2 -->
<g id="edge2_Node000000_Node000002" class="edge">
<title>Node0&#45;&gt;Node2</title>
<g id="a_edge2_Node000000_Node000002"><a xlink:title=" ">
<path fill="none" stroke="#63b8ff" d="M74.54,-96.1C90.28,-100.93 107.97,-106.37 122.65,-110.88"/>
<polygon fill="#63b8ff" stroke="#63b8ff" points="75.12,-92.62 64.53,-93.03 73.06,-99.31 75.12,-92.62"/>
</a>
</g>
</g>
<!-- Node3 -->
<g id="Node000003" class="node">
<title>Node3</title>
<g id="a_Node000003"><a xlink:href="structEventMouseMoved.html" target="_top" xlink:title="Подія руху миші">
<polygon fill="white" stroke="#666666" points="205.5,-93 104.5,-93 104.5,-74 205.5,-74 205.5,-93"/>
<text text-anchor="middle" x="155" y="-81" font-family="Helvetica,sans-Serif" font-size="10.00">EventMouseMoved</text>
</a>
</g>
</g>
<!-- Node0&#45;&gt;Node3 -->
<g id="edge3_Node000000_Node000003" class="edge">
<title>Node0&#45;&gt;Node3</title>
<g id="a_edge3_Node000000_Node000003"><a xlink:title=" ">
<path fill="none" stroke="#63b8ff" d="M75.39,-83.5C84.74,-83.5 94.74,-83.5 104.37,-83.5"/>
<polygon fill="#63b8ff" stroke="#63b8ff" points="75.16,-80 65.16,-83.5 75.16,-87 75.16,-80"/>
</a>
</g>
</g>
<!-- Node4 -->
<g id="Node000004" class="node">
<title>Node4</title>
<g id="a_Node000004"><a xlink:href="structEventWindowClose.html" target="_top" xlink:title="Подія закриття вікна">
<polygon fill="white" stroke="#666666" points="206.5,-56 103.5,-56 103.5,-37 206.5,-37 206.5,-56"/>
<text text-anchor="middle" x="155" y="-44" font-family="Helvetica,sans-Serif" font-size="10.00">EventWindowClose</text>
</a>
</g>
</g>
<!-- Node0&#45;&gt;Node4 -->
<g id="edge4_Node000000_Node000004" class="edge">
<title>Node0&#45;&gt;Node4</title>
<g id="a_edge4_Node000000_Node000004"><a xlink:title=" ">
<path fill="none" stroke="#63b8ff" d="M74.54,-70.9C90.28,-66.07 107.97,-60.63 122.65,-56.12"/>
<polygon fill="#63b8ff" stroke="#63b8ff" points="73.06,-67.69 64.53,-73.97 75.12,-74.38 73.06,-67.69"/>
</a>
</g>
</g>
<!-- Node5 -->
<g id="Node000005" class="node">
<title>Node5</title>
<g id="a_Node000005"><a xlink:href="structEventWindowResize.html" target="_top" xlink:title="Подія зміни розміру вікна">
<polygon fill="white" stroke="#666666" points="209,-19 101,-19 101,0 209,0 209,-19"/>
<text text-anchor="middle" x="155" y="-7" font-family="Helvetica,sans-Serif" font-size="10.00">EventWindowResize</text>
</a>
</g>
</g>
<!-- Node0&#45;&gt;Node5 -->
<g id="edge5_Node000000_Node000005" class="edge">
<title>Node0&#45;&gt;Node5</title>
<g id="a_edge5_Node000000_Node000005"><a xlink:title=" ">
<path fill="none" stroke="#63b8ff" d="M50.5,-66.88C63.47,-54.92 82.25,-39.09 101,-28.5 107.47,-24.85 114.77,-21.69 121.83,-19.05"/>
<polygon fill="#63b8ff" stroke="#63b8ff" points="48.09,-64.34 43.22,-73.75 52.89,-69.43 48.09,-64.34"/>
</a>
</g>
</g>
</g>
</svg>
