<?xml version="1.0" encoding="UTF-8" standalone="no"?>
<!DOCTYPE svg PUBLIC "-//W3C//DTD SVG 1.1//EN"
 "http://www.w3.org/Graphics/SVG/1.1/DTD/svg11.dtd">
<!-- Generated by graphviz version 2.43.0 (0)
 -->
<!-- Title: Input.h Pages: 1 -->
<svg width="524pt" height="159pt"
 viewBox="0.00 0.00 524.00 159.00" xmlns="http://www.w3.org/2000/svg" xmlns:xlink="http://www.w3.org/1999/xlink">
<g id="graph0" class="graph" transform="scale(1 1) rotate(0) translate(4 155)">
<title>Input.h</title>
<!-- Node1 -->
<g id="Node000001" class="node">
<title>Node1</title>
<g id="a_Node000001"><a xlink:title=" ">
<polygon fill="#999999" stroke="#666666" points="246.5,-151 199.5,-151 199.5,-132 246.5,-132 246.5,-151"/>
<text text-anchor="middle" x="223" y="-139" font-family="Helvetica,sans-Serif" font-size="10.00">Input.h</text>
</a>
</g>
</g>
<!-- Node2 -->
<g id="Node000002" class="node">
<title>Node2</title>
<g id="a_Node000002"><a xlink:href="Keyboard_8h.html" target="_top" xlink:title=" ">
<polygon fill="white" stroke="#666666" points="126,-30 0,-30 0,0 126,0 126,-30"/>
<text text-anchor="start" x="8" y="-18" font-family="Helvetica,sans-Serif" font-size="10.00">EverEngineCore/platform</text>
<text text-anchor="middle" x="63" y="-7" font-family="Helvetica,sans-Serif" font-size="10.00">/Keyboard.h</text>
</a>
</g>
</g>
<!-- Node1&#45;&gt;Node2 -->
<g id="edge1_Node000001_Node000002" class="edge">
<title>Node1&#45;&gt;Node2</title>
<g id="a_edge1_Node000001_Node000002"><a xlink:title=" ">
<path fill="none" stroke="#63b8ff" d="M212,-131.94C186.9,-112.41 124.82,-64.11 89.22,-36.4"/>
<polygon fill="#63b8ff" stroke="#63b8ff" points="91.24,-33.54 81.2,-30.16 86.94,-39.06 91.24,-33.54"/>
</a>
</g>
</g>
<!-- Node3 -->
<g id="Node000003" class="node">
<title>Node3</title>
<g id="a_Node000003"><a xlink:href="Event_8h.html" target="_top" xlink:title=" ">
<polygon fill="white" stroke="#666666" points="361,-96 251,-96 251,-66 361,-66 361,-96"/>
<text text-anchor="start" x="259" y="-84" font-family="Helvetica,sans-Serif" font-size="10.00">EverEngineCore/core</text>
<text text-anchor="middle" x="306" y="-73" font-family="Helvetica,sans-Serif" font-size="10.00">/Event.h</text>
</a>
</g>
</g>
<!-- Node1&#45;&gt;Node3 -->
<g id="edge2_Node000001_Node000003" class="edge">
<title>Node1&#45;&gt;Node3</title>
<g id="a_edge2_Node000001_Node000003"><a xlink:title=" ">
<path fill="none" stroke="#63b8ff" d="M235.25,-131.87C246.4,-124 263.3,-112.09 277.79,-101.89"/>
<polygon fill="#63b8ff" stroke="#63b8ff" points="279.82,-104.74 285.97,-96.11 275.78,-99.01 279.82,-104.74"/>
</a>
</g>
</g>
<!-- Node4 -->
<g id="Node000004" class="node">
<title>Node4</title>
<g id="a_Node000004"><a xlink:title=" ">
<polygon fill="#e0e0e0" stroke="#999999" points="203.5,-24.5 144.5,-24.5 144.5,-5.5 203.5,-5.5 203.5,-24.5"/>
<text text-anchor="middle" x="174" y="-12.5" font-family="Helvetica,sans-Serif" font-size="10.00">functional</text>
</a>
</g>
</g>
<!-- Node1&#45;&gt;Node4 -->
<g id="edge11_Node000001_Node000004" class="edge">
<title>Node1&#45;&gt;Node4</title>
<g id="a_edge11_Node000001_Node000004"><a xlink:title=" ">
<path fill="none" stroke="#63b8ff" d="M219.63,-131.94C211.73,-111.86 191.86,-61.37 181.13,-34.12"/>
<polygon fill="#63b8ff" stroke="#63b8ff" points="184.31,-32.64 177.39,-24.62 177.8,-35.2 184.31,-32.64"/>
</a>
</g>
</g>
<!-- Node5 -->
<g id="Node000005" class="node">
<title>Node5</title>
<g id="a_Node000005"><a xlink:title=" ">
<polygon fill="#e0e0e0" stroke="#999999" points="266,-24.5 222,-24.5 222,-5.5 266,-5.5 266,-24.5"/>
<text text-anchor="middle" x="244" y="-12.5" font-family="Helvetica,sans-Serif" font-size="10.00">vector</text>
</a>
</g>
</g>
<!-- Node1&#45;&gt;Node5 -->
<g id="edge12_Node000001_Node000005" class="edge">
<title>Node1&#45;&gt;Node5</title>
<g id="a_edge12_Node000001_Node000005"><a xlink:title=" ">
<path fill="none" stroke="#63b8ff" d="M224.44,-131.94C227.82,-111.95 236.27,-61.82 240.88,-34.48"/>
<polygon fill="#63b8ff" stroke="#63b8ff" points="244.33,-35.06 242.55,-24.62 237.43,-33.9 244.33,-35.06"/>
</a>
</g>
</g>
<!-- Node6 -->
<g id="Node000006" class="node">
<title>Node6</title>
<g id="a_Node000006"><a xlink:title=" ">
<polygon fill="#e0e0e0" stroke="#999999" points="516,-24.5 478,-24.5 478,-5.5 516,-5.5 516,-24.5"/>
<text text-anchor="middle" x="497" y="-12.5" font-family="Helvetica,sans-Serif" font-size="10.00">array</text>
</a>
</g>
</g>
<!-- Node1&#45;&gt;Node6 -->
<g id="edge10_Node000001_Node000006" class="edge">
<title>Node1&#45;&gt;Node6</title>
<g id="a_edge10_Node000001_Node000006"><a xlink:title=" ">
<path fill="none" stroke="#63b8ff" d="M246.62,-135.42C276.26,-128.58 328.27,-115.04 370,-96 410.36,-77.58 453.21,-48.28 477.38,-30.72"/>
<polygon fill="#63b8ff" stroke="#63b8ff" points="479.71,-33.35 485.69,-24.61 475.56,-27.71 479.71,-33.35"/>
</a>
</g>
</g>
<!-- Node3&#45;&gt;Node2 -->
<g id="edge3_Node000003_Node000002" class="edge">
<title>Node3&#45;&gt;Node2</title>
<g id="a_edge3_Node000003_Node000002"><a xlink:title=" ">
<path fill="none" stroke="#63b8ff" d="M252.67,-65.95C215.32,-56.12 165.26,-42.93 125.95,-32.58"/>
<polygon fill="#63b8ff" stroke="#63b8ff" points="126.76,-29.17 116.2,-30.01 124.98,-35.94 126.76,-29.17"/>
</a>
</g>
</g>
<!-- Node3&#45;&gt;Node4 -->
<g id="edge4_Node000003_Node000004" class="edge">
<title>Node3&#45;&gt;Node4</title>
<g id="a_edge4_Node000003_Node000004"><a xlink:title=" ">
<path fill="none" stroke="#63b8ff" d="M277.03,-65.95C254.29,-54.93 222.88,-39.7 200.73,-28.96"/>
<polygon fill="#63b8ff" stroke="#63b8ff" points="202.09,-25.73 191.57,-24.52 199.04,-32.03 202.09,-25.73"/>
</a>
</g>
</g>
<!-- Node3&#45;&gt;Node5 -->
<g id="edge5_Node000003_Node000005" class="edge">
<title>Node3&#45;&gt;Node5</title>
<g id="a_edge5_Node000003_Node000005"><a xlink:title=" ">
<path fill="none" stroke="#63b8ff" d="M292.24,-65.8C282.57,-55.82 269.63,-42.46 259.58,-32.09"/>
<polygon fill="#63b8ff" stroke="#63b8ff" points="262.04,-29.59 252.57,-24.84 257.01,-34.46 262.04,-29.59"/>
</a>
</g>
</g>
<!-- Node3&#45;&gt;Node6 -->
<g id="edge6_Node000003_Node000006" class="edge">
<title>Node3&#45;&gt;Node6</title>
<g id="a_edge6_Node000003_Node000006"><a xlink:title=" ">
<path fill="none" stroke="#63b8ff" d="M359.63,-65.98C391.8,-56.97 433.27,-44.3 469,-30 469.86,-29.66 470.73,-29.29 471.61,-28.92"/>
<polygon fill="#63b8ff" stroke="#63b8ff" points="473.32,-31.99 480.92,-24.61 470.38,-25.63 473.32,-31.99"/>
</a>
</g>
</g>
<!-- Node7 -->
<g id="Node000007" class="node">
<title>Node7</title>
<g id="a_Node000007"><a xlink:title=" ">
<polygon fill="#e0e0e0" stroke="#999999" points="327.5,-24.5 284.5,-24.5 284.5,-5.5 327.5,-5.5 327.5,-24.5"/>
<text text-anchor="middle" x="306" y="-12.5" font-family="Helvetica,sans-Serif" font-size="10.00">queue</text>
</a>
</g>
</g>
<!-- Node3&#45;&gt;Node7 -->
<g id="edge7_Node000003_Node000007" class="edge">
<title>Node3&#45;&gt;Node7</title>
<g id="a_edge7_Node000003_Node000007"><a xlink:title=" ">
<path fill="none" stroke="#63b8ff" d="M306,-65.8C306,-56.7 306,-44.79 306,-34.9"/>
<polygon fill="#63b8ff" stroke="#63b8ff" points="309.5,-34.84 306,-24.84 302.5,-34.84 309.5,-34.84"/>
</a>
</g>
</g>
<!-- Node8 -->
<g id="Node000008" class="node">
<title>Node8</title>
<g id="a_Node000008"><a xlink:title=" ">
<polygon fill="#e0e0e0" stroke="#999999" points="390,-24.5 346,-24.5 346,-5.5 390,-5.5 390,-24.5"/>
<text text-anchor="middle" x="368" y="-12.5" font-family="Helvetica,sans-Serif" font-size="10.00">mutex</text>
</a>
</g>
</g>
<!-- Node3&#45;&gt;Node8 -->
<g id="edge8_Node000003_Node000008" class="edge">
<title>Node3&#45;&gt;Node8</title>
<g id="a_edge8_Node000003_Node000008"><a xlink:title=" ">
<path fill="none" stroke="#63b8ff" d="M319.76,-65.8C329.43,-55.82 342.37,-42.46 352.42,-32.09"/>
<polygon fill="#63b8ff" stroke="#63b8ff" points="354.99,-34.46 359.43,-24.84 349.96,-29.59 354.99,-34.46"/>
</a>
</g>
</g>
<!-- Node9 -->
<g id="Node000009" class="node">
<title>Node9</title>
<g id="a_Node000009"><a xlink:title=" ">
<polygon fill="#e0e0e0" stroke="#999999" points="460,-24.5 408,-24.5 408,-5.5 460,-5.5 460,-24.5"/>
<text text-anchor="middle" x="434" y="-12.5" font-family="Helvetica,sans-Serif" font-size="10.00">memory</text>
</a>
</g>
</g>
<!-- Node3&#45;&gt;Node9 -->
<g id="edge9_Node000003_Node000009" class="edge">
<title>Node3&#45;&gt;Node9</title>
<g id="a_edge9_Node000003_Node000009"><a xlink:title=" ">
<path fill="none" stroke="#63b8ff" d="M334.09,-65.95C356.04,-54.98 386.33,-39.83 407.79,-29.11"/>
<polygon fill="#63b8ff" stroke="#63b8ff" points="409.59,-32.12 416.97,-24.52 406.46,-25.86 409.59,-32.12"/>
</a>
</g>
</g>
</g>
</svg>
