<?xml version="1.0" encoding="UTF-8" standalone="no"?>
<!DOCTYPE svg PUBLIC "-//W3C//DTD SVG 1.1//EN"
 "http://www.w3.org/Graphics/SVG/1.1/DTD/svg11.dtd">
<!-- Generated by graphviz version 2.43.0 (0)
 -->
<!-- Title: Keyboard.h Pages: 1 -->
<svg width="257pt" height="247pt"
 viewBox="0.00 0.00 257.00 247.00" xmlns="http://www.w3.org/2000/svg" xmlns:xlink="http://www.w3.org/1999/xlink">
<g id="graph0" class="graph" transform="scale(1 1) rotate(0) translate(4 243)">
<title>Keyboard.h</title>
<!-- Node1 -->
<g id="Node000001" class="node">
<title>Node1</title>
<g id="a_Node000001"><a xlink:title=" ">
<polygon fill="#999999" stroke="#666666" points="184.5,-239 118.5,-239 118.5,-220 184.5,-220 184.5,-239"/>
<text text-anchor="middle" x="151.5" y="-227" font-family="Helvetica,sans-Serif" font-size="10.00">Keyboard.h</text>
</a>
</g>
</g>
<!-- Node2 -->
<g id="Node000002" class="node">
<title>Node2</title>
<g id="a_Node000002"><a xlink:href="Event_8h.html" target="_top" xlink:title=" ">
<polygon fill="white" stroke="#666666" points="176.5,-184 126.5,-184 126.5,-165 176.5,-165 176.5,-184"/>
<text text-anchor="middle" x="151.5" y="-172" font-family="Helvetica,sans-Serif" font-size="10.00">Event.h</text>
</a>
</g>
</g>
<!-- Node1&#45;&gt;Node2 -->
<g id="edge1_Node000001_Node000002" class="edge">
<title>Node1&#45;&gt;Node2</title>
<g id="a_edge1_Node000001_Node000002"><a xlink:title=" ">
<path fill="none" stroke="#63b8ff" d="M151.5,-209.66C151.5,-200.93 151.5,-190.99 151.5,-184.09"/>
<polygon fill="#63b8ff" stroke="#63b8ff" points="148,-209.75 151.5,-219.75 155,-209.75 148,-209.75"/>
</a>
</g>
</g>
<!-- Node5 -->
<g id="Node000005" class="node">
<title>Node5</title>
<g id="a_Node000005"><a xlink:href="Input_8h.html" target="_top" xlink:title=" ">
<polygon fill="white" stroke="#666666" points="95,-129 48,-129 48,-110 95,-110 95,-129"/>
<text text-anchor="middle" x="71.5" y="-117" font-family="Helvetica,sans-Serif" font-size="10.00">Input.h</text>
</a>
</g>
</g>
<!-- Node1&#45;&gt;Node5 -->
<g id="edge11_Node000001_Node000005" class="edge">
<title>Node1&#45;&gt;Node5</title>
<g id="a_edge11_Node000001_Node000005"><a xlink:title=" ">
<path fill="none" stroke="#63b8ff" d="M138.4,-211.57C132.04,-203.29 124.32,-193.17 117.5,-184 103.04,-164.56 86.45,-141.45 77.68,-129.18"/>
<polygon fill="#63b8ff" stroke="#63b8ff" points="135.78,-213.9 144.66,-219.69 141.33,-209.63 135.78,-213.9"/>
</a>
</g>
</g>
<!-- Node8 -->
<g id="Node000008" class="node">
<title>Node8</title>
<g id="a_Node000008"><a xlink:href="Window_8h.html" target="_top" xlink:title=" ">
<polygon fill="white" stroke="#666666" points="249,-129 190,-129 190,-110 249,-110 249,-129"/>
<text text-anchor="middle" x="219.5" y="-117" font-family="Helvetica,sans-Serif" font-size="10.00">Window.h</text>
</a>
</g>
</g>
<!-- Node1&#45;&gt;Node8 -->
<g id="edge12_Node000001_Node000008" class="edge">
<title>Node1&#45;&gt;Node8</title>
<g id="a_edge12_Node000001_Node000008"><a xlink:title=" ">
<path fill="none" stroke="#63b8ff" d="M165.16,-211.95C171.65,-203.77 179.32,-193.61 185.5,-184 197.55,-165.28 209.28,-141.9 215.31,-129.38"/>
<polygon fill="#63b8ff" stroke="#63b8ff" points="162.27,-209.96 158.71,-219.94 167.71,-214.36 162.27,-209.96"/>
</a>
</g>
</g>
<!-- Node3 -->
<g id="Node000003" class="node">
<title>Node3</title>
<g id="a_Node000003"><a xlink:href="Engine_8h.html" target="_top" xlink:title=" ">
<polygon fill="white" stroke="#666666" points="130,-74 75,-74 75,-55 130,-55 130,-74"/>
<text text-anchor="middle" x="102.5" y="-62" font-family="Helvetica,sans-Serif" font-size="10.00">Engine.h</text>
</a>
</g>
</g>
<!-- Node2&#45;&gt;Node3 -->
<g id="edge2_Node000002_Node000003" class="edge">
<title>Node2&#45;&gt;Node3</title>
<g id="a_edge2_Node000002_Node000003"><a xlink:title=" ">
<path fill="none" stroke="#63b8ff" d="M143.31,-155.44C132.64,-131.92 114.4,-91.73 106.43,-74.16"/>
<polygon fill="#63b8ff" stroke="#63b8ff" points="140.17,-157 147.49,-164.66 146.55,-154.11 140.17,-157"/>
</a>
</g>
</g>
<!-- Node2&#45;&gt;Node5 -->
<g id="edge4_Node000002_Node000005" class="edge">
<title>Node2&#45;&gt;Node5</title>
<g id="a_edge4_Node000002_Node000005"><a xlink:title=" ">
<path fill="none" stroke="#63b8ff" d="M130.25,-159.42C115.74,-149.81 96.96,-137.37 84.59,-129.17"/>
<polygon fill="#63b8ff" stroke="#63b8ff" points="128.38,-162.38 138.65,-164.98 132.24,-156.54 128.38,-162.38"/>
</a>
</g>
</g>
<!-- Node7 -->
<g id="Node000007" class="node">
<title>Node7</title>
<g id="a_Node000007"><a xlink:href="Window_8cpp.html" target="_top" xlink:title=" ">
<polygon fill="white" stroke="#666666" points="217,-74 148,-74 148,-55 217,-55 217,-74"/>
<text text-anchor="middle" x="182.5" y="-62" font-family="Helvetica,sans-Serif" font-size="10.00">Window.cpp</text>
</a>
</g>
</g>
<!-- Node2&#45;&gt;Node7 -->
<g id="edge7_Node000002_Node000007" class="edge">
<title>Node2&#45;&gt;Node7</title>
<g id="a_edge7_Node000002_Node000007"><a xlink:title=" ">
<path fill="none" stroke="#63b8ff" d="M156.87,-154.8C163.64,-131.2 175.01,-91.58 180.01,-74.16"/>
<polygon fill="#63b8ff" stroke="#63b8ff" points="153.43,-154.08 154.04,-164.66 160.16,-156.02 153.43,-154.08"/>
</a>
</g>
</g>
<!-- Node2&#45;&gt;Node8 -->
<g id="edge8_Node000002_Node000008" class="edge">
<title>Node2&#45;&gt;Node8</title>
<g id="a_edge8_Node000002_Node000008"><a xlink:title=" ">
<path fill="none" stroke="#63b8ff" d="M170.62,-158.6C182.8,-149.11 198.16,-137.13 208.38,-129.17"/>
<polygon fill="#63b8ff" stroke="#63b8ff" points="168.16,-156.08 162.43,-164.98 172.46,-161.6 168.16,-156.08"/>
</a>
</g>
</g>
<!-- Node4 -->
<g id="Node000004" class="node">
<title>Node4</title>
<g id="a_Node000004"><a xlink:href="Engine_8cpp.html" target="_top" xlink:title=" ">
<polygon fill="white" stroke="#666666" points="206,-19 141,-19 141,0 206,0 206,-19"/>
<text text-anchor="middle" x="173.5" y="-7" font-family="Helvetica,sans-Serif" font-size="10.00">Engine.cpp</text>
</a>
</g>
</g>
<!-- Node3&#45;&gt;Node4 -->
<g id="edge3_Node000003_Node000004" class="edge">
<title>Node3&#45;&gt;Node4</title>
<g id="a_edge3_Node000003_Node000004"><a xlink:title=" ">
<path fill="none" stroke="#63b8ff" d="M122.09,-48.88C134.87,-39.34 151.11,-27.21 161.89,-19.17"/>
<polygon fill="#63b8ff" stroke="#63b8ff" points="119.83,-46.2 113.91,-54.98 124.01,-51.81 119.83,-46.2"/>
</a>
</g>
</g>
<!-- Node5&#45;&gt;Node3 -->
<g id="edge5_Node000005_Node000003" class="edge">
<title>Node5&#45;&gt;Node3</title>
<g id="a_edge5_Node000005_Node000003"><a xlink:title=" ">
<path fill="none" stroke="#63b8ff" d="M81.68,-101.1C86.97,-92.04 93.22,-81.37 97.48,-74.09"/>
<polygon fill="#63b8ff" stroke="#63b8ff" points="78.65,-99.35 76.62,-109.75 84.69,-102.88 78.65,-99.35"/>
</a>
</g>
</g>
<!-- Node6 -->
<g id="Node000006" class="node">
<title>Node6</title>
<g id="a_Node000006"><a xlink:href="Input_8cpp.html" target="_top" xlink:title=" ">
<polygon fill="white" stroke="#666666" points="57,-74 0,-74 0,-55 57,-55 57,-74"/>
<text text-anchor="middle" x="28.5" y="-62" font-family="Helvetica,sans-Serif" font-size="10.00">Input.cpp</text>
</a>
</g>
</g>
<!-- Node5&#45;&gt;Node6 -->
<g id="edge6_Node000005_Node000006" class="edge">
<title>Node5&#45;&gt;Node6</title>
<g id="a_edge6_Node000005_Node000006"><a xlink:title=" ">
<path fill="none" stroke="#63b8ff" d="M58.08,-101.96C50.59,-92.72 41.56,-81.6 35.47,-74.09"/>
<polygon fill="#63b8ff" stroke="#63b8ff" points="55.38,-104.19 64.4,-109.75 60.82,-99.78 55.38,-104.19"/>
</a>
</g>
</g>
<!-- Node8&#45;&gt;Node4 -->
<g id="edge9_Node000008_Node000004" class="edge">
<title>Node8&#45;&gt;Node4</title>
<g id="a_edge9_Node000008_Node000004"><a xlink:title=" ">
<path fill="none" stroke="#63b8ff" d="M226.5,-100.05C230.33,-86.9 233.09,-69.14 226.5,-55 219.04,-38.99 202.67,-26.7 190.08,-19.13"/>
<polygon fill="#63b8ff" stroke="#63b8ff" points="223.08,-99.22 223.21,-109.82 229.72,-101.45 223.08,-99.22"/>
</a>
</g>
</g>
<!-- Node8&#45;&gt;Node7 -->
<g id="edge10_Node000008_Node000007" class="edge">
<title>Node8&#45;&gt;Node7</title>
<g id="a_edge10_Node000008_Node000007"><a xlink:title=" ">
<path fill="none" stroke="#63b8ff" d="M207.55,-101.39C201.19,-92.27 193.63,-81.45 188.5,-74.09"/>
<polygon fill="#63b8ff" stroke="#63b8ff" points="204.8,-103.55 213.39,-109.75 210.54,-99.55 204.8,-103.55"/>
</a>
</g>
</g>
</g>
</svg>
