<?xml version="1.0" encoding="UTF-8" standalone="no"?>
<!DOCTYPE svg PUBLIC "-//W3C//DTD SVG 1.1//EN"
 "http://www.w3.org/Graphics/SVG/1.1/DTD/svg11.dtd">
<!-- Generated by graphviz version 2.43.0 (0)
 -->
<!-- Title: BaseEvent Pages: 1 -->
<svg width="589pt" height="82pt"
 viewBox="0.00 0.00 588.50 82.00" xmlns="http://www.w3.org/2000/svg" xmlns:xlink="http://www.w3.org/1999/xlink">
<g id="graph0" class="graph" transform="scale(1 1) rotate(0) translate(4 78)">
<title>BaseEvent</title>
<!-- Node1 -->
<g id="Node000001" class="node">
<title>Node1</title>
<g id="a_Node000001"><a xlink:title="Базова структура для всіх подій">
<polygon fill="#999999" stroke="#666666" points="315,-74 250,-74 250,-55 315,-55 315,-74"/>
<text text-anchor="middle" x="282.5" y="-62" font-family="Helvetica,sans-Serif" font-size="10.00">BaseEvent</text>
</a>
</g>
</g>
<!-- Node2 -->
<g id="Node000002" class="node">
<title>Node2</title>
<g id="a_Node000002"><a xlink:href="structEventKeyPressed.html" target="_top" xlink:title="Подія натискання клавіші">
<polygon fill="white" stroke="#666666" points="95,-19 0,-19 0,0 95,0 95,-19"/>
<text text-anchor="middle" x="47.5" y="-7" font-family="Helvetica,sans-Serif" font-size="10.00">EventKeyPressed</text>
</a>
</g>
</g>
<!-- Node1&#45;&gt;Node2 -->
<g id="edge1_Node000001_Node000002" class="edge">
<title>Node1&#45;&gt;Node2</title>
<g id="a_edge1_Node000001_Node000002"><a xlink:title=" ">
<path fill="none" stroke="#63b8ff" d="M239.99,-53.91C195.9,-43.97 127.62,-28.57 85.34,-19.03"/>
<polygon fill="#63b8ff" stroke="#63b8ff" points="239.3,-57.34 249.82,-56.13 240.84,-50.52 239.3,-57.34"/>
</a>
</g>
</g>
<!-- Node3 -->
<g id="Node000003" class="node">
<title>Node3</title>
<g id="a_Node000003"><a xlink:href="structEventKeyReleased.html" target="_top" xlink:title="Подія відпускання клавіші">
<polygon fill="white" stroke="#666666" points="214,-19 113,-19 113,0 214,0 214,-19"/>
<text text-anchor="middle" x="163.5" y="-7" font-family="Helvetica,sans-Serif" font-size="10.00">EventKeyReleased</text>
</a>
</g>
</g>
<!-- Node1&#45;&gt;Node3 -->
<g id="edge2_Node000001_Node000003" class="edge">
<title>Node1&#45;&gt;Node3</title>
<g id="a_edge2_Node000001_Node000003"><a xlink:title=" ">
<path fill="none" stroke="#63b8ff" d="M254.2,-50.9C232.22,-41.11 202.32,-27.79 182.97,-19.17"/>
<polygon fill="#63b8ff" stroke="#63b8ff" points="252.82,-54.11 263.38,-54.98 255.67,-47.72 252.82,-54.11"/>
</a>
</g>
</g>
<!-- Node4 -->
<g id="Node000004" class="node">
<title>Node4</title>
<g id="a_Node000004"><a xlink:href="structEventMouseMoved.html" target="_top" xlink:title="Подія руху миші">
<polygon fill="white" stroke="#666666" points="333,-19 232,-19 232,0 333,0 333,-19"/>
<text text-anchor="middle" x="282.5" y="-7" font-family="Helvetica,sans-Serif" font-size="10.00">EventMouseMoved</text>
</a>
</g>
</g>
<!-- Node1&#45;&gt;Node4 -->
<g id="edge3_Node000001_Node000004" class="edge">
<title>Node1&#45;&gt;Node4</title>
<g id="a_edge3_Node000001_Node000004"><a xlink:title=" ">
<path fill="none" stroke="#63b8ff" d="M282.5,-44.66C282.5,-35.93 282.5,-25.99 282.5,-19.09"/>
<polygon fill="#63b8ff" stroke="#63b8ff" points="279,-44.75 282.5,-54.75 286,-44.75 279,-44.75"/>
</a>
</g>
</g>
<!-- Node5 -->
<g id="Node000005" class="node">
<title>Node5</title>
<g id="a_Node000005"><a xlink:href="structEventWindowClose.html" target="_top" xlink:title="Подія закриття вікна">
<polygon fill="white" stroke="#666666" points="454,-19 351,-19 351,0 454,0 454,-19"/>
<text text-anchor="middle" x="402.5" y="-7" font-family="Helvetica,sans-Serif" font-size="10.00">EventWindowClose</text>
</a>
</g>
</g>
<!-- Node1&#45;&gt;Node5 -->
<g id="edge4_Node000001_Node000005" class="edge">
<title>Node1&#45;&gt;Node5</title>
<g id="a_edge4_Node000001_Node000005"><a xlink:title=" ">
<path fill="none" stroke="#63b8ff" d="M311.03,-50.9C333.2,-41.11 363.35,-27.79 382.87,-19.17"/>
<polygon fill="#63b8ff" stroke="#63b8ff" points="309.51,-47.74 301.78,-54.98 312.34,-54.15 309.51,-47.74"/>
</a>
</g>
</g>
<!-- Node6 -->
<g id="Node000006" class="node">
<title>Node6</title>
<g id="a_Node000006"><a xlink:href="structEventWindowResize.html" target="_top" xlink:title="Подія зміни розміру вікна">
<polygon fill="white" stroke="#666666" points="580.5,-19 472.5,-19 472.5,0 580.5,0 580.5,-19"/>
<text text-anchor="middle" x="526.5" y="-7" font-family="Helvetica,sans-Serif" font-size="10.00">EventWindowResize</text>
</a>
</g>
</g>
<!-- Node1&#45;&gt;Node6 -->
<g id="edge5_Node000001_Node000006" class="edge">
<title>Node1&#45;&gt;Node6</title>
<g id="a_edge5_Node000001_Node000006"><a xlink:title=" ">
<path fill="none" stroke="#63b8ff" d="M325.05,-54.26C370.75,-44.33 442.77,-28.69 487.18,-19.04"/>
<polygon fill="#63b8ff" stroke="#63b8ff" points="324.18,-50.86 315.15,-56.41 325.67,-57.7 324.18,-50.86"/>
</a>
</g>
</g>
</g>
</svg>
