<?xml version="1.0" encoding="UTF-8" standalone="no"?>
<!DOCTYPE svg PUBLIC "-//W3C//DTD SVG 1.1//EN"
 "http://www.w3.org/Graphics/SVG/1.1/DTD/svg11.dtd">
<!-- Generated by graphviz version 2.43.0 (0)
 -->
<!-- Title: Time.cpp Pages: 1 -->
<svg width="310pt" height="148pt"
 viewBox="0.00 0.00 310.00 148.00" xmlns="http://www.w3.org/2000/svg" xmlns:xlink="http://www.w3.org/1999/xlink">
<g id="graph0" class="graph" transform="scale(1 1) rotate(0) translate(4 144)">
<title>Time.cpp</title>
<!-- Node1 -->
<g id="Node000001" class="node">
<title>Node1</title>
<g id="a_Node000001"><a xlink:title=" ">
<polygon fill="#999999" stroke="#666666" points="211.5,-140 154.5,-140 154.5,-121 211.5,-121 211.5,-140"/>
<text text-anchor="middle" x="183" y="-128" font-family="Helvetica,sans-Serif" font-size="10.00">Time.cpp</text>
</a>
</g>
</g>
<!-- Node2 -->
<g id="Node000002" class="node">
<title>Node2</title>
<g id="a_Node000002"><a xlink:href="Time_8h.html" target="_top" xlink:title=" ">
<polygon fill="white" stroke="#666666" points="110,-85 0,-85 0,-55 110,-55 110,-85"/>
<text text-anchor="start" x="8" y="-73" font-family="Helvetica,sans-Serif" font-size="10.00">EverEngineCore/core</text>
<text text-anchor="middle" x="55" y="-62" font-family="Helvetica,sans-Serif" font-size="10.00">/Time.h</text>
</a>
</g>
</g>
<!-- Node1&#45;&gt;Node2 -->
<g id="edge1_Node000001_Node000002" class="edge">
<title>Node1&#45;&gt;Node2</title>
<g id="a_edge1_Node000001_Node000002"><a xlink:title=" ">
<path fill="none" stroke="#63b8ff" d="M164.39,-120.99C146.35,-112.75 118.4,-99.98 95.27,-89.4"/>
<polygon fill="#63b8ff" stroke="#63b8ff" points="96.57,-86.15 86.02,-85.18 93.66,-92.52 96.57,-86.15"/>
</a>
</g>
</g>
<!-- Node3 -->
<g id="Node000003" class="node">
<title>Node3</title>
<g id="a_Node000003"><a xlink:href="Log_8h.html" target="_top" xlink:title=" ">
<polygon fill="white" stroke="#666666" points="238,-85 128,-85 128,-55 238,-55 238,-85"/>
<text text-anchor="start" x="136" y="-73" font-family="Helvetica,sans-Serif" font-size="10.00">EverEngineCore/core</text>
<text text-anchor="middle" x="183" y="-62" font-family="Helvetica,sans-Serif" font-size="10.00">/Log.h</text>
</a>
</g>
</g>
<!-- Node1&#45;&gt;Node3 -->
<g id="edge2_Node000001_Node000003" class="edge">
<title>Node1&#45;&gt;Node3</title>
<g id="a_edge2_Node000001_Node000003"><a xlink:title=" ">
<path fill="none" stroke="#63b8ff" d="M183,-120.87C183,-114.11 183,-104.35 183,-95.26"/>
<polygon fill="#63b8ff" stroke="#63b8ff" points="186.5,-95.11 183,-85.11 179.5,-95.11 186.5,-95.11"/>
</a>
</g>
</g>
<!-- Node5 -->
<g id="Node000005" class="node">
<title>Node5</title>
<g id="a_Node000005"><a xlink:title=" ">
<polygon fill="#e0e0e0" stroke="#999999" points="302,-79.5 256,-79.5 256,-60.5 302,-60.5 302,-79.5"/>
<text text-anchor="middle" x="279" y="-67.5" font-family="Helvetica,sans-Serif" font-size="10.00">chrono</text>
</a>
</g>
</g>
<!-- Node1&#45;&gt;Node5 -->
<g id="edge4_Node000001_Node000005" class="edge">
<title>Node1&#45;&gt;Node5</title>
<g id="a_edge4_Node000001_Node000005"><a xlink:title=" ">
<path fill="none" stroke="#63b8ff" d="M197.17,-120.87C212.69,-111.41 237.83,-96.09 256.15,-84.92"/>
<polygon fill="#63b8ff" stroke="#63b8ff" points="258.06,-87.86 264.78,-79.67 254.42,-81.88 258.06,-87.86"/>
</a>
</g>
</g>
<!-- Node4 -->
<g id="Node000004" class="node">
<title>Node4</title>
<g id="a_Node000004"><a xlink:title=" ">
<polygon fill="#e0e0e0" stroke="#999999" points="225.5,-19 140.5,-19 140.5,0 225.5,0 225.5,-19"/>
<text text-anchor="middle" x="183" y="-7" font-family="Helvetica,sans-Serif" font-size="10.00">spdlog/spdlog.h</text>
</a>
</g>
</g>
<!-- Node3&#45;&gt;Node4 -->
<g id="edge3_Node000003_Node000004" class="edge">
<title>Node3&#45;&gt;Node4</title>
<g id="a_edge3_Node000003_Node000004"><a xlink:title=" ">
<path fill="none" stroke="#63b8ff" d="M183,-54.84C183,-47.21 183,-37.7 183,-29.45"/>
<polygon fill="#63b8ff" stroke="#63b8ff" points="186.5,-29.27 183,-19.27 179.5,-29.27 186.5,-29.27"/>
</a>
</g>
</g>
</g>
</svg>
