<?xml version="1.0" encoding="UTF-8" standalone="no"?>
<!DOCTYPE svg PUBLIC "-//W3C//DTD SVG 1.1//EN"
 "http://www.w3.org/Graphics/SVG/1.1/DTD/svg11.dtd">
<!-- Generated by graphviz version 2.43.0 (0)
 -->
<!-- Title: Window.cpp Pages: 1 -->
<svg width="804pt" height="225pt"
 viewBox="0.00 0.00 804.00 225.00" xmlns="http://www.w3.org/2000/svg" xmlns:xlink="http://www.w3.org/1999/xlink">
<g id="graph0" class="graph" transform="scale(1 1) rotate(0) translate(4 221)">
<title>Window.cpp</title>
<!-- Node1 -->
<g id="Node000001" class="node">
<title>Node1</title>
<g id="a_Node000001"><a xlink:title=" ">
<polygon fill="#999999" stroke="#666666" points="522.5,-217 453.5,-217 453.5,-198 522.5,-198 522.5,-217"/>
<text text-anchor="middle" x="488" y="-205" font-family="Helvetica,sans-Serif" font-size="10.00">Window.cpp</text>
</a>
</g>
</g>
<!-- Node2 -->
<g id="Node000002" class="node">
<title>Node2</title>
<g id="a_Node000002"><a xlink:href="Window_8h.html" target="_top" xlink:title=" ">
<polygon fill="white" stroke="#666666" points="403,-162 277,-162 277,-132 403,-132 403,-162"/>
<text text-anchor="start" x="285" y="-150" font-family="Helvetica,sans-Serif" font-size="10.00">EverEngineCore/platform</text>
<text text-anchor="middle" x="340" y="-139" font-family="Helvetica,sans-Serif" font-size="10.00">/Window.h</text>
</a>
</g>
</g>
<!-- Node1&#45;&gt;Node2 -->
<g id="edge1_Node000001_Node000002" class="edge">
<title>Node1&#45;&gt;Node2</title>
<g id="a_edge1_Node000001_Node000002"><a xlink:title=" ">
<path fill="none" stroke="#63b8ff" d="M466.48,-197.99C445.27,-189.61 412.22,-176.55 385.22,-165.87"/>
<polygon fill="#63b8ff" stroke="#63b8ff" points="386.17,-162.49 375.58,-162.06 383.59,-169 386.17,-162.49"/>
</a>
</g>
</g>
<!-- Node3 -->
<g id="Node000003" class="node">
<title>Node3</title>
<g id="a_Node000003"><a xlink:href="Event_8h.html" target="_top" xlink:title=" ">
<polygon fill="white" stroke="#666666" points="339,-96 229,-96 229,-66 339,-66 339,-96"/>
<text text-anchor="start" x="237" y="-84" font-family="Helvetica,sans-Serif" font-size="10.00">EverEngineCore/core</text>
<text text-anchor="middle" x="284" y="-73" font-family="Helvetica,sans-Serif" font-size="10.00">/Event.h</text>
</a>
</g>
</g>
<!-- Node1&#45;&gt;Node3 -->
<g id="edge13_Node000001_Node000003" class="edge">
<title>Node1&#45;&gt;Node3</title>
<g id="a_edge13_Node000001_Node000003"><a xlink:title=" ">
<path fill="none" stroke="#63b8ff" d="M453.25,-204.66C397.25,-200.89 291.01,-190.13 268,-162 254.99,-146.09 261.87,-122.51 270.27,-105.07"/>
<polygon fill="#63b8ff" stroke="#63b8ff" points="273.43,-106.58 274.98,-96.1 267.23,-103.32 273.43,-106.58"/>
</a>
</g>
</g>
<!-- Node5 -->
<g id="Node000005" class="node">
<title>Node5</title>
<g id="a_Node000005"><a xlink:title=" ">
<polygon fill="#e0e0e0" stroke="#999999" points="515.5,-24.5 456.5,-24.5 456.5,-5.5 515.5,-5.5 515.5,-24.5"/>
<text text-anchor="middle" x="486" y="-12.5" font-family="Helvetica,sans-Serif" font-size="10.00">functional</text>
</a>
</g>
</g>
<!-- Node1&#45;&gt;Node5 -->
<g id="edge18_Node000001_Node000005" class="edge">
<title>Node1&#45;&gt;Node5</title>
<g id="a_edge18_Node000001_Node000005"><a xlink:title=" ">
<path fill="none" stroke="#63b8ff" d="M487.91,-197.82C487.6,-168.87 486.62,-75.2 486.2,-34.82"/>
<polygon fill="#63b8ff" stroke="#63b8ff" points="489.7,-34.69 486.09,-24.73 482.7,-34.77 489.7,-34.69"/>
</a>
</g>
</g>
<!-- Node10 -->
<g id="Node000010" class="node">
<title>Node10</title>
<g id="a_Node000010"><a xlink:title=" ">
<polygon fill="#e0e0e0" stroke="#999999" points="438,-24.5 386,-24.5 386,-5.5 438,-5.5 438,-24.5"/>
<text text-anchor="middle" x="412" y="-12.5" font-family="Helvetica,sans-Serif" font-size="10.00">memory</text>
</a>
</g>
</g>
<!-- Node1&#45;&gt;Node10 -->
<g id="edge19_Node000001_Node000010" class="edge">
<title>Node1&#45;&gt;Node10</title>
<g id="a_edge19_Node000001_Node000010"><a xlink:title=" ">
<path fill="none" stroke="#63b8ff" d="M484.54,-197.82C472.91,-168.69 435.14,-74 419.2,-34.04"/>
<polygon fill="#63b8ff" stroke="#63b8ff" points="422.44,-32.72 415.48,-24.73 415.94,-35.32 422.44,-32.72"/>
</a>
</g>
</g>
<!-- Node11 -->
<g id="Node000011" class="node">
<title>Node11</title>
<g id="a_Node000011"><a xlink:href="Log_8h.html" target="_top" xlink:title=" ">
<polygon fill="white" stroke="#666666" points="626,-162 516,-162 516,-132 626,-132 626,-162"/>
<text text-anchor="start" x="524" y="-150" font-family="Helvetica,sans-Serif" font-size="10.00">EverEngineCore/core</text>
<text text-anchor="middle" x="571" y="-139" font-family="Helvetica,sans-Serif" font-size="10.00">/Log.h</text>
</a>
</g>
</g>
<!-- Node1&#45;&gt;Node11 -->
<g id="edge14_Node000001_Node000011" class="edge">
<title>Node1&#45;&gt;Node11</title>
<g id="a_edge14_Node000001_Node000011"><a xlink:title=" ">
<path fill="none" stroke="#63b8ff" d="M500.25,-197.87C511.4,-190 528.3,-178.09 542.79,-167.89"/>
<polygon fill="#63b8ff" stroke="#63b8ff" points="544.82,-170.74 550.97,-162.11 540.78,-165.01 544.82,-170.74"/>
</a>
</g>
</g>
<!-- Node13 -->
<g id="Node000013" class="node">
<title>Node13</title>
<g id="a_Node000013"><a xlink:title=" ">
<polygon fill="#e0e0e0" stroke="#999999" points="724,-156.5 644,-156.5 644,-137.5 724,-137.5 724,-156.5"/>
<text text-anchor="middle" x="684" y="-144.5" font-family="Helvetica,sans-Serif" font-size="10.00">GLFW/glfw3.h</text>
</a>
</g>
</g>
<!-- Node1&#45;&gt;Node13 -->
<g id="edge16_Node000001_Node000013" class="edge">
<title>Node1&#45;&gt;Node13</title>
<g id="a_edge16_Node000001_Node000013"><a xlink:title=" ">
<path fill="none" stroke="#63b8ff" d="M516.5,-197.99C550.61,-187.81 607.87,-170.72 645.79,-159.4"/>
<polygon fill="#63b8ff" stroke="#63b8ff" points="646.88,-162.73 655.47,-156.52 644.88,-156.02 646.88,-162.73"/>
</a>
</g>
</g>
<!-- Node14 -->
<g id="Node000014" class="node">
<title>Node14</title>
<g id="a_Node000014"><a xlink:title=" ">
<polygon fill="#e0e0e0" stroke="#999999" points="796,-156.5 742,-156.5 742,-137.5 796,-137.5 796,-156.5"/>
<text text-anchor="middle" x="769" y="-144.5" font-family="Helvetica,sans-Serif" font-size="10.00">iostream</text>
</a>
</g>
</g>
<!-- Node1&#45;&gt;Node14 -->
<g id="edge17_Node000001_Node000014" class="edge">
<title>Node1&#45;&gt;Node14</title>
<g id="a_edge17_Node000001_Node000014"><a xlink:title=" ">
<path fill="none" stroke="#63b8ff" d="M522.56,-202.34C570.43,-196.11 659.36,-182.8 733,-162 735.15,-161.39 737.35,-160.71 739.55,-159.97"/>
<polygon fill="#63b8ff" stroke="#63b8ff" points="740.83,-163.23 749.05,-156.54 738.45,-156.65 740.83,-163.23"/>
</a>
</g>
</g>
<!-- Node2&#45;&gt;Node3 -->
<g id="edge2_Node000002_Node000003" class="edge">
<title>Node2&#45;&gt;Node3</title>
<g id="a_edge2_Node000002_Node000003"><a xlink:title=" ">
<path fill="none" stroke="#63b8ff" d="M327.57,-131.8C320.39,-123.59 311.21,-113.1 303.13,-103.87"/>
<polygon fill="#63b8ff" stroke="#63b8ff" points="305.61,-101.38 296.39,-96.16 300.34,-105.99 305.61,-101.38"/>
</a>
</g>
</g>
<!-- Node4 -->
<g id="Node000004" class="node">
<title>Node4</title>
<g id="a_Node000004"><a xlink:href="Keyboard_8h.html" target="_top" xlink:title=" ">
<polygon fill="white" stroke="#666666" points="126,-30 0,-30 0,0 126,0 126,-30"/>
<text text-anchor="start" x="8" y="-18" font-family="Helvetica,sans-Serif" font-size="10.00">EverEngineCore/platform</text>
<text text-anchor="middle" x="63" y="-7" font-family="Helvetica,sans-Serif" font-size="10.00">/Keyboard.h</text>
</a>
</g>
</g>
<!-- Node2&#45;&gt;Node4 -->
<g id="edge10_Node000002_Node000004" class="edge">
<title>Node2&#45;&gt;Node4</title>
<g id="a_edge10_Node000002_Node000004"><a xlink:title=" ">
<path fill="none" stroke="#63b8ff" d="M304.25,-131.94C280.22,-122.28 247.96,-108.93 220,-96 177.41,-76.31 129.51,-51.5 97.94,-34.77"/>
<polygon fill="#63b8ff" stroke="#63b8ff" points="99.56,-31.67 89.09,-30.07 96.27,-37.85 99.56,-31.67"/>
</a>
</g>
</g>
<!-- Node2&#45;&gt;Node5 -->
<g id="edge11_Node000002_Node000005" class="edge">
<title>Node2&#45;&gt;Node5</title>
<g id="a_edge11_Node000002_Node000005"><a xlink:title=" ">
<path fill="none" stroke="#63b8ff" d="M355.9,-131.84C383.48,-107.28 439.97,-56.99 468.57,-31.52"/>
<polygon fill="#63b8ff" stroke="#63b8ff" points="471.03,-34.01 476.18,-24.75 466.38,-28.78 471.03,-34.01"/>
</a>
</g>
</g>
<!-- Node2&#45;&gt;Node10 -->
<g id="edge12_Node000002_Node000010" class="edge">
<title>Node2&#45;&gt;Node10</title>
<g id="a_edge12_Node000002_Node000010"><a xlink:title=" ">
<path fill="none" stroke="#63b8ff" d="M347.84,-131.84C361.09,-107.92 387.87,-59.56 402.29,-33.53"/>
<polygon fill="#63b8ff" stroke="#63b8ff" points="405.37,-35.19 407.15,-24.75 399.25,-31.8 405.37,-35.19"/>
</a>
</g>
</g>
<!-- Node3&#45;&gt;Node4 -->
<g id="edge3_Node000003_Node000004" class="edge">
<title>Node3&#45;&gt;Node4</title>
<g id="a_edge3_Node000003_Node000004"><a xlink:title=" ">
<path fill="none" stroke="#63b8ff" d="M235.5,-65.95C201.82,-56.2 156.78,-43.16 121.16,-32.84"/>
<polygon fill="#63b8ff" stroke="#63b8ff" points="121.97,-29.43 111.39,-30.01 120.02,-36.16 121.97,-29.43"/>
</a>
</g>
</g>
<!-- Node3&#45;&gt;Node5 -->
<g id="edge4_Node000003_Node000005" class="edge">
<title>Node3&#45;&gt;Node5</title>
<g id="a_edge4_Node000003_Node000005"><a xlink:title=" ">
<path fill="none" stroke="#63b8ff" d="M331.97,-65.93C364.54,-56.22 408.52,-42.8 447,-30 448.89,-29.37 450.84,-28.71 452.79,-28.04"/>
<polygon fill="#63b8ff" stroke="#63b8ff" points="454.27,-31.23 462.55,-24.62 451.96,-24.62 454.27,-31.23"/>
</a>
</g>
</g>
<!-- Node6 -->
<g id="Node000006" class="node">
<title>Node6</title>
<g id="a_Node000006"><a xlink:title=" ">
<polygon fill="#e0e0e0" stroke="#999999" points="188,-24.5 144,-24.5 144,-5.5 188,-5.5 188,-24.5"/>
<text text-anchor="middle" x="166" y="-12.5" font-family="Helvetica,sans-Serif" font-size="10.00">vector</text>
</a>
</g>
</g>
<!-- Node3&#45;&gt;Node6 -->
<g id="edge5_Node000003_Node000006" class="edge">
<title>Node3&#45;&gt;Node6</title>
<g id="a_edge5_Node000003_Node000006"><a xlink:title=" ">
<path fill="none" stroke="#63b8ff" d="M258.1,-65.95C238.05,-55.08 210.45,-40.11 190.7,-29.4"/>
<polygon fill="#63b8ff" stroke="#63b8ff" points="192.16,-26.21 181.7,-24.52 188.83,-32.36 192.16,-26.21"/>
</a>
</g>
</g>
<!-- Node7 -->
<g id="Node000007" class="node">
<title>Node7</title>
<g id="a_Node000007"><a xlink:title=" ">
<polygon fill="#e0e0e0" stroke="#999999" points="244,-24.5 206,-24.5 206,-5.5 244,-5.5 244,-24.5"/>
<text text-anchor="middle" x="225" y="-12.5" font-family="Helvetica,sans-Serif" font-size="10.00">array</text>
</a>
</g>
</g>
<!-- Node3&#45;&gt;Node7 -->
<g id="edge6_Node000003_Node000007" class="edge">
<title>Node3&#45;&gt;Node7</title>
<g id="a_edge6_Node000003_Node000007"><a xlink:title=" ">
<path fill="none" stroke="#63b8ff" d="M270.91,-65.8C261.8,-55.92 249.63,-42.72 240.11,-32.39"/>
<polygon fill="#63b8ff" stroke="#63b8ff" points="242.5,-29.82 233.15,-24.84 237.36,-34.57 242.5,-29.82"/>
</a>
</g>
</g>
<!-- Node8 -->
<g id="Node000008" class="node">
<title>Node8</title>
<g id="a_Node000008"><a xlink:title=" ">
<polygon fill="#e0e0e0" stroke="#999999" points="305.5,-24.5 262.5,-24.5 262.5,-5.5 305.5,-5.5 305.5,-24.5"/>
<text text-anchor="middle" x="284" y="-12.5" font-family="Helvetica,sans-Serif" font-size="10.00">queue</text>
</a>
</g>
</g>
<!-- Node3&#45;&gt;Node8 -->
<g id="edge7_Node000003_Node000008" class="edge">
<title>Node3&#45;&gt;Node8</title>
<g id="a_edge7_Node000003_Node000008"><a xlink:title=" ">
<path fill="none" stroke="#63b8ff" d="M284,-65.8C284,-56.7 284,-44.79 284,-34.9"/>
<polygon fill="#63b8ff" stroke="#63b8ff" points="287.5,-34.84 284,-24.84 280.5,-34.84 287.5,-34.84"/>
</a>
</g>
</g>
<!-- Node9 -->
<g id="Node000009" class="node">
<title>Node9</title>
<g id="a_Node000009"><a xlink:title=" ">
<polygon fill="#e0e0e0" stroke="#999999" points="368,-24.5 324,-24.5 324,-5.5 368,-5.5 368,-24.5"/>
<text text-anchor="middle" x="346" y="-12.5" font-family="Helvetica,sans-Serif" font-size="10.00">mutex</text>
</a>
</g>
</g>
<!-- Node3&#45;&gt;Node9 -->
<g id="edge8_Node000003_Node000009" class="edge">
<title>Node3&#45;&gt;Node9</title>
<g id="a_edge8_Node000003_Node000009"><a xlink:title=" ">
<path fill="none" stroke="#63b8ff" d="M297.76,-65.8C307.43,-55.82 320.37,-42.46 330.42,-32.09"/>
<polygon fill="#63b8ff" stroke="#63b8ff" points="332.99,-34.46 337.43,-24.84 327.96,-29.59 332.99,-34.46"/>
</a>
</g>
</g>
<!-- Node3&#45;&gt;Node10 -->
<g id="edge9_Node000003_Node000010" class="edge">
<title>Node3&#45;&gt;Node10</title>
<g id="a_edge9_Node000003_Node000010"><a xlink:title=" ">
<path fill="none" stroke="#63b8ff" d="M312.09,-65.95C334.04,-54.98 364.33,-39.83 385.79,-29.11"/>
<polygon fill="#63b8ff" stroke="#63b8ff" points="387.59,-32.12 394.97,-24.52 384.46,-25.86 387.59,-32.12"/>
</a>
</g>
</g>
<!-- Node12 -->
<g id="Node000012" class="node">
<title>Node12</title>
<g id="a_Node000012"><a xlink:title=" ">
<polygon fill="#e0e0e0" stroke="#999999" points="613.5,-90.5 528.5,-90.5 528.5,-71.5 613.5,-71.5 613.5,-90.5"/>
<text text-anchor="middle" x="571" y="-78.5" font-family="Helvetica,sans-Serif" font-size="10.00">spdlog/spdlog.h</text>
</a>
</g>
</g>
<!-- Node11&#45;&gt;Node12 -->
<g id="edge15_Node000011_Node000012" class="edge">
<title>Node11&#45;&gt;Node12</title>
<g id="a_edge15_Node000011_Node000012"><a xlink:title=" ">
<path fill="none" stroke="#63b8ff" d="M571,-131.8C571,-122.7 571,-110.79 571,-100.9"/>
<polygon fill="#63b8ff" stroke="#63b8ff" points="574.5,-100.84 571,-90.84 567.5,-100.84 574.5,-100.84"/>
</a>
</g>
</g>
</g>
</svg>
